<?xml version="1.0" standalone="no"?>
<!DOCTYPE svg PUBLIC "-//W3C//DTD SVG 20010904//EN"
 "http://www.w3.org/TR/2001/REC-SVG-20010904/DTD/svg10.dtd">
<svg version="1.0" xmlns="http://www.w3.org/2000/svg"
 width="1024.000000pt" height="765.000000pt" viewBox="0 0 1024.000000 765.000000"
 preserveAspectRatio="xMidYMid meet">

<g transform="translate(0.000000,765.000000) scale(0.100000,-0.100000)"
fill="#000000" stroke="none">
<path d="M2190 6501 c-151 -40 -358 -130 -399 -174 -13 -14 -23 -37 -23 -51 0
-31 27 -76 46 -76 11 0 13 -10 9 -40 -4 -26 -2 -40 6 -40 6 0 11 -17 11 -40 0
-49 34 -141 66 -179 13 -16 24 -38 24 -50 0 -33 39 -168 66 -224 13 -29 24
-58 24 -66 0 -8 11 -37 24 -65 13 -28 36 -77 50 -108 13 -32 28 -58 31 -58 4
0 19 6 33 14 15 8 68 31 117 51 50 21 160 66 245 101 85 35 159 64 163 64 4 0
3 -9 -3 -20 -12 -22 4 -70 40 -120 11 -15 20 -30 20 -33 0 -2 -17 -7 -37 -11
-21 -3 -51 -17 -68 -30 -24 -20 -27 -26 -17 -39 10 -12 10 -16 -2 -20 -7 -3
-17 -2 -22 3 -5 5 -33 0 -64 -10 -30 -11 -76 -19 -102 -20 -54 0 -61 -12 -23
-42 14 -11 25 -27 25 -36 -1 -12 -7 -9 -22 12 l-21 28 -23 -43 c-13 -24 -23
-47 -24 -51 0 -5 19 -8 42 -8 53 0 122 33 149 71 11 16 36 41 55 56 35 26 36
26 67 8 l32 -18 -24 27 c-22 23 -23 28 -10 41 22 21 100 45 118 36 9 -5 22 -6
29 -4 7 3 12 -4 12 -17 0 -13 16 -37 36 -56 35 -34 35 -34 10 -34 -14 0 -26
-5 -26 -10 0 -17 31 -24 52 -11 15 9 22 9 33 -3 8 -8 47 -36 87 -62 40 -26 74
-49 76 -50 2 -1 -8 -13 -22 -27 -32 -32 -34 -72 -6 -87 28 -15 86 4 101 33 7
12 13 23 14 25 2 2 32 -11 66 -29 93 -47 222 -183 286 -303 7 -13 38 -42 68
-65 30 -23 55 -44 55 -46 0 -7 -52 15 -69 28 -12 10 -13 9 -7 -8 4 -11 18 -51
31 -90 13 -38 30 -83 38 -98 l15 -29 7 32 c5 25 2 39 -14 61 -25 34 -26 42 -6
59 22 18 18 38 -13 74 -15 17 -52 76 -82 130 -39 70 -76 120 -126 170 -95 95
-94 94 -222 163 -37 20 -83 47 -102 59 -19 13 -38 24 -42 24 -21 0 -136 92
-202 160 -67 72 -108 141 -92 157 3 4 -3 17 -15 29 -20 22 -90 204 -110 289
-5 22 -26 89 -46 149 -29 85 -42 111 -61 119 -20 10 -23 16 -18 46 3 21 0 44
-9 60 -8 14 -21 50 -30 78 -9 29 -27 61 -40 71 -20 16 -26 32 -31 88 -5 51
-12 73 -28 86 -27 22 -90 22 -176 -1z m153 -77 c4 -27 7 -58 7 -70 0 -11 14
-34 31 -50 26 -25 65 -93 57 -99 -2 -1 -52 -18 -112 -38 -60 -20 -111 -39
-114 -42 -12 -11 8 -16 26 -6 12 6 34 11 51 11 17 0 56 11 87 25 31 14 60 25
64 25 16 0 27 -45 17 -68 -8 -18 -6 -28 11 -50 12 -15 28 -38 36 -52 17 -30
130 -360 125 -363 -2 -2 -44 -11 -92 -20 -91 -18 -107 -25 -295 -114 -62 -29
-118 -53 -125 -53 -14 0 -28 32 -62 141 -13 42 -31 91 -40 109 -27 51 -44 121
-38 150 4 22 -2 33 -28 58 -38 36 -34 57 15 77 35 15 52 32 43 42 -3 2 -26 -4
-50 -15 -56 -25 -67 -16 -67 51 0 26 -5 57 -10 68 -7 13 -7 25 0 38 8 16 3 25
-30 54 -60 51 -50 64 100 130 125 54 196 79 280 97 47 10 90 17 95 16 6 -1 13
-25 18 -52z m307 -824 c8 -15 8 -21 -2 -23 -101 -25 -353 -121 -451 -173 -38
-21 -51 -23 -62 -14 -8 7 -15 16 -15 20 0 26 428 202 507 209 7 1 17 -8 23
-19z m80 -90 c0 -5 -4 -10 -10 -10 -5 0 -10 5 -10 10 0 6 5 10 10 10 6 0 10
-4 10 -10z m395 -460 c7 -12 -41 -44 -55 -35 -16 10 7 45 30 45 10 0 21 -4 25
-10z"/>
<path d="M2067 6316 c-104 -51 -147 -80 -136 -91 7 -7 275 120 284 134 15 25
-47 7 -148 -43z"/>
<path d="M2190 6286 c-102 -35 -234 -97 -263 -123 -28 -26 -3 -39 30 -15 15
11 64 34 108 51 43 18 84 36 90 40 5 4 33 16 61 26 55 19 110 55 84 54 -8 0
-58 -15 -110 -33z"/>
<path d="M2065 6071 c-3 -5 -1 -12 5 -16 13 -8 50 3 50 16 0 12 -47 12 -55 0z"/>
<path d="M2260 6023 c-52 -19 -115 -40 -139 -48 -24 -8 -65 -27 -90 -43 -43
-25 -44 -27 -20 -30 30 -3 276 93 330 129 42 29 17 26 -81 -8z"/>
<path d="M2318 5944 c-26 -13 -84 -36 -128 -50 -75 -23 -80 -27 -79 -52 0 -27
17 -77 18 -55 1 16 64 53 90 53 12 0 21 -6 21 -15 0 -8 -7 -15 -15 -15 -20 0
-40 -44 -30 -67 7 -17 8 -17 16 2 6 13 7 1 4 -36 -5 -42 -2 -59 9 -68 12 -10
16 -8 21 8 3 12 3 25 0 31 -3 6 -10 33 -14 60 -18 113 45 16 73 -112 l6 -27
46 16 c35 12 43 18 32 24 -15 8 -39 67 -73 178 -9 29 -15 54 -13 56 13 12 81
33 93 29 23 -9 18 20 -7 43 l-23 21 -47 -24z"/>
<path d="M2330 5850 c0 -5 9 -14 20 -20 16 -9 18 -15 10 -30 -15 -27 -13 -30
20 -30 28 0 30 -3 28 -32 -1 -18 -6 -39 -11 -46 -6 -7 -7 -15 -3 -19 3 -3 6
-1 6 6 0 6 11 16 25 21 14 5 25 18 25 28 0 24 -28 62 -46 62 -10 0 -13 7 -9
23 5 18 1 26 -20 35 -31 15 -45 15 -45 2z"/>
<path d="M6410 6070 c0 -6 10 -24 22 -40 15 -21 30 -30 50 -30 45 0 33 29 -25
60 -42 23 -47 24 -47 10z"/>
<path d="M6520 5873 c-7 -49 -23 -137 -36 -197 -13 -60 -24 -121 -24 -136 0
-30 -50 -90 -75 -90 -26 0 -62 29 -73 58 -16 42 -24 200 -13 274 14 101 58
146 109 112 30 -19 37 -13 21 18 -27 52 -68 51 -121 -2 -22 -22 -42 -40 -44
-40 -2 0 -4 9 -4 19 0 29 -11 51 -24 51 -9 0 -11 -63 -9 -252 3 -238 4 -253
22 -256 13 -2 22 6 29 25 6 17 11 21 11 11 1 -23 69 -68 102 -68 14 0 34 9 44
20 13 14 21 17 26 9 10 -17 29 -1 29 23 0 12 8 55 17 95 l17 74 39 -3 40 -3
18 -70 c10 -38 16 -72 13 -76 -2 -4 3 -15 12 -24 22 -21 47 -2 38 29 -5 16 0
14 24 -11 39 -43 74 -43 113 -2 42 45 59 111 49 195 -14 125 -49 174 -112 152
-16 -6 -28 -14 -28 -19 0 -20 -37 -8 -48 15 -15 33 8 80 48 96 25 10 34 10 56
-5 39 -25 54 -4 21 29 -46 46 -122 24 -158 -46 -29 -57 -25 -92 14 -122 41
-31 51 -32 84 -6 14 11 32 20 39 20 16 0 33 -55 41 -137 5 -51 2 -69 -17 -108
-12 -26 -29 -49 -38 -52 -20 -8 -62 41 -62 71 0 24 -24 41 -41 31 -4 -3 -10 4
-13 17 -14 79 -81 345 -89 356 -23 30 -35 10 -47 -75z m59 -147 c6 -33 11 -63
11 -68 0 -12 -48 -10 -55 3 -9 14 16 143 25 132 5 -4 13 -35 19 -67z"/>
<path d="M7464 5875 c-31 -47 -59 -85 -63 -85 -3 0 -37 36 -76 80 -38 44 -73
80 -77 80 -16 0 -14 -58 13 -362 9 -106 15 -138 26 -138 7 0 16 6 19 14 4 12
-14 206 -32 339 -4 26 -4 47 -1 47 3 0 31 -27 62 -60 56 -58 58 -59 81 -43 14
9 44 43 67 76 l42 60 6 -104 c4 -57 7 -153 8 -214 1 -115 8 -142 35 -132 14 6
16 25 11 164 -14 410 -21 427 -121 278z"/>
<path d="M6159 5948 c0 -2 -3 -52 -5 -113 -6 -176 -15 -295 -22 -295 -23 2
-104 154 -127 240 -4 14 -18 49 -31 78 -13 29 -24 58 -24 64 0 6 -8 4 -18 -5
-23 -21 -200 -25 -220 -5 -21 21 -33 -11 -27 -72 10 -103 16 -230 11 -230 -3
0 -13 16 -21 36 -11 26 -13 54 -9 103 5 52 3 74 -10 99 -27 51 -58 65 -150 68
-69 1 -87 -2 -123 -23 -49 -27 -73 -61 -52 -73 7 -5 18 -2 26 6 8 8 23 18 32
24 17 9 18 -1 19 -153 0 -89 5 -184 12 -212 7 -33 8 -51 1 -53 -11 -4 17 -72
34 -84 13 -10 25 0 25 22 0 15 10 20 48 25 79 10 145 37 159 65 12 23 13 23
13 4 0 -31 41 -64 79 -64 39 0 121 19 138 32 7 6 20 5 33 -2 28 -15 29 -8 32
137 l3 122 70 -127 c53 -95 75 -127 90 -127 26 0 31 28 45 268 12 205 10 247
-15 247 -8 0 -15 -1 -16 -2z m-602 -83 c58 -25 73 -43 73 -90 0 -24 -6 -47
-12 -53 -22 -18 -158 -46 -168 -36 -7 7 -8 44 -4 97 6 77 9 86 28 90 39 8 47
7 83 -8z m367 -49 c5 -36 10 -300 7 -350 -1 -14 -4 -16 -15 -7 -10 8 -21 8
-40 1 -15 -5 -49 -10 -75 -10 -46 0 -49 1 -55 31 -3 17 -6 64 -6 104 l0 73 45
6 c44 7 53 18 36 45 -6 10 -21 12 -50 8 -23 -3 -39 -2 -37 2 2 3 1 34 -3 68
l-7 62 30 3 c17 2 61 4 98 4 l66 1 6 -41z m-285 -190 c17 -36 25 -97 17 -129
-7 -29 -19 -35 -113 -51 l-73 -13 0 31 c-1 17 -7 60 -15 96 -7 36 -12 67 -10
69 7 6 138 29 160 27 11 0 26 -13 34 -30z"/>
<path d="M6964 5925 c-81 -63 -57 -235 29 -209 12 3 30 14 40 23 17 15 20 14
32 -2 28 -38 30 -169 4 -219 -12 -22 -74 -41 -107 -33 -15 3 -37 15 -48 26
-28 26 -40 9 -22 -28 39 -81 186 -59 224 33 16 39 18 153 3 207 -19 69 -77 98
-114 57 -29 -32 -48 -8 -43 52 6 57 29 81 70 73 34 -5 47 13 23 32 -28 19 -56
16 -91 -12z"/>
<path d="M7144 5908 c20 -95 26 -136 26 -187 0 -32 7 -80 15 -107 8 -27 15
-62 15 -79 0 -41 15 -64 31 -48 10 10 7 52 -10 195 -29 233 -31 242 -59 246
-19 3 -22 0 -18 -20z"/>
<path d="M2458 5444 c-5 -4 -8 -17 -8 -30 0 -27 71 -87 97 -82 13 3 6 12 -29
36 -32 22 -48 40 -50 58 -2 14 -6 22 -10 18z"/>
<path d="M2397 5403 c-3 -5 -2 -15 2 -22 7 -10 10 -10 16 -1 4 6 3 16 -3 22
-5 5 -12 6 -15 1z"/>
<path d="M2312 5370 c-7 -11 -21 -20 -33 -20 -28 0 -61 -19 -54 -31 9 -14 97
-10 118 5 13 10 16 21 11 40 -7 31 -24 34 -42 6z"/>
<path d="M5157 5353 c-4 -3 -7 -15 -7 -26 0 -10 -13 -31 -29 -46 -38 -36 -32
-66 15 -81 l35 -12 -46 -43 c-57 -52 -58 -82 -6 -100 l35 -11 -46 -22 c-53
-26 -83 -56 -75 -75 6 -15 50 -27 102 -27 55 0 48 -14 -17 -35 -53 -17 -63
-24 -66 -45 -3 -24 2 -26 99 -48 58 -14 97 -28 92 -33 -4 -4 -65 -10 -133 -11
-116 -3 -125 -4 -125 -23 0 -16 15 -22 100 -41 111 -24 153 -38 139 -47 -6 -3
-50 -9 -99 -13 -94 -7 -115 -15 -115 -44 0 -20 27 -30 88 -30 45 0 112 -23
112 -38 0 -14 -37 -22 -97 -22 -63 0 -83 -7 -83 -29 0 -13 26 -26 95 -51 92
-33 110 -45 82 -56 -13 -5 -230 89 -257 111 -8 7 -36 22 -62 33 l-48 21 0 63
c0 78 -17 108 -62 108 -20 0 -42 11 -65 30 -54 48 -108 40 -178 -26 -21 -20
-54 -41 -71 -46 -36 -10 -53 -41 -34 -63 13 -16 7 -88 -10 -115 -6 -9 -24 -15
-47 -15 -34 0 -40 -4 -57 -40 -10 -22 -23 -82 -29 -135 -9 -85 -8 -99 8 -133
16 -35 65 -73 78 -61 3 3 10 -3 16 -14 9 -17 -4 -137 -24 -222 -4 -14 -11 -45
-17 -70 -17 -68 -34 -83 -87 -75 -44 7 -119 47 -134 71 -16 27 -73 76 -104 90
-40 17 -95 18 -111 2 -20 -20 -38 9 -57 87 -9 39 -27 93 -41 122 -13 28 -24
59 -24 68 0 9 -15 53 -34 98 -19 45 -43 107 -54 137 l-20 55 -7 -45 c-5 -35
-1 -63 19 -124 14 -43 26 -84 26 -91 0 -6 -18 -17 -41 -24 -25 -8 -43 -20 -48
-34 -12 -30 0 -32 45 -8 48 26 61 26 74 2 14 -27 13 -61 -2 -61 -7 0 -40 -11
-73 -24 -52 -21 -62 -29 -73 -62 -17 -49 -10 -67 11 -28 18 35 37 46 57 34 9
-6 7 -16 -11 -41 -13 -19 -25 -36 -26 -38 -2 -2 -6 -2 -9 2 -4 3 4 23 16 44
21 37 22 37 1 13 -12 -14 -36 -52 -53 -85 l-32 -60 -9 31 c-6 21 -5 48 5 87
17 66 11 70 -46 36 l-35 -20 -17 26 c-16 24 -16 27 1 45 10 11 23 20 29 20 7
0 29 9 51 20 22 11 47 20 56 20 11 0 17 8 17 26 0 29 2 29 -93 -8 -110 -43
-125 -54 -125 -93 0 -19 -4 -35 -9 -35 -5 0 -26 -7 -47 -16 l-39 -16 24 -20
c14 -11 27 -15 30 -9 4 5 20 15 36 21 34 13 40 7 81 -72 20 -40 28 -47 51 -45
20 1 28 -3 31 -17 6 -27 -17 -37 -47 -21 -14 7 -51 36 -83 64 -60 54 -75 62
-59 33 15 -29 149 -134 161 -127 5 3 21 -5 35 -19 33 -33 42 -33 21 -1 -9 13
-16 40 -16 60 0 32 4 38 35 51 19 8 35 18 35 23 0 5 17 11 38 14 36 6 100 34
126 56 21 17 34 -6 71 -128 19 -61 39 -120 45 -130 6 -11 19 -46 29 -78 11
-32 38 -107 61 -168 23 -60 49 -136 59 -167 13 -46 25 -64 59 -90 29 -22 42
-40 42 -57 l0 -24 -25 23 -24 23 11 -34 c6 -19 11 -47 12 -64 1 -28 -5 -32
-214 -138 -118 -59 -258 -126 -310 -149 -52 -22 -102 -46 -111 -54 -8 -8 -21
-14 -27 -14 -6 0 -40 -13 -74 -30 -61 -29 -178 -80 -453 -197 -182 -77 -226
-94 -237 -91 -11 4 -88 181 -88 202 0 20 -17 29 -24 14 -2 -7 -4 -2 -3 12 1
16 -3 25 -13 25 -11 0 -14 10 -12 37 2 23 -5 53 -18 79 -12 23 -42 94 -67 158
-89 230 -115 297 -129 336 -8 22 -19 48 -24 57 -6 10 -10 23 -10 29 0 6 -12
40 -26 75 -25 63 -25 66 -7 79 10 8 26 15 35 15 23 0 88 31 88 42 0 4 -11 10
-25 14 -17 4 -39 -2 -71 -21 -58 -34 -59 -33 -99 92 -16 49 -34 97 -42 108
-24 36 -13 39 22 5 19 -19 35 -32 35 -29 0 3 19 -13 43 -36 57 -55 116 -99
123 -93 3 3 -28 34 -68 69 -40 35 -101 92 -135 126 -35 34 -63 59 -63 56 0 -3
-8 1 -17 9 -39 33 -40 25 -6 -54 19 -46 38 -94 42 -108 5 -14 18 -44 30 -67
l21 -42 -29 -17 c-71 -42 -108 -150 -132 -384 -17 -165 -5 -627 21 -770 l20
-115 -24 -20 c-35 -29 -83 -127 -91 -185 -17 -127 18 -220 84 -220 31 0 33 -4
46 -67 12 -60 94 -99 152 -71 21 10 30 23 37 56 11 48 16 50 41 22 25 -28 79
-27 99 2 18 26 21 100 5 130 -11 20 -9 21 37 15 43 -4 51 -2 76 23 41 42 38
79 -11 118 -21 17 -48 51 -60 75 -12 24 -47 72 -79 106 -46 49 -63 61 -88 61
l-32 0 -7 203 c-14 421 -6 542 41 595 27 31 33 26 60 -48 17 -49 44 -114 93
-226 17 -39 31 -75 31 -81 0 -6 16 -44 35 -86 29 -63 35 -88 35 -144 1 -40 7
-78 15 -93 l14 -25 1 25 c0 14 4 31 9 39 7 11 11 10 19 -5 5 -11 13 -34 17
-51 6 -30 80 -108 94 -101 103 50 156 74 251 112 63 26 138 57 165 70 79 39
241 106 253 106 7 0 10 -13 7 -32 l-5 -33 14 30 c9 17 15 38 16 47 0 11 14 21
40 29 22 7 37 16 33 22 -4 6 0 8 11 4 10 -4 33 2 54 13 20 10 80 39 132 63 52
25 139 65 192 91 53 25 101 46 106 46 5 0 14 6 20 13 6 7 42 28 81 47 l71 35
0 43 c0 26 4 41 10 37 20 -13 9 47 -17 88 -30 48 -59 118 -78 192 -7 28 -32
95 -54 149 -46 110 -49 126 -23 104 50 -42 172 -72 270 -66 85 5 115 19 170
77 62 67 83 125 110 316 l17 120 62 0 c48 0 68 5 92 23 17 12 42 27 56 32 21
8 75 78 88 114 2 6 34 -17 70 -51 44 -43 73 -63 90 -63 25 0 147 92 147 111 0
5 11 9 25 9 30 0 43 24 24 46 -7 8 -13 26 -14 40 0 20 4 24 26 24 67 0 57 65
-15 100 -25 12 -46 25 -46 30 0 4 24 15 54 24 96 30 100 71 11 93 -62 16 -77
30 -39 38 81 17 89 21 92 45 5 30 -21 50 -65 50 -18 0 -33 5 -33 10 0 6 3 10
8 11 104 15 137 25 137 42 0 20 -35 36 -137 64 -32 8 -58 19 -58 23 0 4 24 20
53 35 61 33 69 43 56 67 -8 14 -22 18 -74 18 -36 0 -65 4 -65 9 0 5 20 17 45
26 78 30 82 57 12 81 -38 13 -43 43 -11 59 34 17 54 36 54 51 0 16 -31 49 -51
56 -11 4 -10 11 5 40 25 46 11 110 -17 81z m-473 -672 c3 -5 -9 -28 -28 -50
-19 -23 -38 -51 -42 -64 -3 -12 -12 -35 -19 -52 -22 -49 -45 -124 -45 -145 0
-26 -16 -26 -30 -1 -5 11 -23 28 -39 37 -24 14 -28 21 -20 35 5 10 9 27 9 39
0 34 47 123 88 168 34 36 45 42 80 42 22 0 43 -4 46 -9z m106 -50 c13 -25 13
-101 0 -101 -19 0 -120 42 -120 50 0 15 70 70 90 70 11 0 24 -9 30 -19z m-86
-116 c5 -15 -21 -75 -32 -75 -6 0 -17 11 -26 25 -15 23 -15 28 -1 55 14 26 18
28 35 18 11 -7 21 -17 24 -23z m113 -41 c36 -16 39 -27 18 -64 -8 -14 -14 -40
-15 -57 0 -18 -4 -33 -9 -33 -14 0 -111 90 -111 103 0 7 9 27 20 45 22 36 25
36 97 6z m-128 -157 c-33 -27 -69 -88 -69 -114 0 -45 77 -72 128 -44 31 17 25
47 -8 42 -56 -8 -65 -6 -68 14 -2 13 12 35 38 60 l40 39 36 -35 c33 -31 35
-37 31 -82 -5 -57 -23 -79 -93 -112 -67 -32 -111 -32 -153 -1 -46 34 -116 50
-153 35 -25 -10 -33 -9 -56 8 -26 20 -27 23 -25 114 4 158 18 178 96 140 76
-38 131 -141 75 -141 -32 0 -46 11 -66 50 -21 40 -37 37 -36 -8 2 -49 38 -82
90 -82 25 0 49 6 58 15 20 21 46 108 46 156 0 73 8 76 64 20 l51 -51 -26 -23z
m250 45 c-23 -48 -36 -122 -20 -122 6 0 11 9 11 20 0 31 31 100 49 109 9 5 27
4 41 -2 14 -5 33 -11 42 -12 10 -1 20 -4 23 -7 7 -7 -23 -78 -34 -78 -4 0 -20
-25 -35 -55 -14 -30 -31 -55 -36 -55 -11 0 -50 40 -50 52 0 4 -6 8 -13 8 -7 0
-28 19 -46 43 -28 36 -32 48 -28 84 2 24 12 54 21 68 l17 26 38 -22 38 -21
-18 -36z m211 -122 c0 -5 -4 -10 -9 -10 -6 0 -13 5 -16 10 -3 6 1 10 9 10 9 0
16 -4 16 -10z m-30 -56 c0 -8 -5 -12 -10 -9 -6 4 -8 11 -5 16 9 14 15 11 15
-7z m-71 -57 c0 -21 -1 -21 -9 -2 -12 28 -12 37 0 30 6 -3 10 -16 9 -28z
m-1294 -147 c-8 -16 -15 -36 -15 -44 0 -8 -4 -18 -10 -21 -19 -11 -10 42 11
69 27 34 33 33 14 -4z m19 -14 c-9 -15 -19 -24 -22 -22 -2 3 3 17 12 32 10 14
20 23 23 21 2 -3 -3 -17 -13 -31z m-83 -59 c-8 -8 -11 -7 -11 4 0 20 13 34 18
19 3 -7 -1 -17 -7 -23z m-151 -1 c0 -22 -11 -46 -22 -46 -5 0 -6 10 -3 21 5
15 4 19 -4 15 -12 -8 -15 6 -4 17 12 12 33 7 33 -7z m-1178 -1712 c24 -31 58
-79 75 -108 18 -28 44 -60 59 -72 18 -15 25 -29 22 -45 -3 -21 -8 -24 -38 -21
-113 9 -105 11 -103 -28 0 -19 4 -56 8 -81 5 -31 4 -49 -4 -53 -15 -10 -68 36
-110 95 -19 27 -37 49 -41 49 -19 0 -19 -36 0 -67 27 -45 26 -107 -1 -134 -18
-18 -23 -19 -42 -6 -43 28 -65 85 -70 180 -2 48 -7 91 -11 95 -11 10 -26 -20
-26 -54 0 -46 -11 -94 -21 -94 -5 0 -18 15 -30 33 -34 55 -15 226 34 285 8 10
14 8 32 -8 33 -31 75 -40 121 -24 48 16 74 47 74 85 0 45 24 36 72 -27z"/>
<path d="M2150 5306 c-7 -19 -7 -39 -1 -60 16 -55 21 -96 10 -96 -6 0 -7 -18
-4 -47 11 -82 -28 -251 -104 -453 -70 -184 -95 -358 -71 -486 12 -61 14 -65
23 -44 6 14 13 84 17 155 8 143 22 209 75 365 65 187 84 251 91 299 10 70 16
71 46 6 24 -54 27 -57 28 -29 0 16 -10 50 -22 75 -13 28 -23 71 -26 118 l-5
75 44 -32 c53 -40 69 -40 69 -4 0 27 -30 68 -42 57 -9 -10 -68 17 -68 31 0 20
24 17 45 -6 14 -16 20 -18 27 -8 6 10 13 8 27 -10 21 -24 24 -22 41 23 9 23 8
26 -5 21 -9 -3 -44 5 -77 19 -34 14 -66 25 -71 25 -5 0 -16 8 -23 18 -11 16
-13 15 -24 -12z"/>
<path d="M2725 5240 c-17 -7 -18 -9 -4 -14 9 -4 20 -6 25 -5 28 5 36 -1 24
-16 -9 -11 -10 -19 -2 -27 17 -17 32 1 32 38 0 31 -3 34 -27 33 -16 0 -37 -4
-48 -9z"/>
<path d="M6765 5219 c-4 -6 -16 -45 -26 -86 -20 -79 -26 -159 -10 -134 6 10
10 10 13 1 3 -11 94 97 105 127 5 13 2 15 -16 10 -17 -4 -21 -2 -17 10 3 8 6
18 6 21 0 4 5 0 10 -8 9 -13 10 -13 10 1 0 27 -64 77 -75 58z m40 -38 c6 -10
-42 -127 -50 -120 -7 7 27 129 36 129 4 0 10 -4 14 -9z"/>
<path d="M2651 5178 c-11 -24 -25 -75 -32 -113 -14 -84 -48 -140 -95 -157 -28
-10 -31 -14 -18 -21 22 -12 78 0 96 21 9 9 19 27 22 38 4 12 22 38 41 57 19
20 35 45 35 57 0 11 7 23 15 27 9 3 22 18 31 34 18 36 30 36 52 1 10 -17 24
-26 35 -24 10 2 26 -7 37 -20 l19 -23 1 29 c0 18 -11 41 -30 63 -26 29 -30 31
-30 13 0 -24 2 -24 -45 -4 -34 14 -39 14 -56 -2 -11 -10 -29 -33 -41 -53 -29
-47 -34 -26 -8 39 18 47 19 55 6 68 -13 13 -17 9 -35 -30z"/>
<path d="M6086 5146 l-29 -24 31 -43 c31 -45 87 -99 103 -99 12 0 11 34 -5
109 -19 86 -45 101 -100 57z m72 -60 c18 -57 10 -64 -21 -19 -31 45 -34 66 -9
61 10 -2 22 -20 30 -42z"/>
<path d="M7200 5139 c0 -7 -10 -9 -25 -5 -29 7 -54 -16 -84 -78 -10 -23 -35
-68 -55 -100 -64 -106 -42 -128 71 -72 68 33 80 36 131 31 l57 -6 43 56 c37
48 43 62 40 97 l-3 41 -70 23 c-77 26 -105 30 -105 13z m87 -45 c39 -8 35 -19
-21 -63 -28 -22 -45 -29 -62 -25 -24 6 -77 -20 -121 -59 -28 -25 -30 -7 -5 31
11 15 35 52 55 83 l36 57 43 -9 c24 -5 58 -12 75 -15z m63 -45 c0 -14 -59 -99
-69 -99 -5 0 -23 3 -40 6 l-32 7 39 17 c22 10 50 32 63 49 23 31 39 40 39 20z
m-162 -87 c14 -9 0 -17 -93 -54 -57 -22 -55 -19 12 28 51 35 61 38 81 26z"/>
<path d="M5220 5106 c0 -7 11 -21 24 -29 23 -15 24 -15 30 6 3 12 0 25 -7 29
-20 12 -47 9 -47 -6z"/>
<path d="M2314 5088 c-12 -18 -14 -38 -4 -38 8 0 22 41 16 48 -2 2 -8 -3 -12
-10z"/>
<path d="M4970 5067 c-46 -23 -35 -66 16 -67 26 0 46 39 32 63 -11 20 -15 21
-48 4z"/>
<path d="M2915 5034 c1 -22 11 -32 49 -51 60 -30 69 -24 19 13 -21 15 -45 36
-53 46 -15 18 -16 17 -15 -8z"/>
<path d="M2302 5010 c3 -31 7 -35 34 -38 39 -4 85 30 67 49 -9 9 -19 9 -44 -1
-28 -12 -33 -12 -46 6 -13 18 -14 16 -11 -16z"/>
<path d="M7666 4959 c-35 -47 -43 -91 -14 -73 7 5 44 11 83 14 67 5 70 6 73
32 3 22 -4 32 -37 52 -22 15 -46 26 -54 26 -7 0 -30 -23 -51 -51z m85 4 c16
-10 29 -20 29 -24 0 -4 -23 -9 -50 -11 -28 -1 -50 -2 -50 0 0 6 33 52 37 52 3
0 18 -8 34 -17z"/>
<path d="M6369 4953 c-69 -36 -76 -42 -102 -98 -27 -56 -30 -58 -43 -40 -8 10
-14 26 -14 35 0 24 -21 40 -52 40 -22 0 -33 -8 -46 -31 -37 -66 -38 -67 -60
-23 -35 68 -102 114 -167 114 -20 0 -57 -11 -84 -24 -42 -22 -51 -33 -75 -88
-15 -35 -30 -88 -33 -118 -10 -99 -39 -132 -133 -150 -66 -13 -92 -29 -130
-82 -44 -60 -42 -118 4 -164 19 -19 43 -34 54 -34 41 0 38 -44 -2 -54 -29 -7
-67 -65 -91 -135 -15 -47 -16 -60 -5 -90 18 -52 38 -71 75 -71 27 0 34 5 39
26 4 15 9 24 12 21 3 -3 -1 -38 -10 -79 -21 -100 -37 -289 -27 -325 5 -16 17
-46 28 -68 22 -44 21 -115 -2 -115 -7 0 -19 -2 -27 -5 -9 -4 -21 15 -38 59
-34 91 -119 180 -222 230 -64 32 -89 39 -160 43 -270 17 -461 -142 -508 -425
-16 -95 22 -233 89 -321 97 -131 290 -216 441 -195 59 8 181 67 227 110 20 19
37 33 38 32 1 -2 -1 -68 -5 -147 -5 -83 -4 -169 1 -200 5 -31 9 -59 9 -62 0
-4 -12 -12 -27 -18 -66 -28 -151 -207 -140 -294 8 -62 80 -123 113 -96 11 9
22 4 49 -20 41 -36 54 -38 86 -12 23 19 24 19 52 -1 26 -18 29 -19 52 -4 14 9
32 30 40 46 10 20 23 30 38 30 33 0 47 19 47 61 0 21 4 40 10 44 5 3 26 -5 47
-17 72 -44 138 -69 233 -86 l95 -18 1 -84 c0 -49 -4 -95 -12 -110 l-12 -24
-15 34 c-29 70 -96 112 -134 85 -16 -12 -15 -63 1 -105 4 -11 -9 -21 -45 -37
-44 -19 -53 -29 -75 -78 -25 -55 -26 -58 -11 -97 15 -38 15 -40 -2 -45 -13 -3
-20 -18 -25 -50 -3 -25 -3 -50 0 -55 9 -14 -35 10 -67 37 -15 12 -54 28 -88
35 -74 15 -130 3 -163 -36 -24 -26 -38 -31 -38 -11 0 20 -49 67 -70 67 -11 0
-37 -7 -57 -14 -60 -23 -162 -45 -233 -50 -65 -5 -113 -18 -183 -52 -33 -16
-38 -22 -32 -44 3 -14 13 -79 20 -145 33 -283 56 -389 125 -580 60 -166 61
-166 197 -141 115 21 177 46 193 76 9 18 6 36 -20 108 -17 47 -35 91 -39 97
-14 17 -44 122 -39 136 2 7 17 -23 33 -66 42 -120 85 -186 137 -211 90 -45
103 -49 154 -47 65 2 123 31 161 80 40 51 50 70 89 182 30 85 34 107 34 196 0
55 -4 117 -9 138 l-9 37 44 0 c39 0 44 -2 44 -23 0 -64 -44 -324 -77 -457 -35
-139 -36 -151 -21 -166 21 -21 89 -33 200 -33 81 -1 89 1 103 23 9 13 20 62
25 109 6 48 17 115 24 149 8 35 23 138 33 231 15 144 20 167 35 167 9 0 19 -4
22 -9 3 -5 1 -56 -5 -113 -14 -136 -14 -321 0 -433 8 -72 15 -94 32 -108 33
-27 67 -32 88 -13 22 20 56 20 130 2 85 -21 216 -29 228 -14 23 32 58 279 46
328 -12 54 -75 66 -158 30 -45 -19 -65 -19 -65 1 0 5 16 9 35 9 48 0 69 25 84
97 19 87 -2 145 -54 155 -16 3 -19 10 -17 33 2 17 10 37 18 44 12 13 18 12 44
-8 24 -17 42 -22 78 -20 l47 3 6 -137 c8 -159 9 -164 55 -379 24 -112 27 -115
110 -99 75 15 147 42 159 61 4 6 2 55 -4 108 -6 53 -13 128 -15 165 l-4 69 27
-26 c36 -35 111 -34 111 0 0 8 4 14 9 14 9 0 17 -32 40 -160 13 -71 44 -157
64 -177 14 -15 23 -14 99 6 102 28 109 31 128 64 13 23 12 32 -7 94 -12 37
-27 103 -32 147 -6 43 -13 81 -15 85 -5 8 -31 168 -41 254 l-6 57 30 0 c20 0
36 8 51 27 20 26 26 28 85 25 69 -4 119 14 129 46 4 10 18 25 32 33 24 12 28
12 46 -10 12 -15 18 -36 16 -55 -3 -28 -8 -32 -53 -43 -78 -20 -113 -42 -131
-88 -25 -60 -27 -166 -7 -279 19 -103 23 -110 77 -121 l29 -6 -30 -32 c-50
-52 -57 -73 -43 -123 34 -122 217 -141 265 -28 8 20 15 52 15 72 0 43 -36 100
-67 108 -29 8 -29 10 5 39 27 23 27 25 28 150 2 144 10 160 86 186 60 20 115
75 133 136 12 40 13 66 5 127 -10 83 -16 98 -66 167 -54 74 -113 99 -258 111
-111 10 -123 12 -142 36 -19 23 -25 25 -74 19 -29 -4 -61 -2 -71 4 -11 5 -41
7 -70 3 -40 -5 -58 -15 -90 -45 -23 -22 -44 -39 -48 -39 -12 0 -47 43 -66 80
-29 57 -38 54 -57 -18 -13 -50 -15 -75 -8 -96 15 -45 12 -58 -12 -56 -13 1
-34 2 -47 1 -32 -1 -101 -72 -101 -103 0 -31 34 -67 69 -74 l27 -6 -16 -64
c-8 -36 -20 -66 -25 -66 -6 -1 -20 14 -32 33 -12 19 -33 48 -47 65 -22 27 -25
39 -24 105 1 41 -4 91 -11 111 -13 41 -62 88 -90 88 -28 0 -31 10 -15 50 22
55 15 104 -14 108 -34 5 -60 -24 -78 -87 -9 -31 -18 -59 -21 -64 -2 -4 -22 8
-43 25 -28 23 -40 41 -40 60 0 15 -4 37 -9 50 -4 13 -11 40 -15 61 -7 35 -6
37 21 37 15 0 69 9 118 20 50 11 131 29 180 39 101 22 146 37 156 53 4 6 19
12 34 14 15 1 34 9 42 17 13 12 12 19 -1 52 -18 41 -21 130 -6 140 5 3 15 -3
22 -15 8 -13 23 -20 43 -20 44 0 76 54 82 139 3 36 12 77 21 91 9 14 25 43 37
65 l20 40 125 0 c117 0 130 2 195 30 39 17 75 34 82 38 13 8 36 81 54 175 13
69 20 69 42 3 13 -41 13 -51 -4 -110 -24 -85 -24 -84 12 -126 33 -37 52 -42
93 -24 39 18 51 59 36 128 -10 50 -10 62 4 89 25 48 20 94 -14 137 -41 52 -40
75 5 75 43 0 75 29 75 68 0 37 -33 88 -69 107 -39 20 -110 19 -140 -2 -19 -13
-28 -14 -43 -4 -11 7 -33 9 -53 5 -20 -3 -35 -2 -35 3 0 13 -45 33 -75 33 -46
0 -74 -38 -95 -128 -11 -46 -20 -91 -20 -100 0 -31 -43 -71 -79 -74 l-35 -3
-21 75 c-12 42 -31 96 -43 120 -11 25 -25 56 -30 70 -14 38 -94 131 -146 169
-41 31 -46 39 -46 75 l0 40 33 -32 c37 -36 53 -39 85 -16 40 27 54 70 54 160
0 67 -4 90 -21 117 -12 19 -21 37 -21 41 0 4 56 6 125 5 69 0 125 -4 125 -8 0
-4 16 -15 35 -24 47 -22 55 -48 61 -192 3 -66 7 -130 10 -142 5 -27 35 -31 54
-8 7 9 21 13 30 10 12 -4 28 6 49 30 23 27 33 32 37 21 11 -28 35 -26 68 7
l33 32 -8 180 c-9 202 -19 241 -71 273 -83 51 -162 86 -165 75 -3 -9 -12 -9
-36 -1 -41 14 -44 17 -29 27 21 13 -181 34 -256 26 l-69 -7 -11 31 c-6 17 -15
31 -20 31 -4 0 -29 -13 -55 -30 -56 -36 -72 -38 -57 -10 6 11 8 24 5 29 -3 5
13 24 35 41 44 35 70 76 70 112 0 24 -98 123 -137 139 -27 10 -32 56 -8 65 8
4 15 19 15 35 0 70 -51 111 -111 90 -18 -6 -41 -11 -52 -11 -12 0 -31 -10 -45
-22 l-24 -23 -30 34 c-30 34 -31 39 -7 98 18 43 5 55 -66 61 -65 5 -115 -12
-115 -39 0 -11 -4 -19 -10 -19 -5 0 -10 -7 -10 -15 0 -12 9 -11 47 10 45 23
102 33 116 19 9 -9 -13 -54 -55 -111 -40 -55 -38 -54 -150 -68 -56 -7 -62 6
-26 56 34 45 31 130 -6 186 -55 83 -140 95 -257 36z m196 -33 c22 -27 41 -57
51 -78 4 -7 1 -25 -6 -40 l-13 -27 -11 40 c-29 103 -209 101 -245 -3 -29 -81
23 -121 88 -66 l31 26 30 -22 c19 -14 37 -19 50 -15 19 6 19 4 8 -19 -10 -24
-13 -25 -28 -11 -9 8 -31 18 -48 21 -61 12 -98 -56 -50 -90 27 -19 69 -21 86
-4 9 9 12 9 12 -2 1 -8 7 -51 15 -94 l14 -79 -30 -44 c-17 -23 -34 -43 -40
-43 -5 0 -22 20 -37 45 -31 50 -45 59 -72 45 -33 -17 -51 -11 -65 23 -8 19
-21 40 -30 47 -17 14 -16 11 20 -74 16 -38 17 -38 61 -32 47 6 46 6 96 -79 4
-6 -7 -31 -24 -55 -27 -41 -30 -50 -25 -106 6 -59 5 -62 -28 -94 -43 -42 -38
-51 8 -16 l34 26 7 -41 c5 -29 2 -47 -7 -58 -21 -25 -58 -93 -53 -98 2 -2 12
7 23 22 10 14 28 39 40 55 22 26 23 34 17 147 l-7 119 176 162 175 162 49 0
c54 0 89 19 103 56 11 29 35 31 49 5 12 -21 -7 -44 -46 -55 -16 -5 -24 -18
-29 -43 -10 -52 18 -73 96 -73 38 0 62 -5 70 -15 16 -19 17 -154 2 -182 -18
-33 -32 -28 -32 12 0 67 -33 105 -80 90 -26 -8 -26 -21 0 -28 21 -5 33 -29 46
-92 8 -36 12 -40 42 -43 31 -3 33 -5 26 -30 -4 -15 -12 -49 -19 -77 -22 -94
-33 -110 -94 -146 -44 -25 -62 -43 -71 -68 -7 -19 -30 -53 -51 -76 -31 -34
-50 -72 -91 -186 -28 -79 -52 -153 -53 -164 -4 -46 -45 -114 -92 -151 -26 -21
-69 -59 -95 -82 -25 -24 -48 -44 -50 -45 -3 -1 -33 15 -67 35 l-63 37 -29 -19
c-16 -11 -42 -29 -58 -39 -17 -12 -37 -17 -50 -14 -18 5 -21 13 -21 58 0 29
-3 67 -6 85 -11 54 -24 11 -17 -57 5 -53 3 -63 -10 -63 -9 0 -18 4 -22 9 -3 5
-18 12 -34 16 -21 4 -33 15 -40 36 -5 16 -14 29 -20 29 -5 0 -13 21 -17 48 -9
67 -18 78 -69 91 l-45 11 -1 48 c-2 73 -11 97 -39 97 -17 0 -29 -9 -40 -30 -8
-16 -16 -32 -17 -34 -7 -12 -33 25 -28 38 4 9 11 60 16 115 9 111 7 118 -52
183 -43 47 -47 63 -23 87 26 26 61 20 79 -14 30 -58 95 -26 95 46 0 18 -14 58
-30 90 -30 56 -31 60 -24 153 6 82 11 101 35 133 16 23 25 46 22 57 -3 11 6
36 21 57 31 46 33 73 6 116 -24 40 -25 57 -3 73 25 18 9 45 -27 45 -23 0 -35
7 -50 33 l-20 32 28 25 c25 22 29 31 27 73 -3 53 1 55 62 28 30 -14 51 -35 77
-75 47 -73 73 -76 107 -10 13 26 28 47 33 48 5 0 16 -18 23 -40 25 -75 79 -65
124 21 49 97 213 149 264 85z m-713 -32 c-7 -7 -12 -23 -12 -37 0 -33 -55 -70
-64 -44 -12 30 -5 52 22 72 30 23 75 30 54 9z m668 -51 c31 -15 40 -57 13 -57
-10 1 -29 7 -43 15 -35 20 -64 18 -85 -5 -10 -11 -22 -20 -27 -20 -17 0 -7 32
17 55 27 28 83 33 125 12z m-750 -89 c0 -22 67 -98 86 -98 8 0 14 -6 14 -12 0
-7 11 -35 25 -62 l25 -49 -25 -46 c-13 -25 -27 -57 -30 -71 -3 -14 -14 -36
-24 -50 -15 -19 -22 -22 -34 -12 -8 7 -40 21 -73 32 -65 23 -74 31 -74 77 0
17 -4 43 -10 58 -9 23 -6 29 25 56 37 33 36 30 60 143 12 54 20 75 26 65 5 -8
9 -22 9 -31z m1147 -67 c10 -6 13 -11 6 -11 -7 0 -18 -12 -25 -27 -12 -25 -19
-28 -72 -31 -32 -2 -69 -10 -83 -19 -24 -16 -26 -16 -39 2 -21 29 -17 44 14
51 15 3 41 9 57 13 18 4 42 23 60 47 l30 40 17 -27 c9 -15 25 -32 35 -38z
m209 25 c3 -8 -3 -33 -14 -56 -26 -57 -18 -85 37 -125 88 -65 101 -77 101 -93
0 -17 -85 -112 -100 -112 -4 0 -11 33 -15 74 -9 97 -23 111 -113 111 -39 0
-67 4 -69 11 -2 7 17 24 42 38 55 33 60 63 15 108 -17 17 -28 33 -26 36 7 7
73 19 109 21 15 0 30 -5 33 -13z m-656 -40 c-13 -13 -35 7 -25 24 5 8 11 8 21
-1 10 -8 12 -15 4 -23z m130 -46 c0 -5 -2 -10 -4 -10 -3 0 -8 5 -11 10 -3 6
-1 10 4 10 6 0 11 -4 11 -10z m90 -30 c25 -48 18 -53 -10 -7 -11 17 -20 25
-20 17 0 -13 -2 -13 -9 0 -6 8 -7 18 -5 22 11 17 24 7 44 -32z m-56 14 c5 -14
4 -15 -9 -4 -17 14 -19 20 -6 20 5 0 12 -7 15 -16z m20 -70 c3 -8 2 -12 -4 -9
-6 3 -10 10 -10 16 0 14 7 11 14 -7z m-1057 -28 c6 -6 15 -38 20 -70 8 -57 15
-67 55 -80 17 -5 17 -8 -1 -53 -10 -26 -21 -65 -25 -86 -6 -33 -4 -40 25 -66
31 -29 32 -30 20 -73 -7 -24 -17 -61 -22 -83 -5 -22 -16 -57 -24 -78 -25 -64
-20 -97 30 -165 42 -58 45 -66 45 -126 0 -55 -4 -69 -26 -95 -49 -58 -143 -29
-164 51 -15 55 -5 216 21 324 10 45 19 93 19 106 0 32 -32 61 -62 56 -18 -2
-24 -11 -28 -38 -5 -32 -10 -36 -40 -31 -20 2 -10 81 17 136 20 41 34 57 53
61 45 10 48 12 55 43 10 45 -13 84 -54 92 -38 8 -70 42 -71 75 0 12 21 45 49
74 41 43 53 51 72 45 13 -4 29 -12 36 -19z m189 -197 c20 -16 18 -69 -2 -69
-12 0 -15 8 -12 33 2 22 -1 32 -11 32 -20 0 -53 -48 -46 -67 8 -20 52 -41 60
-28 16 25 25 4 25 -55 0 -51 6 -77 25 -113 23 -43 32 -82 20 -82 -3 0 -19 10
-35 21 -22 17 -38 21 -73 17 l-45 -5 19 53 c27 75 25 96 -11 116 -36 21 -38
45 -10 122 20 53 21 54 51 46 17 -5 37 -14 45 -21z m1515 -165 c6 -27 7 -87 3
-134 -5 -68 -3 -96 11 -135 31 -88 19 -236 -19 -235 -39 1 -76 147 -76 301 0
89 -2 100 -22 119 -12 11 -28 18 -36 15 -7 -3 -18 -5 -23 -5 -23 0 -42 -77
-45 -180 -2 -58 -3 -111 -3 -117 -2 -27 -21 -11 -31 25 -5 20 -14 44 -20 52
-11 17 -83 18 -104 1 -11 -9 -12 -6 -9 14 3 15 22 35 52 54 65 42 83 64 124
151 34 71 43 81 103 106 6 3 17 -9 24 -25 7 -17 16 -31 20 -31 14 0 20 29 11
53 -4 12 -6 28 -3 35 8 25 34 -12 43 -64z m159 33 c14 -13 39 -39 55 -58 17
-19 40 -41 50 -49 11 -8 -9 18 -44 58 -60 68 -62 73 -35 66 16 -3 45 -21 64
-38 l35 -31 -29 33 -30 32 36 0 c31 0 39 -5 52 -32 16 -31 10 -47 -16 -48 -14
0 -9 -33 8 -51 14 -15 13 -19 -14 -38 l-29 -20 -57 61 c-31 34 -56 67 -56 75
0 7 -5 13 -11 13 -12 0 -38 29 -39 43 0 16 36 6 60 -16z m-61 -11 c22 -24 22
-46 -1 -46 -16 0 -58 41 -58 57 0 21 35 15 59 -11z m346 -34 c41 -11 143 -83
149 -105 11 -37 27 -320 20 -351 l-6 -29 -24 29 c-13 16 -23 37 -24 47 0 30
-20 18 -20 -13 0 -16 -8 -43 -18 -60 l-19 -30 -12 27 -13 28 -13 -31 c-28 -66
-35 -50 -34 75 1 113 0 123 -25 165 -14 25 -35 48 -46 51 -32 10 -26 50 10 65
34 14 37 22 15 40 -22 18 -19 29 11 40 24 9 24 11 10 32 -21 29 -20 42 2 33 9
-4 26 -10 37 -13z m-365 -17 c9 -11 10 -19 2 -27 -14 -14 -32 -1 -32 23 0 23
13 25 30 4z m74 -14 c9 -15 -23 -36 -36 -23 -5 5 -7 15 -4 21 9 13 33 14 40 2z
m-39 -42 c0 -7 -8 -15 -17 -17 -18 -3 -25 18 -11 32 10 10 28 1 28 -15z m74 8
c12 -16 5 -27 -17 -27 -8 0 -20 -7 -26 -16 -7 -9 -18 -12 -29 -8 -13 5 -15 10
-7 20 7 7 17 11 24 8 8 -3 16 4 19 15 6 24 20 27 36 8z m38 -46 c3 -11 11 -22
19 -25 16 -6 19 -26 5 -26 -5 0 -16 7 -25 15 -8 8 -19 15 -25 15 -14 0 -23 18
-16 30 10 17 37 11 42 -9z m-147 0 c0 -5 -7 -11 -15 -15 -9 -3 -15 0 -15 9 0
8 7 15 15 15 8 0 15 -4 15 -9z m-207 -72 c-2 -30 2 -89 8 -131 18 -121 -3
-151 -129 -193 -59 -19 -67 -30 -100 -141 -25 -81 -74 -161 -113 -183 -22 -12
-34 -13 -66 -3 -21 6 -47 17 -56 25 -18 12 -18 15 -1 55 13 33 21 42 33 36 39
-16 52 -15 86 6 19 12 47 42 62 67 24 41 26 55 27 161 2 122 10 153 46 172 28
15 38 6 46 -38 9 -51 20 -62 65 -62 36 0 39 2 48 38 5 20 9 75 9 122 -2 92 7
133 25 127 8 -3 11 -24 10 -58z m305 50 c-2 -6 -8 -10 -13 -10 -5 0 -11 4 -13
10 -2 6 4 11 13 11 9 0 15 -5 13 -11z m122 -10 c0 -5 -7 -9 -15 -9 -15 0 -20
12 -9 23 8 8 24 -1 24 -14z m-1872 -165 c34 -42 43 -61 40 -86 -3 -30 -4 -30
-50 38 -44 63 -60 105 -40 103 4 0 26 -25 50 -55z m1152 -69 c-7 -17 -8 -55
-4 -97 13 -133 -49 -241 -114 -199 -9 6 -11 19 -7 44 7 34 9 36 38 30 22 -5
33 -2 44 12 19 27 16 62 -6 77 -17 12 -17 18 -7 68 7 37 19 62 36 77 30 26 34
24 20 -12z m-2016 -98 c-3 -7 -23 -23 -45 -37 -22 -14 -61 -45 -86 -68 -29
-28 -49 -40 -55 -34 -16 16 9 44 94 104 75 54 104 64 92 35z m334 4 c61 -32
119 -75 142 -103 l20 -27 -30 9 c-16 5 -49 24 -72 42 -24 19 -62 46 -85 61
-24 15 -43 29 -43 32 0 11 33 4 68 -14z m1972 -53 c0 -12 -20 -45 -44 -75 -75
-90 -75 -175 -2 -259 l45 -51 -2 -96 -1 -96 -31 6 c-70 14 -70 14 -74 99 -3
83 -7 98 -22 89 -5 -4 -9 -41 -9 -83 -1 -86 -13 -81 -25 8 -11 96 -20 99 -25
10 l-5 -85 -32 33 c-17 18 -41 52 -53 76 -11 24 -27 47 -35 50 -24 9 -17 30
21 67 20 18 47 55 60 81 22 44 69 88 94 88 6 0 8 5 5 10 -3 6 -15 10 -26 10
-22 0 -25 21 -8 69 6 17 18 31 27 31 10 1 42 11 72 24 61 25 70 25 70 -6z
m-2016 16 c8 -3 12 -13 9 -22 -4 -13 -3 -14 5 -4 12 18 54 -3 94 -45 23 -23
29 -41 33 -98 l7 -70 -65 -28 c-74 -33 -73 -33 -164 38 l-52 40 0 70 -1 70 58
27 c31 14 58 26 59 27 1 1 8 -2 17 -5z m-201 -34 l47 -21 0 -69 0 -70 -62 -46
c-35 -25 -66 -51 -69 -56 -7 -11 -134 26 -144 42 -3 5 -8 38 -12 72 -5 62 -5
64 28 96 25 25 35 29 37 18 2 -9 9 -13 18 -9 13 5 13 7 2 15 -10 6 -6 14 16
34 34 30 62 29 139 -6z m1861 -15 c-4 -8 -8 -15 -10 -15 -2 0 -4 7 -4 15 0 8
4 15 10 15 5 0 7 -7 4 -15z m-952 -65 c0 -11 1 -25 2 -32 1 -6 -5 -13 -11 -15
-9 -3 -13 7 -13 31 0 37 19 51 22 16z m-34 -104 c15 -7 50 -19 78 -25 61 -15
64 -22 64 -161 0 -85 -1 -89 -39 -147 -56 -83 -70 -94 -114 -86 -41 6 -41 6
-53 147 -9 113 -27 83 -22 -38 1 -53 1 -96 -2 -96 -3 0 -23 20 -43 45 l-38 45
-1 127 c0 71 -3 146 -6 168 -10 74 -21 7 -21 -139 -1 -117 -3 -137 -15 -127
-26 22 -36 67 -44 203 l-7 137 40 -5 c22 -3 65 1 95 9 l55 15 23 -29 c13 -16
36 -35 50 -43z m1430 62 c-6 -18 -28 -21 -28 -4 0 9 7 16 16 16 9 0 14 -5 12
-12z m-13 -37 c6 -10 -32 -51 -47 -51 -17 0 -7 29 14 44 26 19 25 19 33 7z
m534 -87 c23 -19 36 -24 53 -18 13 5 44 7 71 5 27 -2 47 1 47 7 0 19 67 34 92
21 43 -22 58 -42 58 -75 0 -37 -10 -47 -54 -48 -62 -2 -72 -73 -20 -136 23
-27 26 -36 19 -73 -5 -23 -9 -78 -9 -122 -1 -90 -7 -105 -41 -105 -30 0 -40
31 -31 88 18 99 17 115 0 177 -13 46 -23 64 -34 62 -12 -2 -15 10 -15 56 0 77
-24 94 -86 61 -34 -17 -64 -12 -55 11 3 8 -10 35 -29 60 -19 25 -35 47 -35 50
0 14 42 2 69 -21z m-2426 -43 l47 -59 -15 -56 c-29 -112 -49 -134 -132 -146
-46 -6 -60 -5 -66 7 -5 8 -22 30 -39 49 l-31 35 17 57 c9 31 20 70 24 86 6 22
20 34 67 56 33 16 65 29 71 29 6 1 32 -25 57 -58z m2017 40 c0 -5 -11 -11 -25
-13 -28 -6 -35 8 -7 15 28 8 32 7 32 -2z m-2605 -16 c22 -8 50 -15 62 -15 28
0 29 -2 51 -97 l19 -81 -31 -51 c-29 -48 -32 -50 -66 -45 -53 8 -75 12 -75 14
0 1 -8 3 -18 5 -10 2 -25 12 -32 22 -13 16 -12 27 3 73 3 9 -2 7 -12 -5 -17
-20 -17 -20 -10 5 4 14 9 31 12 39 3 9 1 12 -6 7 -7 -4 -12 -14 -12 -22 0 -8
-5 -12 -10 -9 -7 4 -6 13 1 26 5 11 8 25 5 32 -2 7 -5 4 -5 -5 -1 -20 -21 -25
-21 -5 0 17 82 127 95 127 5 -1 28 -7 50 -15z m2535 9 c0 -8 -32 -33 -42 -34
-5 0 -8 9 -8 20 0 15 7 20 25 20 14 0 25 -3 25 -6z m430 -89 c0 -25 49 -94 68
-95 6 0 12 6 12 14 0 17 56 60 63 49 4 -8 -36 -221 -47 -250 -9 -21 -25 -15
-32 13 -6 25 -9 26 -61 22 l-55 -5 5 33 c5 28 2 34 -24 44 -39 17 -41 22 -23
58 8 17 22 69 31 116 l17 85 23 -32 c13 -17 23 -41 23 -52z m-970 11 c73 -33
91 -50 129 -118 18 -32 46 -65 63 -75 l30 -18 -5 -105 c-6 -128 -18 -163 -63
-191 -41 -25 -85 -20 -121 13 -31 29 -67 148 -83 271 -14 108 -30 114 -30 12
0 -71 31 -229 54 -273 34 -67 116 -96 193 -69 41 14 42 14 48 -10 8 -34 51
-29 47 5 -1 13 5 33 13 45 14 21 110 57 152 57 12 0 25 5 28 10 3 6 20 10 37
10 l30 0 -8 -52 c-11 -77 -8 -88 25 -117 30 -26 30 -26 18 -77 -18 -77 -57
-114 -57 -55 0 38 -26 67 -46 50 -8 -6 -14 -18 -14 -27 0 -19 -39 -62 -56 -62
-6 0 -17 7 -24 15 -17 20 10 82 57 130 34 35 34 35 9 35 -17 0 -34 -13 -56
-41 -35 -43 -72 -50 -78 -15 -5 22 54 86 79 86 19 0 42 24 32 33 -25 25 -107
-14 -137 -64 -19 -32 -21 -90 -5 -106 30 -30 -50 -83 -123 -83 -36 0 -65 37
-71 93 -6 61 -44 115 -194 277 l-53 57 0 100 c0 55 -5 125 -10 154 l-11 54 52
47 c58 51 49 50 149 4z m-1312 -11 c-2 -25 -7 -45 -11 -45 -5 0 -5 -9 -2 -20
10 -31 -4 -82 -21 -76 -17 7 -19 -20 -1 -27 9 -4 9 -8 1 -14 -6 -4 -14 -18
-18 -30 -9 -30 -24 -29 -32 1 -3 14 7 63 26 121 45 143 63 171 58 90z m1827
15 c-3 -5 1 -26 10 -46 17 -41 19 -64 6 -64 -8 0 -15 23 -28 99 -4 24 -2 32 6
27 6 -4 9 -11 6 -16z m-2669 -57 c19 -44 23 -62 15 -75 -8 -13 -8 -16 3 -12
15 6 51 -79 40 -97 -10 -17 -25 12 -17 36 5 17 4 18 -11 6 -19 -16 -21 -8 -4
22 10 19 9 20 -4 9 -13 -11 -17 -9 -22 12 -3 13 -3 32 1 42 5 13 3 15 -7 9
-10 -6 -12 -3 -7 14 4 16 2 20 -6 12 -9 -7 -12 2 -13 35 0 24 1 44 3 44 2 0
15 -26 29 -57z m1749 -13 c4 -6 8 -51 9 -100 2 -77 0 -92 -16 -107 -10 -9 -28
-31 -39 -49 l-20 -33 20 -58 20 -58 -32 -27 c-18 -15 -37 -28 -43 -28 -20 0
-54 161 -68 320 -6 64 -6 66 21 78 16 6 46 25 68 42 42 31 69 37 80 20z m190
-27 c-4 -10 -10 -66 -13 -125 -2 -60 -7 -108 -9 -108 -3 0 -27 12 -54 28 l-50
27 6 50 c5 44 12 56 57 98 54 49 75 59 63 30z m695 -30 c0 -14 -26 -18 -34 -5
-3 5 -2 19 1 32 6 22 7 22 20 5 7 -11 13 -25 13 -32z m-2105 -56 c25 -29 45
-55 45 -58 0 -4 -14 -37 -31 -73 l-31 -66 -89 0 c-97 0 -92 -3 -144 78 -38 59
-38 57 13 135 l25 37 84 -1 83 -1 45 -51z m1015 41 c1 -2 3 -43 6 -93 6 -119
21 -219 40 -279 10 -28 13 -51 7 -55 -5 -3 -30 -21 -55 -38 -26 -18 -51 -33
-57 -33 -5 0 -12 14 -16 30 -4 17 -11 30 -17 30 -14 0 -6 -41 23 -116 20 -54
21 -64 9 -93 -12 -31 -16 -33 -49 -27 -20 4 -65 12 -101 17 -36 6 -92 24 -126
40 -88 43 -104 76 -115 238 -4 69 -11 136 -14 148 -6 19 -2 25 21 33 41 16 51
7 56 -48 7 -71 40 -119 102 -148 62 -29 101 -30 142 -5 70 42 88 124 70 303
l-8 77 33 10 c37 10 49 12 49 9z m-513 -124 c4 -35 1 -44 -35 -84 -22 -25 -42
-43 -44 -40 -2 3 -2 56 0 119 l4 114 35 -35 c24 -24 36 -47 40 -74z m397 49
c3 -21 6 -82 6 -135 0 -86 -2 -100 -22 -123 -51 -58 -161 -37 -199 37 -11 21
-21 55 -22 76 -2 37 -2 37 34 34 32 -3 41 2 78 44 22 26 41 51 41 56 0 8 59
48 71 48 4 0 9 -17 13 -37z m1225 21 c1 -1 0 -7 -3 -13 -8 -12 -46 7 -46 22 0
7 38 0 49 -9z m31 -9 c-7 -9 -15 -13 -17 -11 -7 7 7 26 19 26 6 0 6 -6 -2 -15z
m340 -7 c22 -16 30 -30 30 -51 l0 -30 53 7 c50 5 55 4 65 -19 6 -14 19 -25 27
-25 14 0 14 -3 2 -26 -26 -50 -230 -97 -265 -62 -7 7 -12 23 -12 36 0 15 -7
26 -19 29 -16 4 -20 13 -18 44 1 41 15 50 41 24 18 -18 26 -19 26 -2 0 6 -14
20 -30 29 -44 25 -40 56 8 61 20 2 43 4 50 5 7 1 26 -8 42 -20z m-550 -42 c26
-10 38 -27 62 -81 16 -37 26 -71 21 -75 -4 -4 -26 -13 -48 -20 -22 -7 -59 -22
-82 -35 l-41 -23 13 38 c7 20 16 76 20 123 4 48 11 87 15 87 4 0 22 -6 40 -14z
m185 4 c-3 -5 -11 -10 -16 -10 -6 0 -7 5 -4 10 3 6 11 10 16 10 6 0 7 -4 4
-10z m-35 -21 c0 -5 -4 -9 -10 -9 -5 0 -10 7 -10 16 0 8 5 12 10 9 6 -3 10
-10 10 -16z m60 1 c0 -5 -2 -10 -4 -10 -3 0 -8 5 -11 10 -3 6 -1 10 4 10 6 0
11 -4 11 -10z m-873 -54 c27 -18 60 -36 74 -40 37 -8 53 -52 45 -124 -4 -31
-13 -67 -21 -79 -26 -39 -157 -43 -214 -6 l-25 16 43 36 42 36 -20 58 c-21 59
-21 59 -1 98 11 21 23 39 25 39 3 0 26 -15 52 -34z m813 18 c0 -8 -4 -12 -10
-9 -5 3 -10 10 -10 16 0 5 5 9 10 9 6 0 10 -7 10 -16z m40 -4 c0 -5 -4 -10
-10 -10 -5 0 -10 5 -10 10 0 6 5 10 10 10 6 0 10 -4 10 -10z m30 -50 c0 -5 -4
-10 -10 -10 -5 0 -10 5 -10 10 0 6 5 10 10 10 6 0 10 -4 10 -10z m-30 -31 c0
-5 -4 -9 -10 -9 -5 0 -10 7 -10 16 0 8 5 12 10 9 6 -3 10 -10 10 -16z m228 -1
c16 -16 15 -38 0 -38 -23 0 -39 16 -32 33 7 20 16 21 32 5z m-2558 -41 c0 -6
-9 -2 -20 8 -11 10 -20 23 -20 28 0 6 9 2 20 -8 11 -10 20 -23 20 -28z m23 26
c11 -10 17 -12 13 -5 -10 17 4 15 28 -5 12 -10 15 -11 9 -3 -21 23 -16 25 50
27 103 4 142 -15 75 -35 -45 -14 -70 -12 -93 7 -18 15 -19 15 -7 0 11 -14 7
-16 -31 -16 -33 0 -46 5 -60 23 -21 28 -12 31 16 7z m696 -101 c4 -213 63
-289 251 -327 46 -10 93 -20 104 -24 18 -7 18 -8 -5 -25 -121 -88 -183 -126
-202 -126 -12 0 -40 11 -62 23 l-40 23 -6 84 c-7 100 -17 140 -30 119 -5 -8
-9 -27 -10 -44 -1 -32 -3 -28 -14 19 -11 51 -24 14 -18 -51 5 -53 9 -63 24
-63 14 0 19 -7 19 -26 0 -40 -19 -25 -61 50 l-39 67 -6 163 c-7 158 -6 164 13
175 12 6 31 27 43 48 29 50 36 34 39 -85z m1576 108 c3 -5 2 -10 -4 -10 -5 0
-13 5 -16 10 -3 6 -2 10 4 10 5 0 13 -4 16 -10z m-2341 -16 c5 -14 4 -15 -9
-4 -17 14 -19 20 -6 20 5 0 12 -7 15 -16z m1776 -163 c0 -55 7 -81 22 -81 6 0
8 21 6 50 -1 28 -1 50 2 50 3 0 22 -22 43 -50 36 -48 37 -52 37 -133 l0 -83
-31 -11 c-38 -15 -34 -37 8 -41 27 -3 33 -11 63 -78 18 -41 31 -76 29 -77 -8
-6 -217 -38 -309 -47 -153 -16 -420 -12 -529 7 -101 17 -126 27 -93 37 11 4
22 15 25 25 2 10 36 44 76 75 l71 57 62 -3 c57 -3 63 -1 63 17 0 15 -8 21 -35
25 -32 5 -35 8 -38 40 -2 19 -10 57 -19 85 -15 46 -15 50 2 60 10 5 40 25 67
43 l50 34 22 -21 c30 -28 77 -41 149 -41 112 0 167 49 167 150 l0 55 45 -47
c41 -43 45 -51 45 -97z m313 64 c-3 -9 -8 -14 -10 -11 -3 3 -2 9 2 15 9 16 15
13 8 -4z m-1463 -83 c0 -16 3 -63 6 -105 7 -79 3 -88 -29 -64 -15 11 -16 21
-5 105 6 50 15 92 20 92 4 0 8 -13 8 -28z m1565 -151 c-4 -14 6 -28 36 -55 50
-43 48 -53 -6 -26 -22 11 -47 20 -57 20 -23 0 -23 -29 0 -37 9 -3 29 -19 44
-35 16 -16 32 -26 38 -23 5 3 10 -1 10 -9 0 -12 -10 -16 -36 -16 -27 0 -43 7
-64 30 -33 36 -44 38 -34 8 6 -19 1 -18 -41 13 -58 41 -67 59 -30 59 40 0 81
26 95 60 14 34 56 45 45 11z m-1735 -40 c0 -20 53 -71 73 -71 24 0 57 27 57
47 0 18 28 3 67 -36 31 -31 87 -167 81 -197 -6 -32 -28 -26 -43 10 -15 35 -34
48 -36 24 0 -7 0 -32 1 -55 1 -43 -16 -83 -37 -83 -18 0 -43 53 -43 92 0 18
-7 41 -14 51 -12 16 -14 16 -20 1 -3 -8 -6 -42 -6 -74 0 -49 -3 -61 -20 -70
-25 -13 -36 -7 -56 32 -14 26 -14 40 -4 90 19 97 -1 93 -40 -7 -13 -33 -26
-64 -30 -68 -4 -4 -19 2 -33 13 -33 26 -36 76 -9 148 32 83 112 192 112 153z
m1550 -121 c0 -5 -2 -10 -4 -10 -3 0 -8 5 -11 10 -3 6 -1 10 4 10 6 0 11 -4
11 -10z m120 -80 c0 -14 -43 -5 -48 10 -5 13 -3 13 14 0 18 -15 18 -14 0 15
l-19 30 27 -24 c14 -14 26 -28 26 -31z m15 20 c10 -11 16 -20 13 -20 -3 0 -13
9 -23 20 -10 11 -16 20 -13 20 3 0 13 -9 23 -20z m-71 -36 c4 -10 1 -14 -6
-12 -15 5 -23 28 -10 28 5 0 13 -7 16 -16z m-872 -146 c-7 -7 -12 -8 -12 -2 0
14 12 26 19 19 2 -3 -1 -11 -7 -17z m468 13 c0 -6 -4 -13 -10 -16 -5 -3 -10
-11 -10 -16 0 -6 11 3 25 18 l25 28 -17 -32 c-20 -36 -21 -37 -42 -24 -10 7
-11 13 -2 30 12 21 31 29 31 12z m66 -6 c-21 -52 -21 -51 -3 -36 15 12 17 12
11 -2 -8 -22 -34 -29 -41 -11 -7 19 12 64 28 64 6 0 8 -7 5 -15z m-496 -2 c0
-14 -19 -38 -25 -32 -8 8 5 39 16 39 5 0 9 -3 9 -7z m44 -2 c3 -4 -3 -16 -14
-26 -19 -18 -20 -17 -20 8 0 26 22 38 34 18z m61 -3 c-11 -6 -28 -20 -37 -32
-12 -14 -18 -16 -18 -7 0 22 31 51 54 51 21 -1 21 -1 1 -12z m245 -15 c0 -16
9 -89 20 -163 10 -74 18 -135 17 -135 -1 -1 -15 -9 -30 -19 -29 -18 -32 -38
-16 -96 3 -12 -10 -16 -66 -21 -91 -7 -109 2 -102 48 4 22 1 46 -8 64 -16 31
-19 99 -8 252 l6 97 94 0 93 0 0 -27z m-230 -18 c0 -8 -4 -15 -10 -15 -5 0
-10 7 -10 15 0 8 5 15 10 15 6 0 10 -7 10 -15z m-56 -39 c46 -5 57 -30 46
-106 -15 -103 -12 -144 11 -174 12 -15 19 -37 17 -53 l-3 -28 -155 -3 c-147
-3 -272 9 -312 29 -52 27 -11 127 69 168 17 9 29 8 57 -6 20 -9 36 -20 36 -25
0 -4 11 -15 25 -24 35 -23 82 -4 135 53 50 56 61 80 53 127 -6 38 -25 51 -53
36 -25 -14 -30 -13 -30 6 0 13 7 15 38 10 20 -4 50 -8 66 -10z m441 -53 c-6
-44 -3 -54 27 -98 23 -34 40 -50 55 -50 12 0 25 -4 29 -8 4 -4 22 -7 41 -7 29
0 33 3 33 26 0 25 2 25 43 19 58 -9 88 -41 98 -106 13 -83 6 -95 -54 -103 -73
-10 -85 -10 -152 3 -36 7 -95 9 -145 5 -69 -5 -88 -3 -98 8 -17 21 3 78 28 78
11 0 21 4 25 9 3 5 -4 64 -15 132 -11 67 -18 124 -16 128 2 3 27 7 56 9 l52 3
-7 -48z m220 19 c-12 -60 -16 -72 -26 -72 -10 0 -7 31 7 83 7 22 23 13 19 -11z
m-884 -61 c16 -27 17 -31 3 -31 -28 0 -52 19 -62 49 -6 16 -8 32 -5 35 9 9 44
-20 64 -53z m169 28 c0 -18 -41 -70 -51 -64 -14 9 -11 42 7 59 18 18 44 21 44
5z m1169 -78 c33 -18 59 -12 98 23 47 41 104 53 144 29 24 -14 32 -15 52 -4
24 13 67 7 67 -9 0 -4 -10 -10 -23 -14 -37 -9 -85 -64 -123 -142 -39 -80 -41
-121 -8 -172 18 -28 10 -58 -17 -65 -37 -10 -48 3 -54 61 -10 83 -13 90 -50
108 -47 22 -180 11 -211 -18 -25 -22 -63 -17 -90 13 -16 18 -16 20 18 50 24
22 47 32 73 34 43 2 81 37 69 64 -11 26 -17 80 -10 98 6 14 10 12 26 -14 10
-18 28 -37 39 -42z m546 -32 c17 -4 39 -7 50 -5 30 5 106 -38 137 -77 33 -42
48 -95 48 -170 0 -91 -25 -123 -140 -178 -72 -34 -84 -65 -85 -214 l0 -110
-54 -7 c-34 -5 -58 -4 -66 2 -18 15 -29 84 -29 189 l0 93 37 34 c28 26 45 34
76 34 24 0 48 8 65 21 23 18 26 27 26 81 0 97 -42 148 -122 148 -22 0 -41 -11
-72 -44 -52 -53 -74 -61 -119 -43 -57 24 -56 94 3 175 61 84 132 105 245 71z
m-492 -261 c3 -29 13 -77 21 -105 8 -29 20 -99 26 -155 16 -140 54 -330 86
-430 6 -20 -31 -42 -87 -53 l-35 -6 -17 53 c-19 62 -67 316 -67 357 0 51 -20
91 -45 91 -35 0 -44 -20 -47 -105 -3 -73 -5 -80 -24 -83 -20 -3 -36 12 -125
121 -4 5 -17 3 -29 -3 -22 -12 -22 -16 -16 -94 18 -207 25 -361 19 -367 -5 -4
-32 -12 -61 -17 -52 -9 -54 -9 -64 17 -5 14 -14 49 -18 76 -5 28 -15 88 -23
135 -17 96 -33 471 -22 519 6 30 8 31 59 31 57 0 77 -14 120 -84 57 -91 70
-107 94 -113 19 -4 30 -1 44 17 10 12 18 31 18 42 0 43 33 159 51 183 18 22
28 25 78 25 l59 0 5 -52z m-1343 14 c80 -5 176 -8 215 -8 67 1 70 0 79 -26 6
-16 6 -52 0 -95 l-9 -68 -66 0 c-72 0 -99 -14 -99 -49 0 -32 -29 -250 -46
-346 -9 -47 -21 -122 -28 -168 -7 -45 -17 -87 -23 -93 -8 -8 -38 -9 -95 -5
l-84 7 14 62 c7 34 24 109 38 167 21 92 54 326 54 387 0 39 -26 53 -99 53 -88
0 -103 15 -109 105 -6 92 -3 97 60 91 29 -3 118 -9 198 -14z m742 -25 c5 -7 6
-21 3 -32 -4 -11 -9 -48 -12 -82 -5 -58 -8 -63 -30 -63 -13 0 -34 7 -46 15
-59 38 -130 10 -148 -59 -6 -22 -15 -57 -21 -76 -5 -20 -8 -49 -6 -65 3 -32
16 -35 66 -20 22 7 23 6 20 -41 l-3 -49 -41 3 c-54 4 -74 -21 -74 -94 0 -66 7
-83 36 -95 18 -6 38 -2 79 16 66 30 110 41 119 27 3 -5 -1 -45 -9 -88 -8 -44
-17 -96 -20 -118 -7 -44 10 -42 -160 -11 -104 19 -136 19 -164 -1 -21 -15 -24
-15 -39 0 -15 15 -17 50 -17 305 0 159 3 287 6 285 4 -2 18 5 31 15 35 28 51
86 47 172 l-4 74 190 -3 c132 -2 192 -7 197 -15z m-1464 -59 c6 -29 14 -65 17
-80 7 -25 4 -28 -33 -38 -22 -5 -71 -14 -109 -19 -124 -16 -141 -33 -109 -104
8 -18 17 -44 20 -59 6 -26 10 -28 54 -28 26 0 53 5 60 12 14 14 34 -33 30 -71
-2 -21 -9 -27 -33 -29 -36 -4 -55 -19 -55 -42 0 -22 46 -168 58 -183 5 -7 15
-30 21 -52 7 -22 17 -50 23 -62 17 -36 4 -50 -54 -58 -29 -4 -73 -13 -97 -21
-24 -8 -47 -11 -52 -7 -4 4 -23 46 -43 93 -31 75 -44 121 -85 305 -5 22 -15
78 -21 125 -6 47 -18 117 -26 157 -23 117 -23 116 49 140 34 12 94 24 132 27
39 3 84 10 100 15 51 17 99 29 121 30 17 1 23 -8 32 -51z m274 31 c47 -12 111
-76 139 -139 11 -25 25 -53 30 -64 6 -10 13 -75 16 -145 6 -148 -3 -192 -67
-301 -53 -90 -86 -112 -160 -108 -73 5 -136 46 -167 108 -59 120 -69 166 -76
375 l-2 60 36 3 c37 3 65 24 70 52 1 8 -1 34 -5 58 -9 48 -2 61 54 98 36 24
53 25 132 3z m-357 -258 c0 -33 -53 -50 -72 -24 -19 25 -16 41 10 46 45 9 62
3 62 -22z m2669 -382 c19 -35 19 -38 3 -63 -20 -30 -53 -34 -97 -11 -69 36
-32 119 50 112 17 -1 31 -13 44 -38z"/>
<path d="M6044 4588 c-12 -19 35 -48 78 -48 47 0 42 16 -8 26 -20 4 -38 13
-41 20 -6 17 -19 18 -29 2z"/>
<path d="M5940 4460 c-14 -26 -5 -40 24 -40 28 0 50 24 42 45 -8 22 -53 19
-66 -5z"/>
<path d="M6135 4398 c-9 -13 -29 -42 -45 -65 -16 -23 -48 -52 -70 -63 -45 -23
-60 -47 -39 -61 50 -32 249 99 249 164 0 13 -5 28 -12 35 -20 20 -65 14 -83
-10z"/>
<path d="M6642 4378 c-7 -7 -12 -25 -12 -41 0 -65 190 -211 227 -175 19 20 8
42 -38 73 -21 15 -57 56 -79 91 -41 66 -70 80 -98 52z"/>
<path d="M6917 4234 c-14 -14 -7 -61 12 -78 41 -37 89 0 69 54 -8 22 -10 23
-19 8 -13 -24 -34 -23 -45 3 -5 11 -13 17 -17 13z"/>
<path d="M6092 4199 c-121 -60 -125 -218 -6 -270 29 -13 56 -18 77 -15 24 4
18 -1 -28 -24 l-60 -29 46 -1 c100 -1 185 99 181 212 -2 66 -25 106 -75 129
-54 24 -82 24 -135 -2z m126 -35 c52 -36 68 -123 31 -163 -34 -36 -79 -51
-125 -41 -97 22 -116 138 -31 198 37 26 93 29 125 6z"/>
<path d="M6062 4088 c-17 -17 -15 -53 3 -68 12 -10 21 -10 40 -2 29 13 36 56
8 45 -13 -5 -15 -2 -11 15 5 16 2 22 -11 22 -9 0 -22 -5 -29 -12z"/>
<path d="M6577 4178 c-117 -68 -96 -276 35 -344 28 -15 98 -19 98 -6 0 4 -23
16 -52 27 -72 28 -70 40 8 40 63 0 67 2 99 37 120 131 -35 334 -188 246z m134
-28 c22 -12 59 -80 59 -110 0 -42 -28 -90 -64 -107 -30 -14 -42 -15 -75 -5
-36 11 -91 61 -91 82 0 4 18 6 40 3 30 -4 41 -2 46 10 8 22 -32 60 -57 52 -39
-13 -18 48 26 73 25 14 90 15 116 2z"/>
<path d="M5937 4063 c-14 -13 -6 -61 12 -84 28 -35 32 -21 12 39 -10 28 -21
49 -24 45z"/>
<path d="M5902 4000 c0 -14 2 -19 5 -12 2 6 2 18 0 25 -3 6 -5 1 -5 -13z"/>
<path d="M6808 3935 c-21 -34 -24 -45 -13 -45 16 0 55 55 55 78 0 23 -15 12
-42 -33z"/>
<path d="M6260 3844 c-64 -13 -146 -52 -184 -89 -127 -123 -47 -274 115 -221
97 32 137 32 223 -3 43 -17 90 -31 105 -31 51 0 101 57 101 116 0 41 -36 108
-79 147 -63 57 -200 96 -281 81z m130 -47 c30 -7 64 -18 75 -24 34 -20 -2 -25
-148 -21 -168 4 -194 17 -85 44 69 16 92 16 158 1z m20 -162 c-19 -23 -7 -27
26 -10 37 19 67 19 104 0 42 -22 39 -52 -5 -71 -32 -13 -39 -13 -83 5 -26 11
-66 25 -89 31 -24 6 -43 14 -43 19 0 10 60 40 84 40 15 1 16 -1 6 -14z"/>
<path d="M5854 3786 c-11 -30 0 -61 25 -64 33 -5 48 13 22 27 -12 7 -21 18
-21 26 0 20 -19 29 -26 11z"/>
<path d="M5950 3671 c-13 -26 -13 -77 1 -104 19 -36 51 -67 71 -67 15 0 12 8
-18 47 -31 41 -35 52 -32 95 3 51 -4 61 -22 29z"/>
<path d="M6660 3612 c0 -31 -26 -80 -63 -119 -27 -29 -29 -33 -11 -33 59 0
117 109 84 160 -8 12 -10 11 -10 -8z"/>
<path d="M6263 3510 c-39 -16 -25 -28 30 -28 29 0 63 -3 75 -6 29 -9 29 8 0
28 -25 18 -70 20 -105 6z"/>
<path d="M5568 3812 c-6 -22 8 -52 23 -52 14 0 7 62 -7 67 -6 2 -14 -5 -16
-15z"/>
<path d="M5573 3692 c-15 -9 -33 -56 -33 -86 0 -27 49 -76 76 -76 22 0 54 29
54 48 0 16 -31 84 -49 105 -15 18 -29 21 -48 9z m41 -67 c20 -30 21 -65 1 -65
-18 0 -35 31 -35 64 0 33 13 33 34 1z"/>
<path d="M7260 3773 c0 -43 11 -73 25 -73 25 0 27 38 4 70 -13 16 -24 30 -26
30 -2 0 -3 -12 -3 -27z"/>
<path d="M7087 3156 c-9 -66 -9 -86 2 -86 14 0 22 71 13 105 -8 29 -9 28 -15
-19z"/>
<path d="M5170 3360 c0 -5 5 -10 11 -10 5 0 7 5 4 10 -3 6 -8 10 -11 10 -2 0
-4 -4 -4 -10z"/>
<path d="M5855 3308 c-9 -24 -1 -103 10 -103 14 0 19 95 6 108 -7 7 -12 5 -16
-5z"/>
<path d="M5909 3303 c-1 -13 -2 -28 -3 -35 -1 -6 5 -13 12 -15 14 -5 16 35 2
57 -8 12 -10 11 -11 -7z"/>
<path d="M5795 3277 c-8 -41 5 -89 24 -95 11 -4 13 8 9 52 -6 71 -24 94 -33
43z"/>
<path d="M5847 3153 c-12 -11 -8 -40 8 -53 13 -10 15 -9 15 11 0 28 -13 52
-23 42z"/>
<path d="M5160 3110 c0 -5 5 -10 10 -10 6 0 10 5 10 10 0 6 -4 10 -10 10 -5 0
-10 -4 -10 -10z"/>
<path d="M4865 3130 c-3 -5 -1 -10 4 -10 6 0 11 5 11 10 0 6 -2 10 -4 10 -3 0
-8 -4 -11 -10z"/>
<path d="M4670 3100 c0 -5 5 -10 10 -10 6 0 10 5 10 10 0 6 -4 10 -10 10 -5 0
-10 -4 -10 -10z"/>
<path d="M4705 3090 c-3 -5 -1 -10 4 -10 6 0 11 5 11 10 0 6 -2 10 -4 10 -3 0
-8 -4 -11 -10z"/>
<path d="M4930 2921 c0 -6 4 -13 10 -16 6 -3 7 1 4 9 -7 18 -14 21 -14 7z"/>
<path d="M4975 2910 c3 -5 8 -10 11 -10 2 0 4 5 4 10 0 6 -5 10 -11 10 -5 0
-7 -4 -4 -10z"/>
<path d="M5010 2910 c0 -5 5 -10 11 -10 5 0 7 5 4 10 -3 6 -8 10 -11 10 -2 0
-4 -4 -4 -10z"/>
<path d="M5050 2910 c0 -5 5 -10 11 -10 5 0 7 5 4 10 -3 6 -8 10 -11 10 -2 0
-4 -4 -4 -10z"/>
<path d="M7626 2951 c-12 -22 -14 -37 -8 -43 13 -13 34 26 30 55 -3 20 -5 19
-22 -12z"/>
<path d="M5097 2849 c7 -7 15 -10 18 -7 3 3 -2 9 -12 12 -14 6 -15 5 -6 -5z"/>
<path d="M5720 2403 c0 -52 12 -83 25 -63 9 15 -3 98 -16 105 -5 4 -9 -14 -9
-42z"/>
<path d="M5770 2410 c0 -14 3 -35 6 -48 5 -18 9 -20 20 -11 19 16 18 33 -6 60
l-19 24 -1 -25z"/>
<path d="M6625 2679 c-10 -29 -10 -82 2 -86 15 -5 29 75 14 90 -7 7 -12 6 -16
-4z"/>
<path d="M6582 2625 c0 -16 2 -22 5 -12 2 9 2 23 0 30 -3 6 -5 -1 -5 -18z"/>
<path d="M5459 1342 c-27 -24 -34 -40 -45 -101 -13 -78 -7 -115 26 -181 26
-51 49 -68 105 -75 59 -8 75 4 100 74 20 59 19 116 -5 194 -35 113 -112 150
-181 89z m88 -54 c30 -33 43 -82 43 -158 0 -48 -4 -71 -15 -80 -50 -41 -112
59 -101 163 10 95 33 119 73 75z"/>
<path d="M4934 4935 c-8 -20 13 -45 38 -45 14 0 18 5 14 16 -3 9 -6 22 -6 30
0 19 -39 18 -46 -1z"/>
<path d="M2352 4918 c-16 -16 -15 -60 1 -82 15 -21 116 -41 131 -26 15 15 -4
78 -31 100 -28 22 -82 27 -101 8z m85 -50 c23 -19 14 -30 -19 -23 -32 7 -48
20 -48 39 0 10 50 -2 67 -16z"/>
<path d="M3167 4916 l-29 -13 56 -29 c129 -67 207 -118 190 -124 -13 -5 -6
-13 30 -34 53 -31 74 -27 34 7 -17 14 -29 36 -33 62 -8 54 -29 78 -99 114 -61
33 -103 37 -149 17z m124 -56 c5 0 9 -4 9 -10 0 -14 -13 -12 -36 6 -17 14 -17
15 -1 10 10 -3 23 -6 28 -6z"/>
<path d="M2907 4888 c-11 -41 -8 -54 7 -32 21 28 29 12 17 -34 -6 -22 -9 -47
-5 -55 3 -10 -2 -20 -15 -27 -21 -11 -28 -35 -13 -44 5 -3 31 6 58 19 27 14
57 25 67 25 44 0 54 16 49 77 -2 32 -9 64 -14 71 -14 17 -38 15 -38 -3 0 -19
-9 -19 -30 0 -9 8 -30 18 -47 21 -26 5 -31 3 -36 -18z m71 -93 c-2 -11 -11
-21 -20 -23 -13 -3 -18 3 -18 21 0 14 3 33 7 43 6 16 7 15 20 -2 8 -10 12 -28
11 -39z m57 5 c3 -5 -3 -10 -14 -10 -12 0 -21 5 -21 10 0 6 6 10 14 10 8 0 18
-4 21 -10z"/>
<path d="M2825 4829 c-52 -79 -60 -102 -70 -202 -7 -68 2 -97 29 -97 6 0 28
33 48 73 28 54 39 88 43 137 5 70 6 153 1 158 -2 1 -25 -29 -51 -69z m38 -61
c-6 -56 -10 -68 -23 -68 -10 0 -5 82 7 103 12 20 21 2 16 -35z m-47 -114 c-4
-14 -11 -22 -16 -19 -5 3 -7 11 -5 18 2 7 7 26 11 42 7 28 8 28 12 6 2 -12 1
-34 -2 -47z"/>
<path d="M3130 4820 c0 -22 -1 -43 -2 -47 -3 -15 34 -14 67 1 18 9 38 16 45
16 6 0 -2 11 -17 24 -17 15 -32 21 -37 15 -15 -14 -23 -11 -29 11 -9 35 -27
22 -27 -20z"/>
<path d="M2252 4777 c-7 -8 -14 -30 -16 -49 -2 -18 -1 -24 1 -13 3 11 12 28
20 37 8 9 13 22 11 29 -3 8 -8 6 -16 -4z"/>
<path d="M2320 4779 c0 -14 101 -105 113 -101 5 1 6 -1 3 -6 -7 -12 108 -124
119 -115 4 5 5 3 2 -3 -8 -14 54 -72 155 -144 53 -37 77 -62 78 -76 0 -11 6
-29 14 -40 14 -18 15 -18 22 10 5 20 3 31 -4 34 -7 2 -12 10 -12 18 0 9 -4 13
-8 10 -5 -3 -26 10 -48 29 -21 19 -35 35 -30 35 5 0 -10 14 -34 31 -23 17
-113 98 -199 180 -86 82 -159 149 -163 149 -5 0 -8 -5 -8 -11z"/>
<path d="M5603 4768 c2 -21 -3 -23 -45 -24 -61 -2 -105 -29 -119 -73 -11 -31
-10 -36 11 -53 16 -13 39 -18 79 -18 47 0 61 4 80 24 25 27 36 80 27 130 -8
40 -37 52 -33 14z m-3 -79 c0 -34 -22 -49 -70 -49 -42 0 -50 3 -50 18 0 10 12
23 28 29 36 14 92 16 92 2z"/>
<path d="M2269 4727 c-8 -17 -31 -40 -50 -49 -19 -10 -46 -31 -61 -47 -37 -42
-63 -141 -39 -155 8 -5 31 35 31 57 0 7 9 23 20 37 18 23 20 23 21 5 0 -15 4
-13 14 11 8 18 32 47 54 66 40 34 62 73 54 96 -8 22 -28 12 -44 -21z m-58 -90
c-10 -9 -11 -8 -5 6 3 10 9 15 12 12 3 -3 0 -11 -7 -18z"/>
<path d="M3198 4739 c-10 -5 -29 -30 -44 -54 -23 -40 -28 -43 -46 -34 -12 7
-39 8 -66 4 -36 -5 -56 -16 -88 -49 -54 -54 -68 -103 -59 -210 9 -103 38 -160
120 -231 79 -70 132 -81 200 -40 25 14 50 37 55 51 8 21 16 24 60 24 69 0 103
20 129 74 58 124 -21 405 -130 461 -32 17 -106 19 -131 4z m127 -65 c28 -18
64 -73 82 -124 7 -19 13 -36 13 -37 0 -2 -38 -3 -85 -3 -84 0 -86 1 -98 28 -6
15 -27 42 -46 59 -31 31 -33 34 -19 55 8 13 29 31 48 40 34 18 56 14 105 -18z
m-217 -70 c19 -6 14 -10 -35 -34 -32 -16 -75 -45 -97 -65 -21 -20 -41 -34 -44
-31 -10 11 32 87 61 112 28 24 68 30 115 18z m101 -110 c35 -72 48 -208 26
-273 -13 -40 -22 -52 -47 -60 -47 -17 -76 -13 -88 9 -6 11 -16 19 -23 18 -40
-9 -138 120 -137 181 1 24 45 91 52 81 2 -3 16 -24 31 -47 31 -48 74 -60 84
-23 3 11 9 17 14 14 16 -10 9 22 -16 72 -28 55 -27 70 7 77 56 10 72 2 97 -49z
m201 -25 c22 -6 28 -27 29 -87 1 -83 -40 -142 -99 -142 -24 1 -24 1 -6 15 23
17 17 19 -18 5 -25 -9 -26 -8 -26 26 0 33 2 35 16 23 14 -11 13 -6 -3 26 -23
45 -38 119 -28 135 7 11 99 10 135 -1z"/>
<path d="M3165 4514 c-6 -8 -20 -16 -32 -17 -13 -1 -23 -4 -23 -7 1 -11 40
-54 40 -43 0 6 -4 15 -10 18 -18 11 -10 25 14 25 28 0 38 10 28 28 -6 8 -10 7
-17 -4z"/>
<path d="M3172 4379 c-7 -10 -8 -19 -3 -19 13 0 33 28 23 33 -4 3 -13 -3 -20
-14z"/>
<path d="M3130 4371 c0 -6 4 -13 10 -16 6 -3 7 1 4 9 -7 18 -14 21 -14 7z"/>
<path d="M2985 4320 c-13 -5 -15 -9 -5 -9 8 -1 24 -13 36 -28 21 -26 22 -27
63 -13 38 12 44 12 59 -4 16 -16 16 -18 -2 -32 -11 -8 -28 -14 -38 -14 -10 0
-18 -5 -18 -10 0 -15 52 -1 74 21 19 18 19 19 2 38 -31 34 0 71 32 39 9 -9 12
-9 12 0 0 6 -11 15 -26 18 -18 5 -32 0 -50 -17 -20 -18 -29 -21 -42 -13 -13 9
-20 7 -29 -5 -10 -14 -13 -13 -22 12 -11 29 -15 30 -46 17z"/>
<path d="M3320 4431 c-14 -26 -13 -64 2 -79 7 -7 24 -12 38 -12 15 0 30 -3 33
-7 11 -10 -14 -33 -37 -34 -18 -1 -18 -2 -3 -6 29 -8 57 25 57 67 0 20 -5 41
-11 47 -8 8 -8 13 0 17 23 14 10 26 -29 26 -29 0 -42 -5 -50 -19z"/>
<path d="M7561 4646 c-35 -35 -59 -66 -54 -69 9 -6 96 29 136 56 15 9 27 23
27 31 0 12 -30 46 -41 46 -3 0 -33 -29 -68 -64z m84 34 c6 -10 -72 -66 -81
-58 -4 5 64 68 73 68 1 0 4 -4 8 -10z"/>
<path d="M7869 4632 c-74 -43 -148 -87 -165 -99 -50 -37 -21 -50 136 -61 l135
-10 44 34 c24 19 48 34 52 34 4 0 11 9 14 20 9 29 -44 160 -64 159 -9 0 -77
-35 -152 -77z m154 11 c3 -16 8 -35 11 -43 4 -10 -7 -22 -33 -37 -33 -19 -55
-23 -128 -23 l-88 1 38 22 c22 12 69 41 105 64 37 24 72 43 78 43 6 0 14 -12
17 -27z m-9 -117 c-49 -33 -51 -34 -127 -26 -43 4 -81 10 -84 14 -4 3 34 6 83
6 71 0 95 4 119 19 53 34 62 22 9 -13z"/>
<path d="M7221 4664 c-24 -30 -25 -42 -11 -78 10 -27 75 -54 104 -43 37 14 43
99 9 132 -24 25 -78 19 -102 -11z m77 -46 c4 -32 -17 -38 -42 -12 -26 26 -17
47 19 42 13 -2 21 -12 23 -30z"/>
<path d="M2087 4356 c-21 -59 -41 -114 -44 -122 -3 -8 -1 -14 4 -14 14 0 63
129 56 147 -5 12 -3 14 7 8 9 -5 11 -4 6 3 -4 6 -2 21 4 32 6 12 10 28 8 37
-2 9 -20 -32 -41 -91z"/>
<path d="M2147 4436 c-4 -10 -5 -21 -2 -24 9 -9 17 6 13 25 -3 17 -4 17 -11
-1z"/>
<path d="M7490 4399 c-25 -16 -46 -34 -48 -39 -6 -18 26 -22 74 -8 51 14 69
36 36 45 -13 3 -18 11 -15 19 7 18 6 18 -47 -17z m43 -26 c-7 -2 -19 -2 -25 0
-7 3 -2 5 12 5 14 0 19 -2 13 -5z"/>
<path d="M2615 4311 c-16 -4 -48 -20 -69 -34 -48 -33 -77 -34 -141 -2 -65 32
-110 32 -157 0 -37 -25 -65 -62 -54 -72 3 -3 24 9 48 26 51 38 80 39 142 6 65
-35 113 -40 154 -18 41 23 121 86 122 96 0 8 -3 8 -45 -2z"/>
<path d="M2695 4244 c-72 -37 -84 -80 -39 -134 21 -25 33 -30 58 -28 26 2 35
11 56 50 l25 48 -20 37 c-23 44 -39 49 -80 27z m50 -45 c11 -35 -3 -68 -32
-75 -19 -5 -30 -2 -40 11 -18 26 -17 32 12 60 30 30 51 32 60 4z"/>
<path d="M3625 4221 c-4 -12 -3 -27 3 -33 13 -13 21 11 12 37 -7 19 -7 19 -15
-4z"/>
<path d="M2855 4193 c-3 -21 -8 -51 -10 -66 -3 -15 -1 -26 4 -23 5 3 11 29 15
57 6 43 9 49 21 39 18 -15 20 1 3 18 -20 20 -27 14 -33 -25z"/>
<path d="M2305 4210 c-27 -11 -48 -37 -40 -50 9 -14 25 -13 60 6 17 9 39 17
50 19 11 1 25 3 30 4 6 1 1 8 -9 16 -22 16 -59 18 -91 5z"/>
<path d="M3487 4175 c-43 -51 -77 -58 -144 -30 -42 18 -53 19 -53 4 0 -6 -16
-33 -36 -60 -25 -35 -43 -49 -59 -49 -34 0 -39 -15 -10 -34 18 -12 30 -14 43
-7 22 12 67 60 81 88 11 21 12 21 48 6 22 -9 51 -13 70 -10 48 8 141 92 143
130 0 4 -10 7 -22 7 -15 -1 -37 -17 -61 -45z"/>
<path d="M2920 4177 c0 -6 80 -69 141 -112 16 -11 29 -29 29 -41 0 -29 47 -61
64 -44 8 9 8 14 -1 17 -7 3 -13 14 -13 26 0 16 -18 34 -63 64 -35 23 -77 47
-93 54 -16 7 -37 19 -46 27 -10 9 -18 12 -18 9z"/>
<path d="M2022 4080 c-12 -56 -11 -63 8 -89 26 -38 25 -45 -5 -37 -30 8 -30
10 -5 -48 22 -49 36 -61 27 -23 -5 18 0 16 26 -14 18 -19 38 -44 45 -55 11
-17 12 -15 6 16 -3 19 -15 60 -26 90 -11 30 -30 92 -42 138 l-22 83 -12 -61z"/>
<path d="M2551 4113 c-34 -42 -10 -92 45 -96 26 -2 29 1 32 30 2 21 -4 42 -19
63 -28 37 -32 37 -58 3z m48 -49 c3 -16 1 -17 -13 -5 -19 16 -21 34 -3 29 6
-3 14 -13 16 -24z"/>
<path d="M2841 4078 c-1 -9 -7 -23 -15 -30 -19 -19 -44 -114 -45 -167 0 -24 2
-41 4 -39 9 9 65 232 61 242 -2 6 -5 3 -5 -6z"/>
<path d="M5197 3982 c-8 -9 -22 -30 -31 -46 -13 -25 -13 -34 -1 -63 23 -55 62
-82 120 -83 59 0 89 13 53 24 -13 4 -18 10 -11 12 7 3 21 1 32 -5 41 -22 14
37 -49 108 -65 74 -86 83 -113 53z m33 -1 c0 -5 -9 -19 -21 -32 l-20 -24 17
33 c19 33 24 38 24 23z m100 -124 c0 -18 -82 1 -106 24 -13 12 -24 17 -24 11
0 -13 35 -51 48 -53 4 0 17 -2 29 -3 38 -4 39 -16 1 -16 -29 0 -42 7 -67 35
-17 20 -31 39 -31 42 0 4 12 20 27 35 l27 28 48 -47 c26 -26 48 -51 48 -56z"/>
<path d="M3220 3967 c0 -15 41 -47 60 -47 16 0 4 16 -30 40 -23 17 -30 18 -30
7z"/>
<path d="M3230 3894 c-19 -9 -98 -39 -175 -69 -182 -69 -315 -132 -315 -151 0
-22 28 -17 110 20 164 74 217 96 229 96 7 0 51 16 99 36 76 32 97 39 135 43
16 2 6 18 -18 29 -14 7 -27 12 -28 12 -1 -1 -18 -8 -37 -16z"/>
<path d="M3055 3685 c-89 -37 -100 -44 -102 -68 -1 -15 -1 -27 1 -27 1 0 20 9
42 19 l39 19 17 -26 c10 -15 30 -60 44 -99 15 -40 30 -73 35 -73 4 0 19 4 32
9 l25 10 -29 58 c-32 66 -59 149 -51 157 3 4 17 6 31 6 14 0 33 5 41 10 13 8
12 12 -5 28 -20 18 -22 18 -120 -23z"/>
<path d="M8220 3672 c-85 -65 -140 -115 -140 -128 0 -28 43 -37 131 -28 l84 9
3 35 c2 19 1 59 -3 88 -8 61 -21 66 -75 24z m40 -51 c0 -35 -3 -39 -32 -45
-18 -3 -46 -9 -63 -12 -28 -6 -27 -3 25 45 30 27 58 50 63 51 4 0 7 -17 7 -39z
m9 -65 c-2 -2 -20 -6 -39 -10 -25 -4 -31 -3 -20 4 14 9 69 15 59 6z"/>
<path d="M2540 3604 c-123 -61 -131 -67 -109 -77 20 -11 34 -6 103 29 45 23
100 48 124 55 23 7 42 16 42 20 0 4 3 14 6 23 11 30 -31 17 -166 -50z"/>
<path d="M3366 3657 c3 -10 9 -15 12 -12 3 3 0 11 -7 18 -10 9 -11 8 -5 -6z"/>
<path d="M3140 3640 c-12 -7 -11 -12 4 -28 11 -13 14 -22 7 -27 -16 -9 -13
-28 3 -22 8 3 22 -3 31 -13 15 -17 15 -19 -2 -28 -15 -9 -16 -13 -5 -24 11
-11 18 -8 38 15 24 28 24 29 7 58 -10 16 -23 29 -30 29 -7 0 -13 6 -13 14 0
21 -23 36 -40 26z"/>
<path d="M3297 3644 c-3 -3 -3 -13 0 -21 5 -12 7 -12 14 -1 15 23 4 40 -14 22z"/>
<path d="M3336 3637 c3 -10 9 -15 12 -12 3 3 0 11 -7 18 -10 9 -11 8 -5 -6z"/>
<path d="M3600 3607 c0 -3 5 -18 10 -32 9 -23 7 -28 -10 -32 -33 -9 -23 -41
23 -73 23 -16 50 -35 60 -42 12 -9 21 -31 24 -61 3 -26 7 -47 8 -47 1 0 19 7
40 16 35 14 36 16 21 33 -9 10 -16 24 -16 32 0 17 -50 66 -95 94 -17 10 -24
20 -17 23 9 3 9 9 0 25 -13 26 -48 72 -48 64z"/>
<path d="M3745 3594 c-26 -13 -31 -22 -32 -55 -2 -29 3 -41 17 -49 28 -15 30
-13 30 33 0 23 7 53 16 65 18 25 11 27 -31 6z"/>
<path d="M2695 3580 c-12 -13 -18 -35 -17 -65 0 -25 -4 -43 -9 -40 -5 4 -6 0
-4 -8 3 -7 -1 -27 -10 -43 -9 -17 -15 -55 -15 -92 0 -35 -4 -61 -9 -58 -8 5 2
-48 20 -110 5 -17 9 -38 9 -47 0 -9 7 -17 16 -17 19 0 87 -145 79 -171 -6 -17
-4 -17 34 -2 l39 15 -30 52 c-17 28 -36 68 -44 88 -11 32 -11 39 2 46 12 7 11
14 -5 47 -11 22 -28 47 -39 57 -11 9 -23 35 -27 59 -4 24 -12 50 -16 59 -6 10
0 54 19 130 16 63 28 116 27 118 -1 1 -10 -7 -20 -18z m20 -382 l28 -22 -29
-13 c-44 -19 -54 -16 -54 15 0 48 14 53 55 20z"/>
<path d="M3011 3586 c-7 -8 -8 -17 -3 -20 5 -3 13 -31 17 -61 6 -52 8 -55 34
-55 15 0 30 3 34 6 6 6 -59 144 -67 144 -2 0 -9 -6 -15 -14z"/>
<path d="M3582 3570 c0 -14 2 -19 5 -12 2 6 2 18 0 25 -3 6 -5 1 -5 -13z"/>
<path d="M7530 3573 c0 -5 -4 -25 -9 -46 -10 -43 5 -67 43 -67 23 0 76 21 76
30 0 6 -97 90 -104 90 -3 0 -6 -3 -6 -7z m39 -65 c12 -15 11 -18 -3 -18 -10 0
-16 8 -16 22 0 12 1 19 3 17 1 -2 9 -12 16 -21z"/>
<path d="M7885 3510 c-12 -4 -27 -15 -34 -24 -19 -23 -4 -36 48 -43 47 -6 71
8 71 42 0 33 -39 44 -85 25z m55 -30 c0 -5 -12 -10 -26 -10 -14 0 -23 4 -19
10 3 6 15 10 26 10 10 0 19 -4 19 -10z"/>
<path d="M2450 3482 c0 -9 25 -33 47 -46 8 -4 11 -2 7 6 -6 17 -54 52 -54 40z"/>
<path d="M3408 3455 c-91 -32 -91 -32 -70 -63 26 -39 75 -170 67 -182 -9 -14
28 -13 48 3 15 11 14 15 -3 51 -11 21 -17 43 -14 48 4 6 25 7 50 3 32 -4 44
-3 44 6 0 7 6 20 14 28 12 15 30 91 21 91 -3 0 -9 -15 -14 -32 l-9 -33 -1 42
c-1 31 -6 45 -20 53 -26 14 -35 12 -113 -15z m100 -48 c-2 -7 -24 -22 -49 -34
l-44 -21 -8 20 c-14 39 43 76 86 55 10 -4 17 -14 15 -20z"/>
<path d="M2860 3441 c0 -12 5 -21 10 -21 6 0 10 6 10 14 0 8 -4 18 -10 21 -5
3 -10 -3 -10 -14z"/>
<path d="M2907 3453 c-4 -3 -7 -11 -7 -17 0 -6 5 -5 12 2 6 6 9 14 7 17 -3 3
-9 2 -12 -2z"/>
<path d="M2364 3385 c-4 -9 12 -57 34 -108 22 -51 43 -102 47 -114 9 -31 35
-30 35 1 0 13 -13 51 -29 83 -15 32 -36 77 -46 101 -21 50 -33 60 -41 37z"/>
<path d="M2480 3383 c0 -10 8 -40 18 -66 16 -41 20 -46 31 -33 10 12 9 23 -7
59 -22 49 -42 68 -42 40z"/>
<path d="M3820 3377 c0 -25 146 -149 197 -167 23 -8 19 -2 -22 33 -27 23 -75
66 -106 95 -58 54 -69 60 -69 39z"/>
<path d="M2430 3365 c0 -25 58 -145 69 -145 19 0 12 30 -20 96 -31 62 -49 80
-49 49z"/>
<path d="M3210 3373 c-36 -11 -116 -46 -126 -55 -9 -6 -4 -24 16 -66 15 -31
35 -81 44 -109 10 -29 20 -53 22 -53 5 0 46 20 53 26 2 2 -7 19 -19 38 -25 42
-20 56 21 56 21 0 39 -10 58 -31 28 -30 29 -31 60 -15 32 17 41 36 17 36 -25
0 -79 51 -67 63 17 17 13 72 -6 89 -22 19 -53 28 -73 21z m34 -49 c32 -12 17
-41 -31 -62 -51 -22 -63 -17 -63 23 0 15 10 24 33 32 43 14 43 14 61 7z"/>
<path d="M3550 3318 c0 -7 -3 -23 -6 -35 -5 -19 -2 -23 15 -23 12 0 32 5 43
11 20 11 20 12 -8 35 -33 27 -44 29 -44 12z"/>
<path d="M2937 3260 c-32 -15 -67 -30 -78 -33 -19 -5 -19 -7 10 -60 17 -29 31
-63 31 -75 0 -27 102 -77 128 -62 9 6 29 14 45 20 22 8 27 15 27 44 l0 35 -52
-35 c-60 -39 -73 -41 -88 -15 -16 32 -12 38 35 51 50 14 49 13 35 40 -9 18
-11 18 -50 -1 -44 -22 -55 -20 -63 11 -4 16 4 24 40 40 25 11 54 20 64 20 24
0 24 12 1 33 -22 20 -14 22 -85 -13z"/>
<path d="M3511 3248 c-11 -31 -25 -94 -18 -88 7 7 37 110 31 110 -2 0 -8 -10
-13 -22z"/>
<path d="M3607 3193 c-4 -3 -7 -15 -7 -25 0 -21 -12 -23 -42 -7 -35 19 -31 1
6 -23 19 -13 37 -32 40 -43 9 -35 20 -6 17 48 -3 56 -4 60 -14 50z"/>
<path d="M2775 3180 c3 -5 10 -10 16 -10 5 0 9 5 9 10 0 6 -7 10 -16 10 -8 0
-12 -4 -9 -10z"/>
<path d="M2805 3130 c10 -11 20 -20 23 -20 3 0 -3 9 -13 20 -10 11 -20 20 -23
20 -3 0 3 -9 13 -20z"/>
<path d="M3480 3124 c0 -10 -7 -13 -27 -9 -23 5 -25 4 -12 -6 14 -11 14 -20 2
-93 -20 -115 -54 -210 -76 -214 -10 -2 -43 13 -73 34 -30 20 -57 35 -60 31 -3
-3 4 -10 15 -17 12 -6 18 -16 15 -22 -4 -7 -3 -8 4 -4 7 4 12 3 12 -2 0 -5 12
-14 26 -20 26 -13 24 -32 -3 -32 -20 0 -187 -80 -181 -86 6 -5 118 40 173 70
22 11 51 23 65 26 37 8 64 74 120 293 13 48 25 55 44 23 9 -14 5 -22 -19 -42
-28 -22 -29 -24 -8 -24 28 0 57 42 48 69 -8 25 -65 47 -65 25z"/>
<path d="M2617 3117 c-11 -29 -9 -53 4 -40 6 6 9 21 7 34 -3 21 -4 22 -11 6z"/>
<path d="M4042 3095 c4 -6 12 -22 17 -36 6 -15 10 -18 10 -8 1 9 -7 25 -16 36
-10 10 -15 14 -11 8z"/>
<path d="M3380 3093 c1 -5 7 -19 15 -33 21 -37 18 -46 -7 -22 -13 11 -36 24
-51 28 l-28 6 16 -38 c17 -43 41 -71 50 -62 4 3 -1 20 -10 37 -19 37 -8 40 28
7 24 -23 27 -23 32 -6 7 22 -19 90 -34 90 -6 0 -11 -3 -11 -7z"/>
<path d="M3941 3053 c-8 -13 -10 -14 -11 -4 0 8 -3 12 -6 9 -3 -4 2 -18 12
-33 13 -21 15 -28 5 -34 -10 -6 -9 -10 3 -14 9 -4 16 -2 16 4 0 6 7 9 15 5 18
-6 20 19 5 58 -11 30 -25 33 -39 9z m26 -35 c-3 -7 -5 -2 -5 12 0 14 2 19 5
13 2 -7 2 -19 0 -25z"/>
<path d="M4031 3065 c1 -19 18 -51 18 -35 0 8 -4 22 -9 30 -5 8 -9 11 -9 5z"/>
<path d="M4010 3048 c0 -9 5 -20 10 -23 13 -8 13 5 0 25 -8 13 -10 13 -10 -2z"/>
<path d="M3236 3018 c-12 -56 -11 -108 1 -108 9 0 11 8 7 26 -6 24 -5 26 17
19 l24 -6 -25 20 c-20 16 -21 21 -8 21 9 0 23 -7 32 -15 31 -32 35 -13 5 25
-37 46 -47 49 -53 18z"/>
<path d="M2930 2997 c0 -16 3 -17 14 -8 23 19 135 -41 149 -80 6 -16 17 -29
24 -29 24 0 13 23 -30 64 -30 29 -60 46 -100 57 -56 16 -57 16 -57 -4z"/>
<path d="M3117 2993 c-26 -7 -15 -28 14 -28 15 0 24 -6 24 -15 0 -8 -6 -15
-12 -15 -22 0 -15 -20 9 -27 40 -11 54 -10 40 4 -7 7 -12 22 -12 34 0 13 -7
30 -16 38 -16 17 -17 17 -47 9z"/>
<path d="M4196 2945 c-6 -45 -2 -63 43 -175 28 -69 51 -128 51 -132 0 -5 -17
-8 -37 -9 -57 0 -127 -32 -131 -59 -3 -17 0 -21 15 -16 10 3 48 12 84 21 64
16 68 16 117 -5 27 -12 60 -32 71 -44 l21 -23 -36 -60 -36 -61 -45 20 c-36 16
-57 19 -97 13 -69 -9 -132 -38 -141 -65 -10 -31 -3 -33 50 -10 60 26 135 38
135 21 0 -6 -31 -32 -70 -56 -47 -31 -67 -50 -64 -60 7 -18 -36 -38 -51 -24
-15 14 -40 10 -67 -10 -13 -11 -66 -38 -118 -60 -52 -23 -119 -53 -149 -67
l-53 -25 -16 23 c-47 70 -142 135 -142 97 0 -6 27 -41 60 -77 32 -36 70 -85
82 -109 23 -43 23 -43 4 -94 -21 -61 -99 -162 -138 -179 -26 -12 -125 -16
-135 -6 -3 3 11 25 32 50 33 41 40 45 76 43 34 -2 38 -1 23 10 -9 7 -22 14
-27 16 -7 2 -5 17 6 40 16 32 16 40 4 69 -16 37 -105 123 -137 131 -41 11 -36
-23 8 -60 23 -19 42 -38 42 -42 0 -11 -47 -31 -70 -31 -26 0 -33 -15 -19 -38
12 -19 14 -19 72 5 32 13 61 22 64 20 22 -23 -99 -167 -140 -167 -11 0 -34
-16 -52 -35 -38 -39 -54 -96 -58 -201 -2 -82 9 -104 57 -105 28 0 29 -1 9 -9
-16 -7 -23 -18 -24 -37 0 -26 -1 -26 -12 -9 -48 76 -158 159 -226 171 -45 7
-184 -10 -256 -32 -130 -40 -177 -86 -238 -230 l-41 -98 -1 -150 c0 -174 6
-192 91 -285 50 -54 71 -67 189 -121 74 -33 215 -39 278 -11 l46 21 55 -46 55
-45 46 37 c25 21 45 40 45 44 1 3 10 17 20 30 15 18 23 21 33 12 79 -65 265
-106 369 -82 69 15 122 53 147 103 l20 40 14 -34 c18 -42 56 -74 108 -90 32
-9 62 -7 171 10 73 12 163 25 200 28 38 4 75 12 84 19 21 15 22 85 4 179 -17
88 -37 111 -94 102 -22 -3 -78 -9 -123 -13 -73 -5 -83 -4 -83 11 0 13 11 16
60 16 57 0 61 2 71 28 6 15 9 55 7 89 -5 85 -29 116 -92 123 -25 3 -48 10 -49
15 -1 6 45 11 119 13 l120 3 18 31 c16 26 18 43 12 122 -10 125 -18 136 -106
136 -39 0 -70 2 -70 5 0 3 9 21 19 40 10 20 17 44 14 54 -4 17 -178 186 -223
218 -25 18 -68 -6 -125 -69 -49 -54 -54 -72 -27 -103 19 -22 184 -125 201
-125 5 0 12 -4 15 -9 3 -4 -40 -13 -95 -20 -55 -6 -109 -16 -120 -21 -18 -10
-19 -7 -19 37 0 36 -7 59 -29 91 -32 48 -54 62 -156 99 -38 14 -71 26 -73 28
-1 1 15 29 37 61 51 76 65 130 51 185 -6 23 -10 42 -8 43 2 1 48 22 103 46 55
23 127 58 160 75 33 18 74 39 90 47 110 54 165 85 202 114 23 19 46 34 51 34
6 0 36 -23 66 -51 46 -42 56 -57 56 -84 0 -20 9 -42 24 -58 l24 -26 -40 -58
c-53 -77 -100 -126 -172 -179 -70 -53 -61 -57 20 -8 74 44 115 83 165 157 22
31 43 57 46 57 3 0 21 -12 40 -26 18 -14 54 -32 78 -41 25 -8 45 -18 45 -22 0
-28 -164 -206 -270 -294 -43 -36 -44 -37 -10 -21 95 46 231 168 270 244 23 45
57 76 93 84 69 16 163 143 222 301 35 94 45 226 21 289 -30 77 -137 129 -229
112 -87 -16 -168 -104 -186 -200 -14 -76 -23 -77 -88 -9 -32 33 -81 72 -109
86 -49 25 -53 30 -72 89 -42 131 -81 236 -100 273 l-20 39 -6 -49z m648 -273
c2 -4 -9 -17 -25 -27 -35 -23 -86 -90 -118 -153 -33 -65 -101 -275 -108 -332
-6 -54 -9 -57 -39 -36 -17 13 -18 18 -7 47 16 41 5 60 -14 24 -13 -24 -17 -26
-30 -12 -26 26 0 115 54 187 24 33 49 58 54 54 5 -3 9 5 9 18 0 47 51 158 86
186 50 40 125 64 138 44z m-3 -68 c-72 -81 -201 -399 -201 -494 0 -40 -13 -53
-24 -24 -11 28 -7 50 29 168 54 178 119 304 185 360 44 36 48 33 11 -10z m113
-6 c35 -49 6 -247 -50 -357 -26 -48 -41 -60 -58 -44 -12 12 -106 31 -111 23
-2 -4 24 -15 58 -25 34 -10 64 -20 66 -21 6 -5 -91 -114 -100 -114 -5 0 -9 7
-9 15 0 23 -27 18 -33 -6 -10 -37 -32 -15 -35 35 -6 93 112 387 189 471 47 51
61 55 83 23z m-452 -157 l31 -29 -25 -33 c-14 -19 -29 -44 -33 -56 -9 -30 -15
-29 -54 11 -32 33 -33 36 -21 71 8 23 17 35 25 31 7 -2 15 4 18 15 7 26 23 24
59 -10z m-363 -761 c89 -85 93 -91 75 -105 -10 -8 -22 -15 -26 -15 -4 0 -41
21 -81 48 -41 26 -89 55 -107 65 l-32 17 33 39 c19 22 36 40 39 40 3 0 47 -40
99 -89z m-786 21 c9 -37 132 -54 187 -26 34 18 36 14 14 -20 -8 -13 -14 -36
-12 -52 3 -24 7 -28 35 -28 17 0 35 -3 39 -7 22 -23 59 1 107 67 13 16 15 16
53 -3 40 -21 74 -66 74 -99 0 -19 -10 -19 -247 -18 -285 1 -333 9 -333 53 1
50 47 152 69 152 5 0 11 -9 14 -19z m260 -56 c-27 -34 -43 -44 -43 -26 0 16
41 61 56 61 11 0 7 -10 -13 -35z m87 16 c-1 -12 -60 -64 -66 -58 -11 11 36 76
52 70 7 -3 14 -8 14 -12z m-379 -167 c35 -13 88 -17 269 -18 124 0 231 1 239
4 24 9 23 -18 -1 -32 -34 -19 -422 -18 -501 1 -63 16 -70 21 -61 45 7 19 2 19
55 0z m-278 -30 c109 -56 185 -159 206 -280 20 -120 23 -245 7 -313 l-15 -64
35 -32 c18 -17 34 -36 34 -41 0 -6 -14 -23 -31 -40 -17 -16 -35 -39 -40 -51
-12 -31 -29 -29 -75 10 -53 46 -66 49 -110 26 -63 -32 -173 -27 -274 13 -182
71 -245 183 -222 396 11 102 51 223 93 276 65 83 305 144 392 100z m1316 -31
c5 -10 12 -46 16 -80 8 -73 4 -76 -103 -73 -141 4 -148 3 -162 -30 -14 -33 -8
-93 11 -116 7 -9 31 -14 65 -14 l54 0 0 -32 c0 -18 3 -43 6 -55 6 -22 4 -23
-49 -23 -46 0 -59 -4 -71 -22 -18 -26 -21 -90 -6 -119 13 -23 76 -25 195 -8
44 7 80 8 84 3 15 -16 21 -155 8 -158 -7 -2 -89 -14 -183 -27 -224 -30 -244
-25 -267 59 -26 96 -28 144 -13 247 11 72 14 148 10 272 l-5 171 68 7 c37 3
75 8 83 9 8 2 68 4 132 5 102 1 118 -1 127 -16z m-469 -13 c0 -5 -4 -10 -10
-10 -5 0 -10 5 -10 10 0 6 5 10 10 10 6 0 10 -4 10 -10z m-246 -250 l0 -221
-26 -26 -26 -26 -11 22 c-14 26 -28 147 -35 306 -3 66 -8 130 -12 143 -6 21
-4 22 52 22 l59 0 -1 -220z m239 130 c12 -65 2 -311 -17 -415 -9 -49 -28 -114
-42 -143 -44 -89 -104 -113 -238 -93 -100 15 -184 53 -197 90 -5 14 -25 40
-44 56 l-34 30 15 60 c11 48 12 81 5 165 -11 118 -13 221 -5 263 6 28 6 28 77
25 l72 -3 6 -175 c7 -214 23 -273 82 -305 l37 -20 44 23 c24 13 49 35 55 48 7
16 11 96 11 217 0 106 4 197 8 204 4 6 32 14 62 16 94 6 94 7 103 -43z"/>
<path d="M4712 2169 c7 -20 98 -53 98 -36 0 7 -17 19 -37 26 -21 8 -44 16 -52
19 -9 3 -12 0 -9 -9z"/>
<path d="M4710 2117 c0 -17 48 -29 69 -17 14 8 12 9 -51 26 -11 3 -18 0 -18
-9z"/>
<path d="M2881 1315 c-55 -17 -84 -45 -127 -121 -28 -51 -34 -71 -34 -123 0
-101 55 -185 157 -241 42 -23 103 -24 126 -1 12 12 -6 46 -46 88 -30 32 -30
33 -11 54 40 45 53 44 100 -2 42 -41 45 -42 62 -26 26 27 23 166 -5 229 -57
127 -128 173 -222 143z m111 -93 c28 -27 68 -120 68 -156 0 -18 -1 -18 -18 -3
-10 10 -28 17 -40 17 -30 0 -85 -39 -117 -84 -27 -37 -28 -39 -11 -67 28 -48
2 -33 -45 26 -24 30 -47 70 -51 88 -11 47 15 126 58 176 36 42 39 43 83 37 31
-4 55 -15 73 -34z"/>
<path d="M4452 2954 c-12 -8 -22 -22 -22 -30 0 -8 -11 -19 -24 -26 -65 -29
-49 -127 22 -128 12 0 22 5 22 10 0 6 -8 10 -18 10 -25 0 -42 20 -42 50 0 31
17 50 43 50 13 0 17 5 13 15 -6 16 18 45 39 45 7 0 23 -12 35 -27 12 -16 26
-29 31 -29 5 -1 13 -2 18 -3 20 -2 23 -42 5 -62 -9 -10 -14 -22 -11 -26 12
-11 47 29 47 53 0 22 -23 54 -39 54 -5 0 -22 14 -39 30 -36 34 -48 36 -80 14z"/>
<path d="M3003 2933 c-24 -5 -30 -18 -13 -28 6 -3 10 -17 10 -29 0 -35 21 -48
58 -35 28 10 30 13 25 47 -8 50 -19 57 -80 45z m51 -11 c2 -4 -4 -13 -14 -20
-20 -12 -36 0 -25 18 7 12 32 13 39 2z m6 -53 c0 -5 -7 -9 -15 -9 -15 0 -20
12 -9 23 8 8 24 -1 24 -14z"/>
<path d="M3645 2928 c-16 -6 -34 -14 -40 -18 -5 -4 -45 -22 -87 -40 -42 -17
-83 -38 -90 -47 -11 -14 -10 -15 12 -8 14 4 66 27 115 50 50 23 100 45 113 49
12 4 22 12 22 17 0 11 -6 11 -45 -3z"/>
<path d="M2610 2888 c0 -38 -12 -68 -23 -61 -7 4 -8 -7 -4 -33 4 -21 7 -50 8
-64 1 -25 1 -25 9 3 11 37 24 177 16 177 -3 0 -6 -10 -6 -22z"/>
<path d="M3533 2811 c-35 -14 -71 -34 -80 -44 -11 -11 16 -3 72 23 49 23 91
43 94 46 11 11 -30 -1 -86 -25z"/>
<path d="M4470 2818 c0 -17 43 -98 51 -98 9 0 -5 60 -20 88 -13 24 -31 30 -31
10z"/>
<path d="M4520 2819 c0 -8 7 -24 16 -35 14 -18 15 -18 8 6 -8 31 -24 50 -24
29z"/>
<path d="M4676 2769 c-32 -34 -30 -47 6 -27 45 26 60 41 46 50 -18 11 -20 10
-52 -23z"/>
<path d="M3283 2705 c-79 -37 -71 -45 16 -16 43 14 77 29 74 34 -7 12 -36 6
-90 -18z"/>
<path d="M3793 2688 c-29 -32 -83 -151 -73 -161 19 -21 44 0 60 51 10 29 26
63 37 75 11 12 23 30 26 40 9 25 -25 22 -50 -5z"/>
<path d="M4516 2672 c-13 -21 4 -52 27 -52 12 0 17 4 12 8 -6 4 -15 18 -21 31
-7 17 -13 21 -18 13z"/>
<path d="M5080 2640 c1 -8 7 -43 14 -77 10 -45 11 -87 5 -154 -5 -51 -7 -95
-5 -97 7 -6 26 69 32 128 7 61 -10 163 -32 195 -10 14 -14 15 -14 5z"/>
<path d="M7460 2643 c0 -5 8 -44 19 -88 11 -44 25 -106 31 -138 10 -52 16 -60
53 -84 23 -14 50 -35 61 -45 18 -19 19 -19 36 -1 18 20 60 117 60 140 0 32
-188 212 -204 195 -4 -4 -12 1 -17 11 -10 17 -39 24 -39 10z m178 -157 c23
-25 42 -51 42 -57 0 -20 -23 -89 -29 -89 -5 0 -95 184 -110 223 -7 18 53 -30
97 -77z m-73 -34 c20 -52 35 -95 33 -97 -1 -2 -13 5 -26 16 -17 13 -28 39 -38
86 -14 67 -18 100 -10 92 2 -2 20 -46 41 -97z"/>
<path d="M5167 2533 c2 -38 6 -84 9 -103 5 -30 7 -32 16 -16 14 24 12 139 -2
165 -20 38 -28 22 -23 -46z"/>
<path d="M4009 2552 c-57 -30 -72 -58 -29 -55 39 2 100 27 100 40 0 6 3 18 6
27 9 24 -16 20 -77 -12z"/>
<path d="M2910 2565 c0 -5 5 -17 10 -25 5 -8 10 -10 10 -5 0 6 -5 17 -10 25
-5 8 -10 11 -10 5z"/>
<path d="M2881 2550 c0 -14 28 -72 29 -59 0 4 -7 22 -15 40 -8 19 -14 27 -14
19z"/>
<path d="M3673 2526 c46 -42 29 -49 -41 -15 -91 45 -192 -2 -192 -89 l0 -35
42 52 c47 58 79 66 136 31 41 -25 74 -25 96 -1 16 18 16 20 -6 41 -13 12 -32
26 -43 31 -14 7 -11 2 8 -15z"/>
<path d="M2787 2520 c10 -11 19 -20 21 -20 1 0 -2 9 -8 20 -6 11 -15 20 -20
20 -6 0 -2 -9 7 -20z"/>
<path d="M2842 2527 c-9 -10 -8 -19 4 -35 21 -30 48 -30 39 1 -11 36 -29 51
-43 34z m31 -27 c3 -11 1 -20 -4 -20 -11 0 -30 36 -22 43 9 10 20 0 26 -23z"/>
<path d="M4096 2505 c-3 -9 -6 -22 -5 -28 0 -7 5 -1 10 12 5 13 8 26 5 28 -2
2 -6 -3 -10 -12z"/>
<path d="M2740 2505 c0 -4 7 -19 15 -35 16 -32 4 -42 -15 -12 -10 15 -10 15
-8 -3 2 -12 12 -21 27 -23 20 -3 23 -1 16 15 -15 37 -17 53 -6 53 6 0 13 -11
17 -25 4 -18 13 -25 28 -24 14 1 16 3 5 6 -9 2 -21 15 -27 28 -7 15 -20 25
-32 25 -11 0 -20 -2 -20 -5z"/>
<path d="M3760 2475 c0 -2 14 -11 30 -20 17 -9 30 -11 30 -6 0 6 -9 15 -19 21
-21 11 -41 13 -41 5z"/>
<path d="M3867 2416 c-4 -9 9 -20 34 -32 22 -10 46 -25 52 -33 7 -9 21 -17 32
-19 18 -2 17 0 -5 18 -67 56 -108 80 -113 66z"/>
<path d="M3351 2394 c-1 -12 -8 -41 -16 -65 -10 -27 -13 -55 -9 -74 7 -29 8
-28 24 27 22 72 34 138 22 119 -8 -11 -10 -11 -15 0 -3 9 -6 6 -6 -7z"/>
<path d="M4012 2338 c-6 -8 -9 -17 -6 -20 3 -3 -3 -5 -13 -4 -22 1 -25 -28 -3
-31 8 -2 24 4 34 12 15 11 17 19 10 36 -8 18 -12 19 -22 7z"/>
<path d="M2663 2286 c10 -15 28 -56 39 -89 44 -136 128 -304 176 -350 33 -32
48 -39 93 -44 55 -5 203 18 239 37 10 5 28 10 39 10 30 0 34 16 7 33 -21 14
-29 14 -71 2 -108 -33 -192 -45 -226 -34 -46 16 -87 55 -95 93 -3 17 -19 51
-34 76 -28 45 -73 151 -85 203 -5 17 -25 39 -54 59 l-46 32 18 -28z"/>
<path d="M4070 2286 c0 -2 8 -10 18 -17 15 -13 16 -12 3 4 -13 16 -21 21 -21
13z"/>
<path d="M7262 2179 c-3 -98 4 -119 44 -119 32 0 47 31 38 85 -6 42 -54 125
-72 125 -4 0 -8 -41 -10 -91z m48 -45 c0 -19 -4 -34 -10 -34 -5 0 -10 18 -10
41 0 24 4 38 10 34 6 -3 10 -22 10 -41z"/>
<path d="M3190 2218 c-19 -11 -52 -38 -72 -61 l-37 -42 -30 17 c-29 16 -31 16
-40 0 -9 -15 -15 -14 -63 12 -38 22 -49 25 -38 11 14 -17 14 -17 -16 -2 -18 9
-41 29 -52 44 -15 21 -24 25 -32 17 -8 -8 7 -24 61 -59 101 -66 180 -98 148
-58 -12 14 -11 14 13 -1 39 -25 68 -15 130 45 29 29 63 58 75 66 23 15 22 34
0 32 -7 0 -28 -9 -47 -21z"/>
<path d="M7047 2189 c-15 -9 -17 -18 -12 -52 9 -58 30 -87 61 -87 75 0 85 51
22 110 -45 44 -45 44 -71 29z m61 -100 c-20 -13 -25 -11 -32 14 -12 44 -6 50
20 22 20 -22 23 -30 12 -36z"/>
<path d="M4964 2095 c-11 -46 17 -78 31 -35 7 23 -2 60 -15 60 -6 0 -12 -11
-16 -25z m26 -15 c0 -5 -4 -10 -10 -10 -5 0 -10 5 -10 10 0 6 5 10 10 10 6 0
10 -4 10 -10z"/>
<path d="M5623 2022 c-59 -49 -92 -84 -92 -97 -1 -28 51 -119 69 -123 30 -5
89 50 100 93 5 22 19 70 31 107 22 67 21 98 -3 98 -7 -1 -54 -35 -105 -78z
m33 -43 c-13 -24 -29 -61 -36 -81 -6 -21 -15 -38 -19 -38 -9 0 -31 45 -31 63
0 11 102 108 108 103 1 -2 -9 -23 -22 -47z m19 -59 c-9 -27 -21 -52 -26 -55
-14 -9 -11 8 13 71 26 68 37 56 13 -16z"/>
<path d="M3098 2043 c7 -3 10 -9 7 -14 -7 -11 55 -50 67 -43 5 3 20 -2 33 -10
43 -28 27 -9 -23 27 -26 20 -59 37 -72 40 -14 2 -19 2 -12 0z m64 -41 c11 -13
8 -12 -19 2 -18 9 -33 18 -33 20 0 9 41 -8 52 -22z"/>
<path d="M3260 2013 c0 -24 2 -43 4 -43 8 0 12 60 4 72 -4 8 -8 -4 -8 -29z"/>
<path d="M4906 1980 c10 -62 12 -65 33 -46 15 14 24 15 40 6 25 -13 26 -23 5
-40 -13 -12 -12 -16 13 -35 25 -20 26 -25 15 -49 -15 -34 -37 -42 -75 -28 -25
10 -34 9 -47 -3 -23 -21 -57 -19 -70 4 -16 30 -12 52 10 58 11 3 20 10 20 15
0 5 -9 12 -20 15 -11 3 -20 11 -20 19 0 17 46 48 60 39 6 -4 10 7 10 29 0 20
-4 36 -10 36 -5 0 -10 -8 -10 -17 0 -10 -15 -25 -33 -34 -31 -15 -32 -18 -34
-85 -1 -85 14 -114 60 -114 17 0 38 4 46 9 8 5 27 5 44 0 32 -9 63 2 84 30 15
19 17 67 3 76 -5 3 -10 22 -10 40 0 40 -36 71 -69 60 -15 -4 -24 1 -35 22
l-15 28 5 -35z"/>
<path d="M4477 1914 c-31 -41 -54 -74 -51 -74 26 0 124 112 124 142 0 19 -19
2 -73 -68z"/>
<path d="M3286 1935 c8 -37 7 -35 22 -26 10 6 8 13 -8 32 l-20 24 6 -30z"/>
<path d="M8044 600 c-12 -5 -25 -14 -29 -20 -5 -8 -11 -8 -21 1 -24 19 -27 4
-12 -57 16 -64 38 -84 38 -35 0 51 17 81 50 87 16 4 30 13 30 20 0 16 -24 17
-56 4z"/>
<path d="M7872 576 c-19 -25 -20 -25 -37 -6 -22 24 -80 27 -89 5 -3 -8 -1 -59
4 -113 5 -53 10 -103 10 -109 0 -7 7 -13 16 -13 14 0 16 8 10 60 -6 47 -4 60
7 60 7 0 23 10 36 21 22 21 23 21 37 1 25 -36 104 -40 104 -6 0 11 -6 13 -20
9 -27 -9 -60 3 -60 21 0 8 8 14 19 14 47 0 56 73 10 78 -19 2 -33 -4 -47 -22z
m58 -5 c0 -13 -29 -35 -37 -28 -7 8 15 37 28 37 5 0 9 -4 9 -9z m-109 -60 c-7
-11 -18 -21 -26 -21 -20 0 -30 47 -14 66 11 13 14 13 32 -4 16 -16 17 -23 8
-41z"/>
<path d="M6709 563 c-13 -39 -39 -44 -39 -8 0 34 -16 31 -29 -5 -6 -20 -17
-30 -30 -30 -11 0 -23 -4 -26 -10 -4 -6 5 -10 19 -10 34 0 34 -26 1 -34 -30
-8 -33 -26 -5 -26 17 0 19 -5 13 -31 -5 -24 -3 -31 8 -27 7 2 16 15 19 29 3
13 14 25 24 27 14 3 17 -2 14 -22 -4 -35 15 -32 25 4 6 23 13 30 32 30 14 0
25 5 25 10 0 6 -9 10 -20 10 -13 0 -20 7 -20 20 0 15 7 20 25 20 14 0 25 5 25
10 0 6 -10 10 -21 10 -16 0 -20 5 -16 19 2 10 1 25 -4 32 -6 10 -11 5 -20 -18z
m-19 -73 c0 -13 -7 -20 -20 -20 -25 0 -26 16 -2 29 23 14 22 14 22 -9z"/>
<path d="M7275 564 c-22 -22 -16 -44 19 -63 16 -9 28 -20 27 -24 0 -4 -1 -12
-1 -18 0 -7 -11 -9 -30 -5 -23 4 -30 2 -30 -10 0 -34 71 -29 90 6 14 26 -2 58
-36 70 -29 11 -31 30 -4 37 11 3 20 9 20 14 0 15 -38 10 -55 -7z"/>
<path d="M7397 563 c-13 -14 -17 -14 -17 -3 0 9 -3 10 -9 5 -12 -13 9 -127 23
-122 6 2 9 20 8 41 -3 30 2 41 28 66 31 29 32 30 8 30 -13 0 -31 -8 -41 -17z"/>
<path d="M7484 572 c-35 -23 -44 -90 -16 -115 62 -56 126 39 67 98 -26 27 -33
29 -51 17z m33 -34 c19 -25 22 -48 7 -62 -30 -31 -57 9 -38 58 7 19 18 20 31
4z"/>
<path d="M7570 548 c0 -56 11 -98 26 -98 9 0 14 12 14 33 0 54 17 66 25 18 9
-52 27 -49 38 7 9 46 27 48 27 2 0 -36 10 -61 21 -54 12 7 11 54 -2 93 -12 34
-42 42 -54 14 -6 -17 -7 -17 -21 2 -12 16 -18 17 -33 8 -14 -9 -21 -9 -30 0
-8 8 -11 2 -11 -25z"/>
<path d="M6876 562 c-2 -4 -7 -24 -11 -45 -7 -33 -25 -62 -25 -39 0 22 -31 82
-40 77 -5 -3 1 -34 15 -72 24 -67 40 -92 51 -80 5 5 34 139 34 160 0 9 -17 9
-24 -1z"/>
<path d="M7058 559 c-29 -16 -21 -45 18 -68 43 -25 40 -47 -5 -43 -35 2 -39
-13 -9 -32 24 -15 68 8 68 35 0 20 1 20 31 -6 28 -23 34 -24 53 -12 46 31 42
106 -9 129 -32 14 -52 -2 -61 -48 -3 -19 -10 -34 -15 -34 -5 0 -9 4 -9 8 0 5
-11 14 -25 20 -30 14 -32 32 -5 39 11 3 20 9 20 14 0 12 -31 11 -52 -2z m150
-31 c16 -16 15 -53 -3 -68 -21 -17 -35 -4 -35 34 0 45 14 58 38 34z"/>
<path d="M6934 535 c-20 -20 -25 -33 -22 -68 3 -38 6 -42 31 -45 18 -2 29 2
33 12 8 20 24 21 24 2 0 -16 18 -31 26 -23 5 5 -13 87 -27 125 -11 29 -34 28
-65 -3z m46 -9 c0 -22 -21 -76 -30 -76 -18 0 -20 20 -6 55 15 35 36 48 36 21z"/>
</g>
</svg>
