<?xml version="1.0" standalone="no"?>
<!DOCTYPE svg PUBLIC "-//W3C//DTD SVG 20010904//EN"
 "http://www.w3.org/TR/2001/REC-SVG-20010904/DTD/svg10.dtd">
<svg version="1.0" xmlns="http://www.w3.org/2000/svg"
 width="1600.000000pt" height="1200.000000pt" viewBox="0 0 1600.000000 1200.000000"
 preserveAspectRatio="xMidYMid meet">

<g transform="translate(0.000000,1200.000000) scale(0.100000,-0.100000)"
fill="#000000" stroke="none">
<path d="M3270 10056 c-52 -18 -156 -64 -231 -101 -117 -58 -147 -77 -205
-136 l-68 -69 -1 -67 c0 -38 3 -80 8 -95 5 -21 4 -28 -7 -28 -8 0 -28 -13 -45
-29 -28 -26 -31 -35 -31 -90 0 -74 23 -126 76 -169 59 -49 78 -49 169 -3 44
23 83 41 86 41 6 0 79 -161 79 -174 0 -3 24 -56 54 -118 105 -221 105 -221 90
-256 -7 -18 -26 -51 -42 -75 -84 -121 -104 -180 -103 -308 1 -121 19 -184 105
-362 129 -265 142 -307 121 -368 -8 -22 -21 -47 -30 -55 -8 -9 -15 -22 -15
-30 0 -8 -15 -29 -32 -45 -18 -17 -67 -65 -110 -106 -160 -156 -201 -311 -149
-556 19 -91 41 -151 112 -302 15 -33 44 -105 64 -160 21 -55 48 -120 60 -145
27 -55 165 -460 165 -486 0 -10 16 -64 35 -118 19 -55 34 -100 32 -101 -1 -1
-26 -15 -55 -30 -30 -16 -67 -46 -84 -68 -40 -49 -86 -163 -103 -252 -51 -265
-56 -1090 -9 -1440 31 -228 31 -218 -10 -267 -50 -58 -104 -169 -117 -243 -6
-33 -9 -107 -7 -165 6 -156 42 -210 138 -210 l39 0 22 -75 c16 -54 31 -84 56
-109 39 -39 106 -61 157 -52 39 7 83 52 92 94 3 15 7 38 10 51 4 21 7 22 22 8
59 -51 126 -60 165 -21 51 50 59 137 21 212 -9 18 -14 36 -11 38 3 3 22 1 44
-5 80 -23 140 -5 169 50 32 62 20 113 -36 155 -21 16 -59 61 -84 99 -142 220
-210 288 -279 283 -27 -2 -41 2 -48 14 -5 9 -12 222 -15 474 -7 474 -1 595 32
697 16 50 53 84 79 74 8 -4 18 0 23 8 5 11 18 -13 41 -77 19 -51 54 -140 79
-198 25 -58 64 -157 88 -220 24 -63 75 -198 114 -300 39 -102 85 -223 102
-270 16 -47 37 -97 44 -112 8 -15 41 -96 73 -180 132 -345 237 -507 396 -611
81 -53 115 -59 305 -58 l175 1 12 -51 c7 -28 24 -75 37 -105 l25 -54 -40 -27
c-56 -40 -83 -100 -76 -172 8 -88 53 -174 105 -197 2 -1 -6 -19 -17 -40 -12
-21 -21 -44 -21 -51 0 -24 -15 -13 -39 29 -13 22 -41 60 -63 84 -46 49 -179
138 -240 160 -52 18 -170 18 -234 0 -27 -8 -74 -17 -104 -20 -71 -7 -209 -56
-260 -91 -52 -36 -120 -110 -153 -165 -36 -61 -92 -220 -112 -314 -20 -98 -20
-307 -1 -397 18 -82 42 -131 103 -206 55 -69 67 -81 113 -113 19 -13 37 -27
40 -31 9 -11 64 -37 176 -81 l109 -43 145 0 c131 0 149 2 187 23 23 12 48 22
54 22 7 0 35 -19 63 -43 123 -104 126 -104 238 15 l87 93 28 -18 c59 -38 133
-68 248 -98 164 -44 279 -45 380 -4 55 23 84 43 136 96 l67 68 6 -34 c9 -47
48 -90 100 -110 40 -15 49 -16 98 -2 97 28 321 66 446 77 68 5 133 15 144 21
31 17 48 71 54 182 9 139 1 186 -40 233 -31 36 -36 38 -103 42 -59 3 -78 0
-127 -22 -31 -14 -65 -26 -75 -26 -21 0 -41 39 -41 82 l0 31 57 -6 c122 -13
148 24 148 209 0 108 -2 125 -20 144 -31 35 -94 60 -152 60 l-53 0 0 34 c0 19
6 38 13 43 6 4 86 8 177 8 175 0 202 6 217 50 4 11 6 76 4 145 -4 194 -23 217
-169 204 l-84 -7 61 73 c33 40 70 93 82 117 19 40 21 50 10 80 -13 34 -12 35
42 86 64 60 83 111 72 191 -9 69 -26 106 -72 154 -37 39 -43 42 -95 42 l-56 0
-9 37 c-16 67 -80 81 -137 30 -16 -14 -27 -34 -28 -54 -3 -38 -1 -37 -53 -18
-22 8 -59 14 -82 15 -30 0 -55 9 -85 29 -106 71 -178 112 -209 121 -71 21 -98
7 -64 -31 12 -13 14 -29 9 -68 -8 -65 -24 -56 -24 15 0 83 -19 64 -22 -23 -3
-65 -6 -78 -21 -81 -16 -3 -17 4 -15 74 2 52 -1 78 -9 81 -7 3 -13 -19 -18
-64 -9 -98 -19 -108 -25 -28 -6 77 -17 75 -27 -5 -7 -59 -23 -67 -23 -11 0 48
-17 63 -26 24 -3 -15 -8 -35 -11 -43 -5 -13 -7 -12 -10 2 -6 24 -33 32 -33 9
0 -16 -13 -20 -87 -30 -95 -12 -114 -22 -96 -49 8 -14 23 -17 74 -15 78 3 261
-13 310 -27 44 -12 97 -64 133 -130 l27 -50 -25 -31 c-26 -30 -31 -55 -27
-114 4 -50 30 -91 73 -115 35 -20 56 -23 143 -24 l103 -1 -6 -57 c-3 -43 -1
-64 12 -82 9 -14 16 -27 16 -30 0 -3 -69 -6 -154 -8 l-155 -3 -30 -29 c-37
-36 -55 -86 -47 -132 4 -19 4 -34 1 -34 -9 0 -90 61 -90 68 1 4 7 27 14 52 18
61 7 170 -23 236 -31 67 -94 127 -167 162 l-58 27 5 55 c7 65 -5 103 -41 126
-25 16 -28 16 -61 0 -46 -21 -63 -63 -71 -176 l-6 -90 -32 0 c-18 0 -46 5 -63
11 -31 11 -41 27 -107 179 -36 82 -62 120 -82 120 -8 0 -17 -9 -20 -19 -4 -17
-12 -19 -57 -15 -60 6 -45 -10 21 -21 23 -3 44 -12 46 -20 4 -9 -19 -5 -79 13
-122 37 -130 9 -11 -38 63 -25 74 -36 25 -24 -18 4 -126 7 -241 5 -227 -3
-250 1 -332 54 -101 66 -165 146 -251 317 -37 73 -120 274 -126 303 -2 11 25
28 92 59 52 23 120 55 150 70 30 15 78 36 105 46 93 33 309 131 420 190 268
142 331 171 520 245 61 23 126 52 146 64 20 12 78 38 130 59 52 21 137 63 189
94 52 31 120 66 151 78 32 11 84 38 117 60 78 50 213 113 223 103 4 -5 26 -53
49 -108 69 -167 68 -146 17 -222 -107 -162 -120 -214 -115 -437 4 -155 7 -177
30 -233 l25 -62 -56 -11 c-64 -13 -220 -85 -228 -106 -6 -18 14 -44 34 -44 8
0 52 18 96 39 45 22 97 45 115 52 17 6 32 15 32 20 0 21 31 6 45 -22 26 -50
155 -179 230 -229 39 -25 90 -60 115 -78 189 -129 462 -119 717 25 177 100
358 338 399 522 14 62 15 84 5 140 -7 36 -18 107 -26 156 -22 147 -60 229
-148 322 -86 92 -276 191 -427 223 -127 28 -307 20 -420 -17 -94 -31 -217 -84
-269 -118 -22 -14 -44 -25 -48 -25 -5 0 -21 33 -37 73 -16 39 -53 125 -83 190
-59 126 -146 367 -194 537 -17 58 -48 142 -69 187 -39 81 -74 183 -66 190 2 3
21 -7 43 -21 21 -14 81 -42 133 -63 94 -37 96 -37 240 -38 138 0 147 1 195 27
90 48 132 93 184 197 69 139 87 214 126 527 l6 51 82 -1 c78 -1 87 1 169 42
115 57 168 112 205 210 8 21 12 19 88 -49 89 -79 140 -109 183 -109 38 0 99
42 162 113 35 38 60 57 75 57 13 0 35 4 49 10 32 12 35 49 6 75 -13 12 -20 31
-20 57 0 37 1 38 35 38 38 0 75 28 75 58 0 49 -59 97 -175 143 l-30 12 55 9
c101 15 190 64 190 103 0 33 -27 48 -135 76 l-89 23 59 12 c109 23 155 49 155
89 0 32 -27 51 -105 72 l-70 20 75 16 c41 8 92 18 112 22 44 7 64 33 45 59 -7
9 -82 41 -167 71 -125 44 -150 56 -130 61 13 4 56 24 95 43 53 27 72 43 80 65
8 24 6 31 -14 47 -19 16 -40 19 -127 19 -57 0 -104 4 -104 9 0 5 21 17 48 27
126 46 134 51 130 86 -3 30 -8 35 -65 58 -34 14 -65 28 -69 32 -10 11 14 36
73 74 44 28 53 39 53 63 0 30 -23 61 -69 91 l-23 16 21 34 c26 44 28 111 3
133 -16 15 -19 15 -29 -1 -6 -10 -14 -33 -18 -51 -4 -18 -23 -51 -42 -72 -48
-53 -43 -77 25 -108 28 -14 52 -28 52 -33 0 -4 -13 -14 -28 -22 -36 -18 -100
-88 -113 -123 -12 -33 0 -47 66 -72 l48 -18 -56 -26 c-120 -55 -170 -105 -134
-135 15 -13 120 -31 197 -34 l55 -3 -98 -39 c-110 -43 -129 -58 -125 -95 3
-29 15 -34 118 -49 36 -5 92 -20 125 -33 60 -22 60 -22 30 -32 -16 -5 -104
-11 -195 -14 -91 -3 -171 -10 -177 -15 -7 -6 -13 -19 -13 -29 0 -20 5 -22 115
-39 39 -6 122 -26 185 -44 l115 -34 -40 -11 c-22 -5 -96 -18 -165 -26 -69 -9
-131 -22 -138 -27 -7 -6 -12 -23 -10 -37 3 -22 9 -27 53 -34 73 -11 288 -58
299 -65 21 -12 -72 -32 -178 -38 -112 -6 -156 -20 -156 -49 0 -23 35 -40 174
-89 71 -24 136 -52 145 -60 14 -15 11 -16 -37 -16 -29 0 -52 4 -52 9 0 5 -51
30 -112 56 -195 82 -240 105 -264 130 -13 14 -32 25 -44 25 -11 0 -39 9 -61
20 l-39 21 6 64 c8 81 -9 146 -48 186 -25 24 -38 29 -78 29 -40 0 -52 4 -68
25 -21 26 -78 55 -110 55 -57 0 -121 -32 -179 -89 -34 -32 -71 -62 -84 -66
-73 -20 -79 -25 -79 -69 0 -22 7 -50 15 -60 8 -10 11 -24 8 -30 -4 -5 -14 -42
-23 -81 l-16 -70 -61 3 c-59 4 -61 3 -86 -30 -50 -65 -88 -394 -54 -456 13
-23 93 -82 112 -82 6 0 18 -7 28 -15 17 -12 18 -21 8 -112 -7 -54 -16 -138
-22 -188 -13 -117 -52 -238 -86 -265 -35 -28 -99 -26 -168 5 -39 17 -85 52
-149 114 -137 132 -254 176 -326 122 l-29 -21 -13 22 c-7 13 -30 68 -52 123
-30 74 -39 112 -38 148 2 41 -1 49 -21 56 -17 7 -30 34 -61 122 -59 175 -104
294 -151 404 -24 55 -71 176 -105 269 -34 93 -80 207 -102 255 -22 47 -55 127
-73 177 -18 50 -45 114 -59 142 -14 28 -26 68 -26 88 0 23 -15 65 -41 115
-104 200 -204 248 -517 249 -116 0 -172 4 -196 14 -64 27 -176 221 -268 466
-47 125 -109 259 -138 300 -12 17 -45 43 -73 58 -48 25 -60 27 -165 25 l-112
-2 -34 67 c-18 37 -41 92 -51 122 -21 65 -31 89 -102 237 -29 62 -53 117 -53
123 0 6 12 15 27 21 15 6 41 16 58 24 16 7 57 25 90 39 66 30 75 39 75 77 0
32 -60 153 -95 193 -33 37 -91 46 -134 20 l-30 -18 -43 46 c-72 77 -147 86
-298 34z m311 -498 c9 -24 37 -88 61 -143 25 -55 53 -125 63 -155 20 -64 104
-240 113 -240 151 -7 255 -21 289 -38 50 -26 78 -77 179 -329 42 -103 78 -194
81 -200 4 -10 -11 -13 -56 -13 -84 0 -161 -31 -256 -103 -50 -38 -99 -66 -130
-75 -74 -20 -235 -27 -319 -12 -86 15 -240 84 -299 135 -38 33 -46 36 -89 32
-47 -4 -48 -3 -48 24 0 38 31 115 73 180 54 85 81 154 73 191 -4 18 -40 102
-80 188 -87 182 -156 336 -156 349 0 5 8 12 17 15 23 9 45 -22 77 -104 33 -86
104 -248 150 -338 27 -53 42 -72 54 -70 9 2 18 12 20 22 4 19 -35 115 -51 127
-4 3 -50 91 -102 195 -86 172 -93 190 -78 202 10 7 22 11 27 9 6 -2 54 -100
107 -218 133 -298 131 -294 154 -294 11 0 21 7 23 17 2 9 -54 129 -124 268
-120 238 -125 252 -108 265 11 8 23 13 27 12 5 -2 35 -66 66 -143 81 -199 182
-388 210 -392 34 -5 26 24 -39 142 -34 60 -94 175 -135 257 l-75 149 31 16
c17 8 35 12 39 7 4 -4 22 -46 40 -93 18 -47 45 -113 61 -148 16 -35 29 -66 29
-68 0 -11 72 -157 95 -194 24 -37 65 -56 65 -29 0 5 -58 129 -130 273 -71 145
-130 268 -130 273 0 9 70 47 75 41 1 -2 24 -61 50 -133 27 -71 70 -176 96
-232 48 -102 77 -135 98 -110 8 10 -17 71 -99 246 -61 128 -110 236 -110 241
0 7 39 38 50 39 3 1 12 -18 21 -41z m844 -1224 c142 -196 125 -187 385 -195
218 -6 278 -18 349 -68 46 -33 116 -148 140 -229 12 -39 33 -94 46 -121 14
-27 41 -95 61 -152 19 -56 48 -128 64 -158 15 -31 58 -139 95 -241 38 -102 83
-221 102 -265 58 -136 134 -347 131 -362 -2 -9 -30 -25 -63 -38 -33 -12 -94
-38 -135 -58 -41 -19 -86 -38 -100 -42 -14 -4 -62 -25 -107 -47 -87 -41 -102
-60 -89 -113 6 -22 1 -27 -42 -49 -27 -14 -80 -36 -118 -49 -38 -14 -134 -55
-214 -92 -286 -133 -561 -254 -795 -351 -99 -41 -218 -93 -265 -114 -73 -34
-237 -99 -292 -117 -12 -4 -18 0 -18 11 0 10 -18 61 -40 114 -21 53 -51 145
-65 203 -14 58 -37 135 -51 170 -14 35 -37 100 -51 144 -14 43 -47 129 -73
190 -26 60 -53 128 -60 150 -7 22 -39 99 -72 170 -70 154 -96 246 -105 375
-11 170 30 255 205 430 104 104 144 164 158 237 9 48 -27 156 -113 333 -128
264 -141 319 -84 349 27 15 74 -27 158 -141 89 -121 166 -173 281 -189 81 -12
170 3 223 36 21 14 63 56 94 95 82 103 196 189 280 211 17 5 59 7 95 5 58 -4
67 -7 85 -32z m-935 -119 c28 -15 67 -71 57 -82 -8 -7 -62 35 -86 68 -24 32
-15 37 29 14z m130 -67 c31 -37 32 -40 10 -28 -30 15 -70 50 -70 62 0 19 27 3
60 -34z m160 0 c11 -12 20 -28 20 -35 0 -16 -16 -9 -69 31 l-35 26 32 0 c19 0
39 -8 52 -22z m80 -8 c0 -5 -7 -10 -15 -10 -8 0 -15 5 -15 10 0 6 7 10 15 10
8 0 15 -4 15 -10z m3441 -790 c29 -16 23 -38 -20 -85 -67 -73 -171 -322 -171
-410 0 -19 -4 -36 -8 -39 -5 -3 -25 17 -45 43 -19 27 -50 55 -66 62 -17 8 -31
16 -31 19 0 3 9 38 20 78 61 221 220 385 321 332z m170 -79 c19 -16 24 -30 27
-90 2 -39 0 -71 -4 -71 -26 0 -177 56 -181 68 -7 17 73 100 101 105 12 2 24 5
27 6 4 0 17 -7 30 -18z m-141 -172 c22 -12 40 -22 40 -23 0 -1 -9 -19 -20 -41
-11 -22 -20 -55 -20 -74 l0 -36 -51 51 -51 51 22 46 c12 26 26 47 31 47 5 0
27 -9 49 -21z m185 -80 c33 -18 62 -33 64 -35 2 -2 -6 -26 -18 -55 -14 -32
-22 -71 -22 -106 0 -45 -3 -54 -16 -49 -22 9 -161 119 -166 132 -9 19 12 107
30 126 23 26 60 22 128 -13z m-220 -140 c75 -76 79 -82 60 -93 -75 -43 -147
-163 -129 -214 15 -42 53 -63 117 -63 65 -1 107 19 107 52 0 26 -24 34 -60 19
-38 -16 -100 -5 -100 17 0 31 51 104 91 129 l40 25 41 -36 c23 -19 45 -35 48
-35 13 0 30 -51 30 -88 0 -71 -56 -133 -168 -189 -68 -34 -84 -38 -141 -35
-61 2 -67 4 -94 37 -15 19 -37 35 -48 35 -11 0 -37 9 -59 20 -50 26 -100 26
-133 -1 -29 -22 -42 -19 -104 28 -32 23 -33 26 -33 97 0 75 22 224 41 285 11
31 13 33 47 27 73 -11 134 -52 182 -120 25 -36 45 -75 45 -88 0 -21 -4 -23
-50 -23 l-50 0 -26 53 c-24 51 -53 81 -66 68 -4 -3 -6 -25 -6 -48 0 -49 33
-122 62 -138 30 -16 153 -13 178 5 26 18 49 90 58 180 7 82 26 175 34 175 3 0
42 -37 86 -81z m374 57 c18 -13 45 -30 61 -36 l29 -12 -30 -38 c-36 -45 -59
-115 -59 -184 l-1 -51 -20 25 c-12 14 -35 41 -52 60 -29 31 -31 39 -29 93 3
58 42 167 60 167 4 0 23 -11 41 -24z m218 -101 c31 -14 59 -27 61 -30 2 -2 -6
-13 -18 -25 -11 -11 -18 -25 -15 -30 3 -5 -12 -32 -33 -59 -36 -45 -69 -105
-85 -153 -9 -25 -16 -23 -59 16 -35 32 -38 38 -38 91 0 72 23 143 60 183 35
39 53 39 127 7z m188 -105 c3 -5 1 -10 -4 -10 -6 0 -11 5 -11 10 0 6 2 10 4
10 3 0 8 -4 11 -10z m-55 -78 c0 -15 -2 -15 -10 -2 -13 20 -13 33 0 25 6 -3
10 -14 10 -23z m35 -12 c3 -5 1 -10 -4 -10 -6 0 -11 5 -11 10 0 6 2 10 4 10 3
0 8 -4 11 -10z m-158 -87 c-3 -10 -5 -4 -5 12 0 17 2 24 5 18 2 -7 2 -21 0
-30z m107 28 c3 -5 -1 -14 -9 -21 -13 -10 -15 -9 -15 9 0 21 14 28 24 12z
m-67 -73 c-3 -7 -5 -2 -5 12 0 14 2 19 5 13 2 -7 2 -19 0 -25z m-49 -13 c12
-25 1 -42 -18 -30 -12 7 -13 55 -2 55 5 0 14 -11 20 -25z m-2038 -82 c14 -41
16 -54 6 -62 -18 -15 -135 -63 -302 -125 l-142 -53 -21 44 c-11 24 -21 46 -21
48 0 6 89 47 165 76 28 11 100 44 160 74 61 30 116 54 123 52 8 -1 22 -25 32
-54z m40 -140 c0 -17 -56 -113 -69 -118 -22 -9 -24 1 -5 37 34 66 74 110 74
81z m20 -52 c0 -19 -26 -48 -36 -39 -7 7 17 58 28 58 4 0 8 -8 8 -19z m-156
-13 c-5 -7 -21 -31 -36 -52 -15 -21 -28 -45 -28 -51 0 -7 -7 -15 -15 -19 -31
-11 -18 21 42 102 23 30 53 47 37 20z m-85 -53 c-38 -53 -46 -57 -23 -12 21
41 34 57 46 57 5 0 -5 -20 -23 -45z m-71 -46 c-18 -30 -34 -56 -35 -58 -2 -2
-5 -2 -8 1 -5 5 14 44 53 108 9 13 17 20 19 14 2 -6 -11 -36 -29 -65z m182 42
c0 -18 -27 -37 -38 -26 -5 4 26 45 35 45 1 0 3 -9 3 -19z m-409 -56 c44 -90
86 -136 124 -137 37 -1 176 48 315 113 58 26 114 49 125 51 25 4 62 -69 106
-207 18 -55 42 -125 54 -155 13 -30 38 -93 55 -140 18 -47 55 -134 82 -195 27
-60 58 -147 69 -192 11 -45 26 -101 35 -125 9 -24 26 -80 40 -125 13 -46 40
-124 60 -174 20 -50 34 -92 32 -94 -1 -1 -41 -19 -88 -39 -47 -20 -107 -51
-135 -70 -27 -18 -75 -41 -105 -51 -30 -10 -94 -42 -142 -71 -48 -28 -123 -66
-165 -84 -43 -18 -105 -46 -138 -62 -33 -16 -109 -49 -170 -73 -153 -61 -302
-127 -377 -168 -163 -89 -280 -149 -358 -183 -47 -20 -103 -44 -125 -54 -22
-10 -51 -21 -65 -25 -14 -4 -101 -43 -194 -86 -93 -44 -172 -79 -176 -79 -8 0
-35 62 -101 235 -23 61 -66 171 -96 245 -30 74 -72 180 -93 235 -21 55 -57
143 -81 195 -70 157 -279 758 -279 802 0 16 50 40 170 84 41 15 100 39 131 55
30 15 93 43 140 62 338 139 503 212 814 357 121 56 265 121 320 144 55 23 112
49 125 59 42 29 56 22 91 -48z m187 48 c-28 -60 -54 -103 -61 -103 -5 0 -6 8
-2 18 4 9 12 31 18 47 10 29 24 45 40 45 5 0 7 -3 5 -7z m-74 -35 c-8 -28 -12
-33 -20 -25 -9 8 6 47 17 47 6 0 7 -10 3 -22z m-1823 -2615 c48 -51 86 -103
142 -194 26 -42 67 -95 92 -118 47 -44 54 -65 31 -97 -14 -19 -16 -19 -86 0
-44 11 -85 15 -106 12 -31 -6 -34 -10 -34 -43 0 -20 12 -65 26 -100 26 -67 26
-111 -1 -133 -28 -23 -117 52 -194 163 -57 83 -97 40 -45 -49 23 -39 27 -56
25 -111 -4 -97 -12 -113 -59 -113 -91 0 -134 91 -138 292 -1 70 -5 132 -9 137
-23 38 -56 -22 -64 -117 l-6 -77 -31 -3 c-25 -2 -33 2 -44 25 -18 38 -25 208
-11 274 13 62 79 199 95 199 6 -1 20 -15 31 -33 38 -60 132 -84 198 -51 67 34
107 88 107 144 0 44 36 41 81 -7z m2464 -203 c0 -7 -6 -15 -12 -17 -8 -3 -13
4 -13 17 0 13 5 20 13 18 6 -3 12 -11 12 -18z m135 -72 c45 -30 50 -37 50 -70
0 -39 15 -60 61 -84 l30 -15 -19 -27 c-22 -31 -36 -92 -22 -92 6 0 27 15 48
34 42 38 94 52 134 37 15 -5 43 -7 62 -4 31 5 42 15 76 70 48 75 79 94 118 72
58 -32 96 -141 72 -204 l-10 -27 -29 31 c-43 45 -90 43 -205 -13 -67 -32 -111
-62 -166 -114 -41 -38 -72 -73 -68 -77 14 -14 54 5 119 58 69 56 211 121 252
115 26 -4 35 -41 16 -64 -10 -12 -27 -14 -83 -9 -68 6 -73 5 -118 -25 -26 -17
-60 -46 -74 -63 l-27 -32 -123 -3 c-121 -4 -124 -3 -149 22 -36 36 -34 88 5
133 17 18 30 39 30 46 -1 17 -70 138 -101 174 -14 17 -37 38 -52 48 l-27 17
66 49 c37 27 71 49 75 49 5 0 32 -15 59 -32z m390 -7 c0 -41 -11 -91 -21 -91
-14 0 -22 89 -9 105 19 23 30 18 30 -14z m-135 -89 c12 -9 27 -25 34 -34 22
-29 -15 -23 -44 7 -40 39 -31 62 10 27z m-835 -232 c0 -36 -22 -120 -30 -115
-8 5 -5 61 6 113 5 27 24 29 24 2z m-480 -24 l34 -13 -33 -6 c-52 -11 -61 -9
-61 13 0 23 10 24 60 6z m149 -90 c5 -13 7 -41 4 -62 -4 -33 -1 -44 21 -66 35
-35 101 -65 183 -84 86 -20 117 -13 110 24 -4 18 3 44 21 79 22 43 32 53 52
53 49 0 122 -60 162 -134 24 -43 25 -198 2 -217 -14 -12 -308 -23 -522 -19
-41 1 -82 -6 -121 -20 -32 -12 -69 -20 -82 -18 -33 4 -63 68 -64 136 0 52 1
54 58 106 31 29 57 59 57 67 0 8 -16 47 -35 86 -19 40 -35 77 -35 83 0 6 35
10 90 10 86 0 91 -1 99 -24z m1368 -60 c14 -14 -12 -60 -65 -115 -50 -54 -62
-61 -95 -61 -23 0 -40 5 -43 14 -13 34 66 159 110 175 19 8 81 -1 93 -13z
m113 -442 l0 -94 -162 3 c-142 2 -167 0 -196 -16 -47 -25 -62 -69 -62 -174 0
-132 22 -151 134 -121 35 9 51 9 71 0 25 -12 26 -14 23 -94 l-3 -83 -60 2
c-122 5 -150 -24 -143 -149 8 -164 106 -228 246 -163 69 32 117 33 133 3 11
-21 7 -214 -6 -226 -2 -3 -53 -9 -112 -13 -60 -5 -188 -25 -286 -45 -97 -20
-184 -33 -193 -30 -8 3 -21 21 -29 40 -8 19 -31 48 -51 64 -20 17 -33 35 -30
41 4 5 16 59 27 118 28 155 41 417 36 729 -4 194 -2 275 6 283 7 7 65 11 161
12 83 1 223 4 311 8 88 3 166 4 173 2 8 -2 12 -30 12 -97z m-2095 46 c64 -27
180 -106 211 -143 38 -46 92 -158 113 -239 11 -40 29 -152 41 -249 22 -185 21
-207 -17 -321 -20 -62 -12 -88 42 -144 25 -25 45 -50 45 -55 0 -6 -28 -39 -62
-75 -34 -35 -66 -71 -71 -79 -14 -26 -40 -16 -102 40 -70 64 -95 68 -177 31
-65 -30 -172 -41 -256 -27 -93 15 -249 78 -310 124 -62 47 -121 112 -155 170
-67 115 -71 363 -7 557 45 139 82 210 142 271 47 47 71 62 149 93 92 35 228
63 321 65 26 1 67 -8 93 -19z m968 -44 c52 -1 54 -4 32 -46 -42 -81 -50 -154
-50 -452 l0 -287 -28 -28 c-68 -68 -99 37 -116 392 -10 199 -19 266 -48 358
-24 75 -17 81 80 72 45 -5 103 -9 130 -9z m-311 -83 c29 -86 39 -169 48 -388
12 -304 44 -421 126 -460 47 -22 96 -13 151 28 77 59 78 62 78 402 0 285 1
303 23 367 14 41 31 72 43 78 47 26 155 -47 185 -126 15 -40 16 -72 10 -297
-8 -320 -37 -532 -86 -626 -26 -51 -77 -96 -135 -121 -44 -19 -63 -21 -150
-17 -109 5 -227 33 -314 72 -59 28 -71 39 -71 70 0 11 -28 48 -62 82 l-62 62
17 55 c27 85 31 169 13 298 -23 161 -16 420 13 475 31 62 87 105 131 100 21
-2 28 -11 42 -54z"/>
<path d="M3790 8627 c-38 -20 -62 -62 -68 -118 -6 -61 9 -79 66 -79 25 0 43 9
68 34 37 37 40 56 22 116 -15 46 -51 66 -88 47z m40 -98 c0 -11 -29 -39 -41
-39 -12 0 -11 27 2 51 8 16 13 18 25 8 8 -6 14 -15 14 -20z"/>
<path d="M3353 8571 c-50 -42 -35 -135 29 -184 96 -73 200 -91 262 -43 68 52
48 93 -94 189 -73 49 -92 57 -130 57 -28 -1 -53 -7 -67 -19z m167 -104 c80
-52 94 -70 64 -81 -28 -11 -48 -7 -111 23 -68 33 -96 64 -86 99 8 32 35 24
133 -41z"/>
<path d="M4259 8220 c-91 -48 -151 -147 -175 -288 -8 -48 -27 -112 -42 -142
-23 -47 -35 -59 -82 -83 -30 -15 -61 -25 -70 -22 -8 3 -2 -6 13 -20 54 -48
126 -21 184 70 17 28 47 66 66 85 20 19 50 62 68 95 41 77 86 142 103 152 8 4
30 23 50 41 29 26 44 32 80 32 26 0 48 6 56 15 13 16 6 35 -14 35 -8 0 -39 11
-70 25 -67 30 -118 31 -167 5z m58 -59 c10 -16 5 -23 -32 -54 -24 -20 -63 -66
-86 -102 -23 -36 -44 -64 -46 -62 -2 2 6 34 17 71 16 52 32 79 69 117 52 54
61 58 78 30z"/>
<path d="M3260 8184 c17 -15 47 -58 66 -95 104 -207 200 -299 314 -299 72 0
120 22 120 55 l0 26 -80 -7 -81 -7 -54 38 c-42 29 -73 64 -134 154 -58 86 -89
122 -119 139 -54 30 -71 28 -32 -4z"/>
<path d="M4794 7964 c-60 -30 -84 -114 -43 -155 17 -17 30 -20 69 -17 27 3 61
15 79 27 28 20 31 28 31 72 0 72 -12 89 -63 89 -23 0 -56 -7 -73 -16z m76 -68
c0 -17 -9 -27 -29 -36 -49 -20 -67 4 -31 40 28 28 60 26 60 -4z"/>
<path d="M3682 7730 c-47 -20 -49 -108 -2 -158 46 -49 137 -70 188 -43 57 30
22 137 -58 177 -57 28 -99 36 -128 24z m126 -106 c12 -14 22 -30 22 -36 0 -16
-69 -2 -92 19 -22 19 -38 54 -32 65 7 12 78 -22 102 -48z"/>
<path d="M4960 7712 c-48 -24 -70 -68 -77 -151 -9 -110 19 -125 127 -71 32 16
84 33 114 36 53 6 59 5 126 -36 58 -35 73 -40 85 -30 39 32 -10 136 -90 192
-104 74 -213 97 -285 60z m120 -108 c0 -12 -48 -29 -57 -20 -2 2 3 19 13 37
16 31 17 32 30 14 8 -10 14 -24 14 -31z m30 36 c0 -5 -4 -10 -10 -10 -5 0 -10
5 -10 10 0 6 5 10 10 10 6 0 10 -4 10 -10z m-137 -47 c-6 -52 -10 -60 -19 -50
-9 9 6 97 16 97 6 0 7 -21 3 -47z m181 31 c24 -9 19 -24 -9 -24 -18 0 -23 4
-19 15 7 17 7 17 28 9z"/>
<path d="M4541 7688 c-26 -9 -56 -33 -113 -93 -68 -69 -121 -204 -135 -341 -8
-84 2 -130 33 -150 23 -15 26 -15 44 1 10 9 22 30 25 46 7 29 90 148 128 181
31 27 137 76 194 88 26 6 59 18 72 27 22 14 23 19 19 103 -2 52 -9 95 -17 104
-15 18 -66 22 -76 6 -5 -8 -11 -8 -19 -1 -7 6 -15 8 -19 5 -3 -3 -16 0 -28 7
-37 19 -83 27 -108 17z m33 -105 c-5 -21 -9 -61 -9 -90 0 -44 -4 -54 -22 -62
-11 -5 -23 -8 -25 -5 -10 9 22 178 34 185 25 16 30 9 22 -28z m64 5 c13 -13
16 -75 6 -102 -3 -9 -15 -16 -25 -16 -21 0 -24 24 -13 93 7 39 13 44 32 25z
m-142 -35 c-2 -10 -7 -31 -10 -48 -18 -105 -29 -144 -39 -148 -19 -7 -4 156
17 188 19 29 40 34 32 8z m244 -27 c0 -26 -34 -46 -51 -29 -13 13 -1 41 19 46
30 8 32 7 32 -17z m-337 -158 c-5 -58 -25 -118 -40 -118 -3 0 -3 17 0 38 7 43
36 142 41 142 2 0 2 -28 -1 -62z"/>
<path d="M5005 7425 c-47 -25 -73 -54 -92 -102 -16 -40 -20 -43 -43 -36 -14 4
-57 8 -97 8 -68 0 -75 -3 -130 -41 -103 -73 -145 -202 -125 -388 17 -151 62
-228 205 -353 96 -83 188 -104 274 -62 43 21 123 101 123 124 0 9 17 11 65 7
58 -4 72 -2 128 26 109 54 134 118 124 311 -11 212 -106 418 -223 487 -58 34
-163 44 -209 19z m184 -89 c45 -32 94 -101 121 -173 36 -97 42 -88 -68 -88
-53 0 -109 -3 -124 -8 -26 -7 -29 -4 -54 44 -14 28 -46 73 -70 100 -45 47 -45
48 -30 77 8 16 30 42 48 57 28 24 39 27 85 23 36 -3 65 -13 92 -32z m-342
-118 c35 -13 44 -28 17 -28 -33 0 -159 -76 -217 -132 -34 -31 -62 -56 -64 -54
-8 8 31 125 52 152 47 62 138 89 212 62z m101 -125 c3 -32 2 -33 -37 -33 -37
0 -41 -3 -41 -24 0 -14 11 -38 24 -53 23 -26 25 -26 19 -5 -3 12 -9 25 -14 28
-5 3 -9 12 -9 19 0 11 8 13 28 9 38 -8 56 15 49 61 -8 49 10 35 38 -29 56
-128 81 -402 42 -473 -25 -47 -80 -85 -131 -90 -39 -5 -45 -3 -65 25 -29 41
-27 60 7 68 52 11 81 26 87 45 7 22 -8 54 -30 63 -19 7 -21 66 -2 66 7 0 22
-7 33 -15 22 -17 50 -19 59 -5 3 5 -15 15 -40 21 -25 6 -45 15 -45 20 0 5 5 9
10 9 6 0 10 9 10 20 0 11 7 20 15 20 14 0 35 29 35 49 0 6 -4 11 -10 11 -5 0
-10 -8 -10 -19 0 -12 -9 -20 -24 -23 -35 -7 -48 4 -56 48 l-8 39 -1 -37 c-1
-26 6 -45 20 -59 21 -21 19 -48 -6 -69 -8 -7 -15 -23 -15 -36 0 -26 -4 -27
-35 -15 -11 5 -28 4 -38 -1 -25 -13 -30 -6 -17 27 16 42 2 43 -15 2 -19 -45
-27 -46 -42 -7 -7 20 -18 30 -32 30 -27 0 -36 -16 -12 -23 12 -3 21 -15 23
-33 3 -26 7 -29 47 -32 28 -2 49 2 60 12 17 15 61 12 61 -4 0 -5 9 -12 20 -15
44 -14 6 -65 -49 -65 -24 0 -43 -23 -45 -53 -1 -23 -3 -23 -51 17 -92 76 -128
126 -154 214 l-19 63 29 42 c15 23 37 53 47 66 l19 24 7 -27 c4 -15 20 -49 37
-76 31 -50 66 -69 108 -55 49 15 54 145 7 216 -14 21 -26 41 -26 44 0 13 67
35 100 32 32 -2 35 -5 38 -34z m361 -92 c14 -9 9 -41 -7 -41 -5 0 -15 7 -22
15 -7 8 -25 15 -40 15 -59 0 -91 -91 -55 -160 19 -37 85 -61 110 -40 25 20 27
6 4 -23 -18 -24 -25 -26 -60 -21 -23 4 -39 3 -39 -3 0 -5 18 -10 41 -11 34 -2
46 3 71 30 17 18 25 34 20 36 -6 2 -8 17 -5 36 3 18 1 48 -5 68 -7 27 -6 41 7
61 8 15 19 27 23 27 13 0 20 -70 16 -156 -5 -99 -20 -127 -89 -162 -70 -36
-139 -17 -139 39 0 35 -1 35 45 8 29 -17 33 -24 24 -35 -19 -23 -4 -26 16 -4
10 11 16 22 14 23 -2 2 -26 16 -52 31 -41 23 -48 32 -43 49 16 54 18 77 8 77
-6 0 -13 -8 -15 -17 -3 -10 -5 -2 -6 17 -1 19 -6 55 -12 79 -15 68 -12 71 88
71 48 0 94 -4 102 -9z"/>
<path d="M3590 7384 c-64 -66 -86 -74 -185 -74 -103 0 -146 -16 -169 -65 -20
-42 -19 -89 3 -139 l17 -39 17 53 c9 29 17 59 17 66 0 8 9 23 20 34 17 17 33
20 104 20 47 0 96 4 110 10 38 14 107 81 123 117 31 76 7 83 -57 17z"/>
<path d="M4023 6741 c-23 -15 -57 -40 -77 -54 -47 -36 -82 -34 -169 9 -90 46
-183 57 -238 29 -75 -39 -119 -89 -119 -136 0 -17 25 -8 49 17 14 14 47 37 74
50 61 31 100 27 207 -24 83 -39 154 -51 191 -32 46 25 219 151 219 160 0 6
-21 10 -47 9 -35 0 -60 -8 -90 -28z"/>
<path d="M4225 6659 c-116 -45 -149 -136 -79 -217 32 -38 40 -42 80 -42 38 0
49 5 84 41 40 42 46 60 41 129 -3 39 -33 95 -57 104 -9 3 -16 6 -17 5 -1 -1
-24 -10 -52 -20z m56 -78 c14 -49 0 -92 -37 -111 -21 -12 -27 -11 -49 10 -24
23 -33 64 -17 85 13 19 64 55 78 55 7 0 19 -18 25 -39z"/>
<path d="M5506 6614 c-9 -8 -16 -19 -16 -23 0 -4 -23 -30 -51 -59 l-51 -52
-66 0 c-53 0 -76 6 -111 25 -23 14 -47 25 -52 25 -5 0 -21 -24 -34 -52 -23
-48 -66 -103 -107 -136 -23 -19 -124 -35 -146 -23 -23 12 -42 -3 -42 -34 0
-33 40 -49 103 -42 100 10 182 68 231 165 9 17 18 32 20 32 2 0 23 -7 46 -15
54 -19 153 -19 188 -1 36 19 129 118 142 152 17 45 -21 72 -54 38z"/>
<path d="M3582 6579 c-45 -34 -51 -43 -42 -60 10 -18 13 -18 47 -4 20 9 43 21
51 28 8 6 36 12 61 12 37 0 46 4 49 19 6 27 -24 46 -72 46 -32 0 -52 -9 -94
-41z"/>
<path d="M3996 6475 c-9 -9 -21 -34 -28 -57 -15 -52 2 -85 56 -111 46 -22 71
-15 84 23 12 33 6 61 -22 110 -31 54 -60 65 -90 35z m54 -85 c16 -38 6 -50
-21 -24 -12 13 -17 27 -13 37 9 25 20 21 34 -13z"/>
<path d="M5075 5823 c-110 -24 -406 -112 -470 -138 -122 -51 -245 -155 -355
-300 -30 -38 -68 -88 -85 -110 -32 -39 -99 -164 -129 -237 -8 -21 -20 -38 -25
-38 -52 0 75 -113 184 -165 120 -56 126 -53 204 96 62 117 256 311 393 392
117 69 243 114 360 127 107 12 151 4 326 -65 62 -25 124 -45 137 -45 20 0 34
14 72 73 53 81 126 241 121 266 -2 9 -25 27 -52 40 -47 22 -249 75 -382 100
-58 11 -257 14 -299 4z m277 -74 c163 -32 211 -43 286 -66 49 -14 82 -30 82
-37 0 -38 -104 -226 -125 -226 -6 0 -56 18 -111 40 -150 60 -214 74 -314 66
-126 -9 -287 -64 -415 -141 -175 -105 -366 -307 -442 -469 -17 -36 -20 -38
-56 -33 -33 5 -105 41 -160 81 -16 13 -16 15 1 52 65 143 202 334 332 464 79
78 177 136 285 168 125 36 266 75 330 92 80 21 226 25 307 9z"/>
<path d="M3874 5314 c19 -77 27 -102 46 -132 22 -35 44 -38 47 -6 3 24 -67
156 -86 162 -11 4 -12 -2 -7 -24z"/>
<path d="M3690 5302 c0 -15 78 -224 130 -349 11 -26 45 -31 54 -7 10 26 6 77
-9 109 -11 24 -14 26 -14 10 -1 -11 -23 32 -50 95 -26 63 -53 125 -60 138 -14
27 -51 30 -51 4z"/>
<path d="M3796 5302 c-7 -12 45 -158 76 -214 41 -72 88 -38 49 36 -81 151
-113 197 -125 178z"/>
<path d="M5560 5096 c-25 -7 -79 -28 -120 -45 -41 -18 -136 -55 -210 -81 -145
-52 -327 -129 -537 -230 -115 -55 -133 -66 -133 -87 0 -27 71 -147 106 -180
22 -21 27 -21 67 -9 60 19 243 98 372 162 61 29 148 69 195 88 83 33 238 101
333 146 69 32 75 79 21 160 -18 27 -23 45 -18 64 7 30 -3 32 -76 12z m35 -112
c15 -25 23 -50 19 -54 -11 -9 -319 -146 -419 -185 -38 -16 -92 -40 -120 -56
-48 -26 -309 -140 -350 -153 -17 -5 -27 4 -52 46 l-32 52 27 16 c25 15 142 70
347 163 44 20 145 61 225 91 80 30 181 71 225 90 44 20 85 36 92 36 6 0 23
-21 38 -46z"/>
<path d="M5475 4726 c-22 -7 -123 -55 -225 -106 -102 -51 -221 -107 -265 -125
-97 -38 -165 -80 -165 -101 0 -15 30 -97 54 -144 10 -21 19 -25 57 -24 34 0
86 20 229 87 102 48 201 96 220 107 19 11 75 41 124 68 49 26 93 56 98 68 11
23 0 47 -47 113 -14 19 -25 42 -25 52 0 22 -1 22 -55 5z m-1 -64 c7 -12 -90
-157 -118 -176 -24 -15 -26 -15 -26 0 0 28 73 151 100 168 29 18 37 19 44 8z
m4 -81 c-27 -48 -46 -55 -22 -8 20 39 35 59 41 53 3 -2 -6 -23 -19 -45z m-134
2 c-22 -35 -64 -120 -64 -132 0 -11 -31 -24 -38 -16 -9 9 61 146 83 161 31 22
39 16 19 -13z m186 3 c0 -3 -4 -8 -10 -11 -5 -3 -10 -1 -10 4 0 6 5 11 10 11
6 0 10 -2 10 -4z m-295 -89 c-19 -35 -35 -70 -35 -78 0 -13 -59 -44 -67 -35
-9 8 68 145 89 160 44 31 48 17 13 -47z m-85 -1 c0 -2 -13 -30 -30 -61 -16
-31 -30 -63 -30 -71 0 -8 -7 -14 -15 -14 -8 0 -15 2 -15 4 0 9 53 122 62 134
10 11 28 17 28 8z m-120 -120 c-42 -88 -68 -91 -34 -3 23 58 55 99 62 78 2 -5
-11 -39 -28 -75z m-40 46 c0 -4 -4 -12 -9 -17 -4 -6 -16 -31 -26 -57 -17 -45
-35 -64 -35 -35 0 28 27 99 41 108 18 11 29 11 29 1z"/>
<path d="M4476 2074 c-65 -21 -142 -97 -187 -189 -32 -67 -34 -74 -34 -180 0
-106 1 -113 35 -179 43 -84 150 -190 208 -206 128 -34 200 -19 273 58 61 62
85 105 105 183 46 178 -55 436 -198 510 -45 23 -131 24 -202 3z m112 -90 c59
-9 103 -53 148 -147 69 -146 57 -283 -35 -377 -44 -47 -50 -50 -97 -50 -65 1
-120 27 -172 84 -69 75 -84 120 -80 234 3 93 5 100 43 162 43 70 97 114 130
106 11 -3 39 -8 63 -12z"/>
<path d="M10017 9513 c-18 -17 -2 -44 46 -82 58 -44 92 -52 102 -22 9 30 -2
45 -59 79 -54 32 -76 38 -89 25z"/>
<path d="M10216 9327 c-13 -10 -25 -64 -51 -233 -19 -121 -43 -265 -54 -320
-11 -54 -21 -115 -23 -134 -2 -26 -8 -35 -26 -40 -12 -3 -31 -20 -42 -37 -22
-37 -30 -39 -68 -19 -77 40 -102 101 -113 274 -8 138 1 270 24 338 22 68 104
104 155 68 46 -32 59 21 16 61 -33 31 -89 33 -143 5 -39 -19 -90 -71 -92 -93
-1 -7 -7 15 -13 47 -11 57 -35 90 -53 72 -9 -8 -6 -793 3 -807 3 -5 14 -9 25
-9 18 0 27 14 44 64 5 18 7 18 23 -5 22 -32 68 -71 101 -86 47 -22 87 -16 126
19 28 24 39 28 45 18 17 -28 38 -2 45 57 4 32 15 94 24 138 l16 80 70 0 70 0
17 -80 c10 -44 21 -102 26 -130 6 -43 11 -51 32 -53 30 -5 51 23 44 57 -5 24
-4 24 15 -6 40 -63 113 -80 171 -40 46 31 99 122 109 188 10 62 -2 200 -25
270 -17 53 -67 106 -109 115 -22 4 -40 -1 -68 -20 -64 -44 -107 -34 -107 26 0
101 96 166 176 119 64 -38 86 -8 34 46 -59 60 -141 52 -216 -21 -42 -42 -54
-60 -63 -103 -15 -75 -6 -110 39 -139 57 -38 98 -41 143 -10 21 14 44 26 51
26 58 0 99 -230 61 -341 -17 -49 -65 -109 -88 -109 -21 0 -42 28 -77 103 -26
56 -34 66 -46 56 -8 -6 -14 -18 -14 -27 0 -55 -35 70 -80 288 -17 80 -37 165
-45 190 -8 25 -19 64 -25 87 -12 49 -38 69 -64 50z m59 -327 c14 -62 25 -119
25 -127 0 -9 -15 -13 -50 -13 -47 0 -50 2 -46 23 3 12 13 70 22 130 9 59 19
106 20 104 2 -2 15 -55 29 -117z"/>
<path d="M11315 9320 c-16 -26 -17 -134 -2 -288 9 -92 21 -223 27 -292 6 -69
13 -137 16 -153 7 -35 35 -51 59 -33 17 12 17 18 2 102 -9 49 -19 132 -22 184
-4 52 -13 146 -21 209 -8 63 -13 116 -11 118 3 2 56 -50 144 -144 40 -42 79
-44 114 -5 14 15 50 65 80 111 l54 85 6 -60 c4 -32 10 -178 14 -323 3 -145 11
-274 16 -287 10 -27 40 -32 59 -10 11 14 8 156 -15 629 -7 146 -29 187 -84
158 -18 -10 -29 -25 -122 -168 -30 -46 -59 -83 -65 -83 -7 0 -19 11 -28 24 -8
13 -36 43 -61 67 -25 23 -66 71 -92 106 -47 64 -57 71 -68 53z"/>
<path d="M9633 9308 c-5 -7 -15 -116 -22 -243 -17 -335 -23 -405 -32 -405 -5
0 -20 23 -34 50 -14 28 -41 74 -59 103 -18 29 -43 75 -54 102 -33 80 -88 224
-112 298 -18 57 -25 67 -45 67 -14 0 -25 -7 -28 -20 -5 -19 -13 -20 -159 -17
-139 2 -155 4 -170 22 -13 15 -19 17 -28 8 -16 -15 -16 -76 -1 -258 14 -157
12 -228 -4 -190 -4 11 -18 34 -31 52 l-24 31 21 48 c17 38 20 59 15 106 -7 66
-28 125 -54 144 -67 52 -185 82 -258 66 -24 -5 -48 -6 -57 -1 -9 6 -18 5 -21
0 -4 -5 -26 -19 -50 -31 -61 -29 -106 -77 -106 -112 0 -32 20 -37 41 -12 12
14 83 64 91 64 2 0 2 -102 0 -227 -2 -156 1 -259 11 -325 9 -64 10 -102 4
-114 -7 -12 -5 -27 5 -48 8 -17 19 -44 24 -61 17 -54 82 -42 69 12 -6 26 -10
24 134 48 114 19 151 34 179 70 12 16 23 26 25 24 1 -2 11 -21 21 -42 28 -55
71 -64 206 -43 112 17 143 33 124 64 -13 19 -57 21 -164 4 -36 -5 -74 -6 -86
-2 -26 10 -34 59 -34 216 l0 113 33 5 c17 3 46 7 62 8 26 3 30 7 30 33 l0 30
-66 -1 -65 0 -11 105 c-7 58 -8 110 -4 114 5 5 75 9 157 9 l149 1 12 -194 c6
-107 12 -254 12 -327 0 -73 3 -137 6 -142 8 -14 42 -13 51 1 4 7 6 107 5 223
l-2 211 44 -85 c116 -228 181 -340 199 -346 32 -10 55 22 67 89 12 69 41 501
41 614 0 39 -3 78 -6 87 -7 19 -38 21 -51 4z m-913 -133 c27 -14 54 -34 60
-45 6 -11 10 -50 8 -87 -3 -57 -6 -68 -28 -84 -22 -17 -130 -48 -217 -63 l-33
-5 0 149 c0 169 -8 157 98 159 49 1 74 -5 112 -24z m55 -311 c9 -4 28 -32 43
-63 20 -44 26 -72 27 -127 0 -106 -10 -113 -218 -148 -57 -10 -79 -10 -82 -2
-8 32 -35 236 -35 269 l0 37 48 1 c26 1 76 9 112 19 78 21 84 22 105 14z"/>
<path d="M10885 9290 c-42 -27 -75 -89 -82 -154 -16 -152 61 -223 166 -153 22
15 45 27 51 27 34 0 70 -185 52 -272 -6 -29 -15 -65 -21 -79 -13 -35 -84 -69
-143 -69 -38 0 -54 7 -96 40 -50 40 -50 40 -56 16 -25 -100 135 -164 264 -105
67 30 88 56 112 132 38 126 10 317 -57 384 -41 41 -70 42 -123 3 -49 -35 -58
-37 -72 -11 -25 48 5 167 48 190 12 6 41 11 65 11 52 0 68 21 34 45 -30 21
-105 19 -142 -5z"/>
<path d="M11166 9282 c-2 -4 2 -34 9 -67 7 -33 18 -127 25 -210 6 -82 20 -196
30 -253 10 -57 16 -110 14 -117 -3 -7 4 -23 15 -34 17 -17 25 -19 41 -11 24
13 26 49 6 152 -8 40 -19 127 -26 193 -17 179 -39 306 -55 332 -15 22 -49 31
-59 15z"/>
<path d="M8150 8015 c-10 -12 -10 -18 0 -30 7 -8 18 -15 26 -15 7 0 17 -7 22
-16 13 -22 46 -13 50 13 2 16 -6 28 -30 43 -40 24 -52 25 -68 5z"/>
<path d="M7737 7922 c-33 -34 -34 -56 -5 -76 33 -23 75 -20 103 9 30 29 32 56
7 78 -29 26 -74 21 -105 -11z"/>
<path d="M10028 7801 c-118 -39 -204 -109 -251 -205 -35 -71 -59 -73 -68 -7
-6 46 -25 67 -68 78 -37 9 -72 -16 -110 -80 -37 -63 -51 -63 -77 -1 -17 41
-63 86 -133 131 -43 28 -69 38 -114 41 -51 4 -65 0 -133 -34 -41 -22 -83 -50
-92 -64 -33 -50 -83 -195 -98 -289 -16 -97 -40 -153 -74 -171 -11 -6 -54 -17
-97 -26 -105 -22 -152 -44 -200 -97 -53 -57 -73 -96 -80 -156 -10 -87 53 -172
143 -194 45 -11 49 -14 49 -42 0 -26 -4 -30 -35 -35 -48 -8 -52 -11 -101 -82
-69 -102 -97 -227 -65 -301 15 -38 66 -84 102 -93 37 -9 71 19 88 74 25 80 18
8 -8 -92 -24 -87 -56 -351 -56 -452 0 -60 17 -126 36 -137 8 -4 14 -16 14 -26
0 -28 34 -64 87 -93 72 -39 122 -44 180 -18 103 46 136 111 137 275 1 99 1
101 -36 156 -20 31 -51 82 -69 113 -38 70 -36 112 7 181 32 49 70 71 109 61
21 -5 25 -12 25 -41 0 -38 21 -57 74 -69 l29 -7 -31 -19 c-21 -13 -35 -32 -43
-60 -11 -37 -10 -43 8 -68 18 -24 27 -27 76 -27 49 0 54 -2 42 -15 -42 -46
-34 -104 15 -121 21 -8 30 -18 30 -32 1 -26 18 -50 45 -63 12 -6 90 -7 195 -4
144 6 176 4 183 -7 6 -10 12 -11 21 -4 7 6 55 15 107 21 125 13 139 13 139 -4
0 -8 25 -27 55 -41 43 -22 63 -26 92 -20 88 16 133 68 133 152 0 126 -162 221
-242 141 l-21 -21 -76 31 c-42 16 -146 58 -231 92 -85 35 -184 73 -219 86 -40
14 -65 29 -67 39 -1 9 -8 23 -15 32 -13 15 -25 15 -171 -3 -27 -3 -48 -3 -48
1 0 29 64 83 120 100 63 19 86 71 53 121 -15 24 -20 25 -99 23 -46 -1 -85 1
-86 5 -2 4 50 27 115 51 90 32 116 39 111 26 -4 -9 -7 -27 -8 -41 -2 -40 35
-38 82 4 47 42 99 66 145 66 51 0 135 28 147 50 16 29 12 75 -7 92 -59 52
-174 20 -278 -74 -37 -34 -41 -34 -49 -4 -9 35 -62 64 -144 78 -40 7 -72 15
-72 19 0 3 36 22 80 42 60 27 83 43 90 62 19 49 -13 75 -115 90 -103 16 -108
23 -36 59 56 29 81 51 81 72 0 22 -38 54 -65 54 -29 0 -31 8 -10 36 10 13 14
45 15 102 0 86 -10 122 -35 122 -17 0 -23 -23 -28 -113 -3 -61 -6 -71 -34 -97
-17 -17 -35 -39 -38 -51 -8 -25 19 -59 47 -59 15 0 10 -8 -22 -38 -68 -65 -46
-132 49 -147 91 -15 91 -15 37 -41 -70 -34 -96 -61 -96 -100 0 -42 36 -69 105
-78 79 -11 105 -17 105 -25 0 -5 -48 -26 -107 -47 -117 -43 -163 -77 -163
-123 0 -47 32 -66 111 -65 73 1 85 -6 45 -24 -13 -6 -39 -24 -58 -41 -34 -30
-34 -30 -79 -15 -81 28 -150 -12 -203 -118 -31 -62 -34 -132 -8 -186 10 -20
42 -76 71 -124 l54 -87 -5 -83 c-5 -96 -24 -140 -71 -168 -48 -30 -101 -26
-159 11 -55 36 -61 44 -78 117 -9 41 -10 79 0 175 19 201 30 278 52 350 28 94
22 171 -16 204 -15 13 -35 23 -45 23 -27 0 -59 -40 -70 -88 -12 -55 -16 -59
-41 -37 -47 42 -30 162 36 258 31 44 42 53 77 59 24 4 50 17 60 29 22 27 23
106 1 137 -19 27 -65 52 -97 52 -16 0 -37 13 -57 37 -29 32 -31 41 -26 77 4
23 19 58 34 80 43 63 81 85 179 105 104 21 143 39 177 84 35 46 44 75 57 180
10 86 58 250 78 270 20 20 129 57 168 57 62 0 157 -67 201 -143 34 -59 84 -96
115 -84 9 3 30 31 49 63 51 88 87 97 88 21 0 -35 41 -77 74 -77 48 0 73 21
112 93 68 123 198 197 326 183 76 -8 103 -27 137 -95 45 -93 109 -111 233 -66
41 15 91 25 123 25 46 0 59 -5 97 -36 34 -29 45 -47 54 -85 13 -56 32 -81 79
-103 44 -21 79 -20 144 4 66 26 87 20 100 -28 9 -32 8 -41 -13 -72 -34 -50
-39 -74 -23 -113 18 -43 57 -81 109 -108 22 -11 60 -41 84 -66 43 -44 44 -46
44 -111 0 -65 47 -317 70 -377 8 -19 11 -94 11 -205 -2 -163 0 -181 24 -253
42 -130 28 -307 -28 -341 -35 -21 -78 60 -108 204 -6 30 -12 132 -13 225 -2
136 -5 176 -19 201 -27 52 -79 60 -120 18 -48 -48 -62 -112 -62 -286 0 -138
-2 -159 -18 -175 -23 -23 -32 -9 -40 61 -15 125 -146 144 -231 34 -50 -66 -56
-97 -55 -256 1 -181 -10 -231 -63 -284 -31 -31 -45 -38 -77 -38 -90 0 -105 91
-45 270 43 126 41 160 -10 215 -40 42 -76 46 -111 11 -31 -32 -40 -69 -28
-121 26 -116 -44 -100 -81 18 -10 33 -26 7 -26 -43 0 -67 38 -112 95 -114 34
-1 42 4 63 34 21 31 23 42 17 101 -7 73 6 99 32 63 19 -25 12 -67 -26 -174
-68 -192 -18 -330 120 -330 64 0 134 47 171 114 39 73 50 147 42 280 -6 97 -4
123 10 160 26 68 100 120 121 86 3 -5 10 -36 15 -67 11 -66 43 -103 90 -103
43 0 57 9 82 48 21 34 23 49 24 202 0 132 4 173 18 204 28 66 37 32 40 -160 2
-103 9 -196 16 -218 11 -36 10 -41 -7 -53 -15 -12 -18 -31 -21 -129 -4 -112
-4 -115 -30 -128 -69 -36 -106 -102 -122 -217 -15 -104 -3 -138 81 -224 l69
-72 -1 -214 c-1 -118 -4 -254 -8 -302 l-6 -88 -98 -34 c-54 -18 -109 -43 -123
-56 -27 -25 -29 -23 -13 17 5 16 14 90 20 166 14 203 -21 518 -61 543 -7 4
-10 -100 -9 -297 1 -368 -9 -426 -81 -478 -44 -31 -82 -39 -134 -28 -103 22
-146 112 -191 404 -30 194 -33 207 -47 198 -14 -9 -5 -276 12 -354 38 -181 78
-254 162 -296 87 -44 166 -34 255 32 l31 24 -5 -39 c-7 -52 11 -83 45 -79 25
3 27 6 24 44 -4 49 28 94 80 114 18 6 48 18 66 26 35 15 249 51 256 43 3 -3 0
-25 -5 -49 -25 -110 -6 -193 46 -206 24 -6 25 -8 19 -78 -7 -86 -39 -161 -69
-161 -16 0 -21 8 -25 48 -6 51 -29 83 -54 74 -8 -3 -26 -28 -40 -56 -26 -50
-71 -94 -90 -88 -6 2 -17 15 -25 29 -23 40 8 109 82 181 43 42 57 61 49 69
-20 20 -67 -3 -123 -63 -45 -47 -62 -59 -87 -59 -90 0 -10 142 98 174 58 17
65 42 15 52 -42 8 -86 -10 -146 -57 -51 -40 -73 -89 -64 -147 9 -71 8 -121 -4
-136 -11 -13 -116 -48 -316 -107 -118 -35 -139 -46 -130 -72 12 -30 57 -29
146 2 46 16 111 36 145 45 83 21 191 72 204 95 5 11 10 33 10 50 0 26 4 31 25
31 22 0 25 -4 25 -40 0 -48 46 -107 88 -112 l27 -3 3 -97 3 -97 -48 -24 c-135
-69 -621 -162 -1000 -192 -512 -40 -841 0 -1146 142 -72 34 -77 38 -72 62 5
27 -29 309 -39 319 -4 3 -12 0 -19 -7 -8 -8 -12 -43 -11 -99 l0 -87 -12 77
c-7 43 -15 82 -19 88 -17 28 -25 1 -25 -89 0 -78 3 -101 16 -112 14 -11 18
-10 30 5 12 17 13 17 18 -5 13 -63 15 -89 7 -89 -14 0 -61 41 -61 53 0 15 -33
79 -65 127 -25 37 -29 70 -54 483 -9 144 -9 150 16 220 l25 72 -6 295 c-6 282
-16 443 -30 457 -3 4 -30 8 -59 11 l-54 4 -71 -93 c-76 -102 -120 -180 -129
-233 -3 -18 2 -69 11 -113 17 -80 17 -84 -8 -210 -38 -200 -49 -331 -43 -524
3 -96 9 -188 12 -205 6 -28 4 -32 -19 -38 -47 -12 -95 -67 -152 -172 -113
-212 -107 -365 18 -430 29 -15 59 -15 99 1 12 4 23 -4 38 -30 39 -67 123 -81
171 -30 l23 25 33 -25 c42 -32 93 -33 121 -2 21 22 54 91 50 105 -1 4 12 8 28
10 60 5 73 12 90 48 12 25 15 49 11 75 -3 22 -4 39 -1 39 3 0 49 -21 103 -46
129 -62 279 -107 455 -138 l37 -7 0 -126 c0 -113 -12 -193 -30 -193 -3 0 -16
19 -29 43 -73 127 -148 168 -215 116 -32 -25 -33 -51 -6 -120 12 -29 17 -55
13 -59 -4 -4 -30 -15 -56 -24 -121 -45 -198 -202 -153 -311 14 -34 14 -35 -12
-47 -21 -11 -27 -20 -28 -48 0 -42 -14 -120 -20 -120 -3 0 -22 13 -42 30 -64
51 -203 100 -282 100 -47 -1 -114 -32 -172 -81 l-47 -39 -11 41 c-15 54 -59
99 -97 99 -15 -1 -53 -10 -83 -21 -30 -11 -82 -26 -115 -34 -33 -7 -87 -20
-120 -29 -32 -9 -83 -16 -113 -16 -90 0 -302 -60 -344 -98 -22 -18 -23 -60 -3
-86 10 -13 15 -43 15 -85 0 -93 64 -529 106 -714 23 -108 97 -323 147 -429 43
-92 48 -97 86 -109 29 -9 53 -9 88 -1 342 74 393 96 393 167 0 33 -35 137
-114 337 -49 125 -57 159 -40 165 7 2 18 -24 28 -64 27 -106 117 -284 163
-320 51 -41 167 -99 226 -114 63 -15 150 -7 215 21 141 61 281 321 302 562 9
100 1 283 -16 366 l-6 32 67 0 67 0 -7 -102 c-13 -200 -53 -420 -132 -731 -50
-195 -47 -200 157 -221 63 -6 155 -9 203 -6 122 9 125 12 143 176 8 71 26 197
39 279 40 238 75 493 75 540 0 46 14 66 45 61 15 -2 20 -10 18 -32 -28 -421
-32 -623 -14 -799 17 -169 24 -189 67 -210 55 -26 98 -29 135 -11 42 21 85 20
244 -3 72 -11 164 -23 206 -27 70 -6 77 -5 102 17 24 21 29 40 52 174 14 83
28 195 32 250 5 90 4 102 -14 124 -30 36 -124 41 -224 11 -125 -37 -121 -37
-117 -4 2 20 8 28 18 25 8 -3 33 -6 56 -9 35 -3 44 0 63 24 50 64 71 235 36
307 -20 44 -50 67 -83 67 -21 0 -23 3 -18 26 4 15 10 40 13 56 8 41 24 44 91
17 43 -18 74 -23 123 -22 l66 2 6 -227 c4 -144 12 -251 21 -292 9 -36 25 -116
36 -179 24 -135 54 -238 77 -263 9 -10 29 -18 45 -18 37 0 249 55 287 74 39
21 55 63 42 112 -6 22 -15 118 -21 214 -6 96 -13 187 -16 202 -2 16 -2 28 1
28 2 0 26 -13 51 -30 61 -38 103 -46 142 -26 17 9 32 21 35 28 9 25 19 -2 33
-84 16 -90 40 -182 85 -325 42 -132 50 -134 236 -72 203 67 209 77 154 262
-43 142 -94 406 -112 577 -11 103 -50 306 -69 356 -6 14 -10 59 -10 99 0 68
-2 77 -29 107 l-29 33 -134 0 c-128 0 -136 -1 -174 -26 -51 -34 -86 -100 -114
-216 -12 -51 -25 -93 -29 -93 -3 0 -22 26 -43 58 -20 31 -54 77 -76 102 l-39
45 9 65 c17 118 -9 229 -68 299 -38 44 -81 71 -113 71 -31 0 -32 12 -6 86 14
38 25 81 25 95 0 41 -31 72 -71 71 -57 -1 -79 -38 -137 -228 -7 -20 -11 -18
-66 32 l-58 53 -19 128 c-10 69 -16 129 -13 132 3 3 38 11 77 18 470 77 698
143 735 213 10 18 12 55 8 141 -5 108 -3 118 15 135 19 17 22 17 32 3 20 -26
56 -41 87 -34 71 16 114 105 125 264 6 72 11 90 38 130 18 25 40 65 51 88 l18
41 197 4 196 4 100 37 c134 49 146 59 171 143 40 129 74 309 84 449 6 77 15
167 20 200 26 158 34 440 22 755 -13 373 -19 406 -85 465 -47 43 -195 125
-268 148 -60 20 -172 44 -239 53 -67 8 -299 8 -339 -1 -26 -6 -29 -4 -34 32
-4 21 -11 58 -16 83 -6 25 -10 82 -11 128 0 51 -5 94 -14 110 -18 34 -110 116
-167 149 -71 40 -85 73 -50 121 28 41 33 66 20 116 -12 49 -65 106 -98 106
-10 0 -44 -9 -76 -20 -108 -37 -141 -23 -170 73 -30 98 -132 168 -225 153 -19
-3 -71 -17 -116 -32 -100 -34 -124 -29 -150 27 -10 23 -27 52 -37 66 -51 64
-192 90 -299 54z m-383 -1170 c3 -6 -15 -13 -39 -16 -56 -9 -81 -1 -46 13 32
14 77 15 85 3z m1882 -77 c3 -8 -1 -23 -10 -31 -13 -13 -19 -14 -31 -3 -9 7
-16 21 -16 31 0 24 48 26 57 3z m151 -36 c64 -73 154 -159 160 -153 3 3 -37
49 -89 102 l-94 98 39 3 c35 3 43 -2 106 -62 88 -86 104 -86 20 -1 l-65 66 45
-6 c25 -4 52 -9 60 -11 8 -3 48 -12 88 -19 80 -16 255 -97 315 -146 50 -41 56
-84 66 -414 4 -154 9 -300 9 -325 2 -50 -27 -441 -33 -451 -2 -3 -9 -71 -15
-152 -6 -86 -22 -204 -40 -289 -47 -218 -46 -217 -99 -240 -119 -51 -162 -60
-319 -65 -83 -3 -158 -3 -166 0 -12 5 -10 19 11 79 19 53 27 101 31 174 l5
102 72 4 c55 2 79 8 95 23 89 80 164 535 165 995 0 215 -2 249 -17 277 -21 38
-67 75 -125 100 -29 13 -78 58 -165 152 -68 74 -122 137 -121 140 1 3 5 15 9
26 7 19 7 19 -13 2 -19 -16 -20 -16 -36 1 -26 29 -20 42 19 42 31 0 43 -7 82
-52z m-110 0 c16 -16 15 -30 -2 -53 -12 -16 -16 -17 -30 -6 -9 7 -16 21 -16
30 0 17 18 41 30 41 3 0 11 -5 18 -12z m57 -68 c16 -18 17 -23 5 -45 l-14 -26
-24 24 c-20 21 -22 28 -13 46 14 26 23 26 46 1z m-101 -13 c8 -12 7 -20 -2
-29 -10 -10 -15 -10 -22 2 -14 21 -12 52 2 48 6 -2 16 -12 22 -21z m221 -118
l90 -90 -40 6 c-63 10 -75 15 -75 30 0 8 -10 21 -21 29 -15 10 -20 21 -16 36
4 16 2 20 -11 16 -9 -3 -23 -1 -31 4 -12 7 -13 13 -3 34 6 14 13 26 14 26 2 0
44 -41 93 -91z m-170 61 c17 -19 15 -50 -3 -50 -17 0 -44 39 -39 55 8 20 20
19 42 -5z m-42 -65 c29 -40 2 -62 -34 -29 -14 13 -16 21 -8 35 13 25 20 24 42
-6z m97 10 c6 -8 9 -23 5 -36 -7 -21 -7 -21 -26 -2 -12 12 -17 26 -13 36 8 21
18 22 34 2z m48 -47 c20 -20 14 -38 -13 -38 -26 0 -29 7 -19 34 7 19 16 20 32
4z m-88 -23 c10 -13 9 -15 -8 -15 -22 0 -36 13 -25 24 10 10 20 7 33 -9z m-90
-25 c0 -5 -4 -10 -10 -10 -5 0 -10 5 -10 10 0 6 5 10 10 10 6 0 10 -4 10 -10z
m317 -73 c63 -14 136 -55 149 -85 13 -32 16 -323 5 -450 -24 -256 -43 -410
-66 -517 -24 -112 -57 -204 -78 -217 -7 -4 -38 -8 -69 -8 l-57 0 -7 48 c-9 64
-75 264 -109 332 -65 130 -162 242 -272 315 -33 21 -43 34 -43 55 0 15 -3 48
-6 74 -5 31 -3 46 5 46 6 0 11 -7 11 -15 0 -8 17 -32 38 -55 33 -34 45 -40 81
-40 32 0 47 6 66 26 35 37 62 117 69 204 7 74 -1 121 -42 248 -10 30 -9 34 11
42 34 13 244 11 314 -3z m-2477 -108 c0 -6 -4 -7 -10 -4 -5 3 -10 11 -10 16 0
6 5 7 10 4 6 -3 10 -11 10 -16z m-90 -12 c0 -14 -97 -53 -107 -43 -10 9 13 28
49 42 45 16 58 16 58 1z m90 -34 c0 -8 4 -12 9 -8 15 9 22 -11 13 -36 -9 -22
-10 -21 -21 13 -7 20 -18 39 -26 42 -8 3 -15 13 -15 22 0 16 2 16 20 -1 11
-10 20 -24 20 -32z m224 -53 c9 -22 16 -54 16 -71 0 -42 -36 -108 -66 -119
-27 -11 -104 -14 -104 -4 0 3 7 28 16 55 13 39 16 73 11 145 l-5 93 58 -29
c47 -24 60 -36 74 -70z m96 0 c26 -14 52 -89 48 -141 l-3 -44 -62 -2 c-35 -1
-63 2 -63 6 0 5 7 26 16 47 16 37 15 87 -2 142 -6 21 -5 22 20 12 15 -5 36
-14 46 -20z m150 -69 c29 -21 38 -67 18 -93 -7 -9 -29 -18 -48 -20 -35 -3 -35
-3 -38 42 -1 25 -9 62 -17 83 l-15 37 38 -15 c20 -9 48 -24 62 -34z m-500 10
c0 -5 -7 -12 -16 -15 -24 -9 -28 -7 -14 9 14 17 30 20 30 6z m648 -67 c41 -27
25 -41 -55 -46 -24 -1 -43 1 -43 5 0 4 0 25 0 47 l0 40 38 -15 c20 -9 47 -23
60 -31z m1336 -872 c33 -48 33 -52 -4 -52 -29 0 -30 2 -30 45 0 25 2 45 4 45
2 0 15 -17 30 -38z m53 -130 c17 -11 44 -159 46 -254 l2 -83 -62 -3 -63 -3 0
169 c0 93 3 172 7 175 9 9 55 9 70 -1z m-2718 -712 c1 -47 4 -111 7 -142 7
-62 7 -62 -46 -52 -36 8 -36 -13 1 193 25 138 35 138 38 1z m-251 -255 c16
-42 65 -85 98 -85 29 0 61 30 70 65 11 46 60 27 121 -47 42 -52 110 -210 119
-281 6 -40 4 -46 -15 -52 -29 -9 -37 -1 -45 43 -7 44 -26 65 -49 56 -13 -5
-16 -22 -15 -92 2 -66 -2 -95 -15 -119 -10 -18 -19 -33 -21 -33 -37 0 -76 70
-76 136 0 29 -8 61 -22 85 -19 35 -23 37 -34 21 -9 -11 -14 -48 -14 -102 0
-102 -14 -135 -54 -135 -20 0 -35 9 -50 28 -18 25 -21 41 -19 120 1 51 3 105
5 121 1 16 -2 31 -8 33 -14 5 -39 -44 -72 -142 -31 -90 -45 -99 -88 -61 -28
23 -29 28 -29 110 1 85 1 87 60 202 56 108 100 164 129 164 6 0 18 -16 24 -35z
m1930 -505 c-13 -20 -28 -27 -28 -12 0 10 22 32 32 32 5 0 3 -9 -4 -20z m-58
3 c0 -5 -14 -24 -30 -43 -22 -26 -30 -31 -30 -17 0 24 29 67 46 67 8 0 14 -3
14 -7z m-700 -8 c0 -3 -8 -18 -17 -32 l-17 -26 -7 24 c-3 13 -4 27 -2 32 5 8
43 10 43 2z m584 -117 c9 -68 21 -170 26 -228 5 -58 12 -118 15 -135 5 -26 2
-32 -25 -47 -16 -9 -35 -30 -41 -45 -11 -29 -8 -106 5 -135 8 -17 -1 -18 -105
-18 -63 0 -125 3 -137 7 -22 5 -23 10 -17 49 8 53 -8 115 -36 140 -21 18 -21
24 -14 149 4 72 11 184 14 250 l6 120 90 6 c50 3 115 6 146 7 l56 2 17 -122z
m201 61 c-27 -38 -45 -50 -45 -28 0 18 64 93 68 80 2 -7 -8 -30 -23 -52z
m-762 16 c-15 -19 -28 -33 -30 -31 -1 1 3 17 9 34 8 20 19 32 31 32 15 0 14
-5 -10 -35z m87 28 c-1 -9 -57 -73 -65 -73 -12 0 -3 21 21 49 24 29 44 40 44
24z m80 0 c-1 -14 -61 -74 -71 -71 -14 5 39 78 56 78 8 0 15 -3 15 -7z m16
-79 c-3 -8 -10 -14 -16 -14 -14 0 -13 26 3 51 12 20 12 20 15 -1 2 -12 1 -28
-2 -36z m487 11 c-3 -9 -8 -14 -10 -11 -3 3 -2 9 2 15 9 16 15 13 8 -4z m127
5 c0 -5 -7 -10 -16 -10 -8 0 -12 5 -9 10 3 6 10 10 16 10 5 0 9 -4 9 -10z
m-716 -70 c43 -6 83 -13 89 -17 6 -4 7 -41 3 -102 -20 -280 -20 -264 7 -292
32 -33 40 -61 32 -108 l-6 -38 -84 -7 c-127 -10 -551 17 -627 40 -22 7 -42 68
-34 107 12 59 63 123 116 146 27 12 58 21 70 21 23 0 119 -69 119 -86 2 -31
68 -31 129 0 123 63 215 229 167 302 -16 25 -21 26 -71 21 -50 -5 -54 -4 -54
15 0 17 4 19 33 14 17 -3 67 -11 111 -16z m724 -42 c2 -22 -1 -38 -7 -38 -25
0 -11 -76 24 -130 19 -30 35 -60 35 -67 0 -17 33 -33 68 -33 15 0 50 -7 75
-16 61 -21 79 -14 75 28 l-3 33 66 3 c80 3 105 -13 144 -92 23 -47 25 -63 23
-142 l-3 -89 -48 3 c-26 2 -73 -4 -102 -13 -49 -14 -58 -14 -84 -1 -44 23
-184 37 -311 31 -63 -4 -124 -8 -135 -10 -19 -4 -21 0 -20 61 l0 66 35 12 c34
11 35 13 34 61 0 44 -6 100 -30 308 l-7 56 64 4 c105 6 104 7 107 -35z m322
-51 c-21 -56 -40 -82 -40 -54 0 20 31 110 44 126 20 26 18 -12 -4 -72z m-1440
33 c18 -10 80 -96 80 -112 0 -5 -15 -8 -32 -6 -29 3 -37 10 -60 57 -33 64 -29
83 12 61z m316 -51 c-3 -17 -20 -50 -37 -73 l-31 -41 4 53 c5 53 28 92 56 92
11 0 13 -8 8 -31z m1926 -564 c3 -38 18 -115 32 -170 14 -55 33 -158 41 -230
34 -278 90 -566 131 -664 12 -28 12 -37 2 -47 -12 -12 -179 -67 -184 -61 -2 2
-19 59 -39 127 -38 133 -70 310 -81 450 -12 158 -56 227 -118 186 -31 -19 -43
-60 -50 -164 -6 -85 -18 -122 -39 -122 -22 0 -118 102 -143 152 -26 50 -62 70
-93 51 -30 -19 -36 -59 -22 -151 7 -48 19 -175 27 -282 7 -107 16 -216 20
-241 l6 -46 -79 -21 c-123 -33 -114 -35 -134 33 -10 33 -25 101 -35 150 -9 50
-23 117 -31 150 -7 33 -17 155 -23 270 -6 116 -15 246 -21 290 -9 71 1 279 15
292 2 2 29 11 60 20 52 15 59 15 101 -1 49 -19 104 -87 164 -203 43 -82 75
-113 118 -113 41 0 67 37 78 109 11 77 55 245 71 269 22 34 49 41 139 39 l80
-2 7 -70z m-2157 21 c99 -8 250 -16 336 -16 133 0 159 -2 170 -17 16 -18 20
-197 6 -246 l-7 -27 -93 6 c-90 6 -93 6 -124 -20 -36 -30 -33 -19 -63 -261
-11 -93 -34 -246 -50 -340 -16 -93 -34 -217 -40 -275 -18 -161 -11 -148 -77
-152 -47 -3 -233 9 -240 16 -1 1 20 93 48 204 65 268 131 726 114 794 -9 36
-48 53 -119 51 -33 -1 -85 1 -114 4 -49 4 -54 7 -72 43 -16 32 -20 59 -20 144
0 74 4 106 13 110 15 7 103 2 332 -18z m1215 -32 c8 -8 8 -47 -1 -142 l-13
-132 -37 0 c-21 0 -62 9 -91 21 -76 30 -143 23 -179 -20 -28 -34 -89 -231 -89
-288 0 -60 61 -84 112 -43 14 10 28 16 32 13 9 -10 7 -98 -3 -126 -9 -22 -14
-23 -63 -19 -47 4 -56 1 -79 -22 -37 -36 -48 -105 -33 -198 12 -72 74 -99 145
-63 43 23 150 55 182 55 34 0 34 -5 7 -188 -29 -195 -24 -182 -68 -182 -21 0
-116 11 -211 25 -175 26 -220 25 -273 -1 -15 -8 -29 -11 -31 -6 -24 40 -37
304 -30 635 l6 307 27 0 c67 0 93 66 96 250 2 74 3 135 3 135 1 0 131 0 290 0
197 0 293 -4 301 -11z m-2285 -109 c13 -49 28 -105 34 -122 9 -31 8 -33 -17
-38 -15 -3 -52 -13 -82 -22 -30 -8 -93 -19 -140 -23 -106 -9 -164 -32 -180
-70 -10 -24 -8 -36 13 -81 14 -30 28 -68 32 -85 11 -55 35 -68 112 -61 38 3
76 9 85 12 13 5 19 -2 28 -35 20 -75 12 -93 -50 -113 -30 -9 -61 -25 -67 -34
-27 -35 -16 -74 106 -391 28 -72 51 -141 51 -151 0 -16 -23 -24 -152 -55 -84
-20 -158 -36 -164 -36 -26 0 -131 269 -178 455 -19 73 -89 485 -112 650 -8 66
-18 123 -21 128 -12 19 197 77 282 77 28 0 82 9 120 19 39 11 97 25 130 31 33
7 71 18 85 26 49 27 60 16 85 -81z m406 69 c68 -20 140 -65 174 -110 45 -59
95 -171 116 -262 18 -75 20 -110 17 -262 -5 -194 -11 -217 -88 -373 -66 -135
-119 -181 -222 -193 -61 -7 -121 13 -216 73 -47 30 -56 42 -98 130 -66 139
-86 212 -84 305 1 45 -5 100 -15 135 -10 36 -15 85 -13 132 l3 73 67 17 c110
28 126 57 92 172 l-16 54 52 47 c90 81 130 91 231 62z m-523 -411 c-3 -24 -10
-30 -56 -42 -59 -16 -68 -12 -78 37 l-6 32 71 0 72 0 -3 -27z"/>
<path d="M12211 5862 c-13 -25 -15 -271 -2 -291 5 -8 16 -11 25 -8 12 5 16 20
16 64 0 50 2 55 14 38 19 -26 46 -13 46 23 0 35 -19 92 -30 92 -10 0 -20 -25
-21 -58 -1 -15 -5 11 -10 57 -9 91 -20 116 -38 83z"/>
<path d="M12106 5728 c-11 -41 -6 -154 7 -172 14 -19 42 -14 51 9 5 13 -6 105
-19 163 -3 12 -12 22 -19 22 -8 0 -16 -10 -20 -22z"/>
<path d="M8575 2154 c-47 -24 -73 -53 -102 -113 -52 -112 -29 -299 50 -403 62
-81 181 -114 241 -67 87 68 106 259 45 442 -24 71 -57 112 -114 138 -49 23
-81 24 -120 3z m93 -111 c73 -61 98 -332 37 -383 -21 -18 -63 -4 -96 32 -33
35 -69 141 -69 202 0 53 23 132 46 157 23 26 44 24 82 -8z"/>
<path d="M7715 7754 c-31 -32 3 -93 52 -94 29 0 36 13 18 36 -8 11 -11 31 -8
47 5 24 2 27 -20 27 -14 0 -33 -7 -42 -16z"/>
<path d="M9979 7636 c-53 -36 -81 -87 -83 -147 -1 -44 3 -54 27 -75 39 -34 62
-30 107 16 22 22 45 40 52 40 7 0 31 -11 53 -25 53 -32 95 -32 128 1 37 37 45
89 21 133 -34 62 -63 75 -172 79 -91 3 -99 2 -133 -22z m221 -65 c28 -20 39
-68 17 -76 -7 -3 -36 6 -64 20 -28 14 -62 25 -75 25 -26 0 -66 -24 -86 -52
-28 -39 -45 -2 -21 45 30 59 45 66 127 60 50 -3 86 -11 102 -22z"/>
<path d="M9089 7629 c-29 -29 -19 -45 25 -41 54 4 79 -16 100 -84 20 -64 47
-93 89 -94 40 0 47 28 14 54 -16 13 -33 42 -42 72 -28 96 -131 148 -186 93z"/>
<path d="M8765 7498 c-2 -7 -5 -22 -7 -33 -3 -17 -14 -21 -71 -27 -118 -14
-197 -66 -197 -132 0 -66 58 -106 153 -106 65 0 128 37 154 90 29 59 16 220
-17 220 -6 0 -12 -6 -15 -12z m-15 -149 c0 -11 -13 -34 -29 -50 -24 -24 -38
-29 -76 -29 -73 0 -107 29 -70 60 24 20 87 39 133 40 36 0 42 -3 42 -21z"/>
<path d="M10063 7413 c-25 -5 -73 -57 -73 -79 0 -73 126 -113 184 -59 38 36
34 92 -9 116 -35 20 -71 27 -102 22z m54 -73 c15 -24 2 -34 -33 -26 -37 10
-29 42 11 45 6 1 16 -8 22 -19z"/>
<path d="M11298 7340 c-54 -42 -63 -141 -17 -180 24 -22 79 -40 121 -40 39 0
78 51 78 102 0 47 -24 103 -54 123 -30 22 -98 19 -128 -5z m108 -84 c10 -43 1
-61 -31 -59 -46 4 -55 10 -55 42 0 60 71 74 86 17z"/>
<path d="M10784 7326 c-54 -25 -94 -70 -94 -105 0 -28 16 -26 54 6 64 54 139
68 171 33 24 -27 13 -48 -39 -71 -95 -41 -113 -116 -43 -173 37 -29 43 -31
128 -31 122 0 124 -3 124 -148 0 -79 -5 -121 -15 -142 -19 -37 -44 -39 -48 -5
-13 127 -34 160 -102 160 -28 0 -43 -5 -47 -16 -8 -21 9 -48 33 -52 29 -6 33
-13 43 -87 8 -56 15 -75 36 -92 29 -26 55 -29 88 -11 64 33 82 89 82 248 0
140 -8 163 -68 201 -27 17 -43 20 -102 15 -118 -9 -158 29 -75 72 65 34 90 60
90 96 0 66 -65 126 -137 126 -15 0 -51 -11 -79 -24z"/>
<path d="M9286 7014 c-19 -18 -21 -55 -4 -72 17 -17 74 -15 92 4 19 18 19 17
5 48 -17 36 -66 47 -93 20z"/>
<path d="M9383 6904 c-4 -11 2 -23 16 -34 l23 -16 -26 -17 c-29 -19 -35 -54
-11 -63 21 -8 73 14 90 40 24 33 18 59 -18 84 -39 26 -65 28 -74 6z"/>
<path d="M11246 6739 c-10 -53 -7 -81 21 -164 31 -95 49 -121 71 -103 19 16
10 78 -22 148 -14 30 -31 76 -38 102 -14 56 -23 61 -32 17z"/>
<path d="M8957 6720 c-33 -39 -41 -64 -27 -90 21 -39 113 -42 118 -3 3 17 -3
26 -23 33 l-26 10 21 30 c12 16 18 34 15 40 -12 20 -53 10 -78 -20z"/>
<path d="M10333 6651 c-39 -24 -57 -55 -49 -86 8 -31 51 -44 123 -38 47 4 71
0 128 -22 101 -39 112 -40 124 -18 32 61 -104 166 -230 178 -54 5 -69 3 -96
-14z m60 -58 c-7 -2 -19 -2 -25 0 -7 3 -2 5 12 5 14 0 19 -2 13 -5z"/>
<path d="M10800 6596 c0 -38 5 -48 35 -75 40 -35 65 -39 87 -13 40 44 24 132
-19 106 -10 -6 -19 -21 -21 -33 -5 -32 -18 -25 -36 19 -22 55 -46 53 -46 -4z"/>
<path d="M10355 6464 c-62 -15 -152 -68 -184 -110 -51 -67 -23 -104 34 -44 16
17 32 30 37 30 4 0 15 -14 23 -31 28 -52 115 -75 174 -45 33 17 61 57 61 86 0
11 5 20 10 20 14 0 57 -28 98 -63 63 -53 110 -12 54 48 -15 17 -56 48 -91 69
-54 33 -73 39 -130 42 -36 2 -75 1 -86 -2z m33 -100 c18 -5 20 -9 11 -20 -15
-18 -59 -18 -59 -1 0 26 11 30 48 21z"/>
<path d="M9555 6439 c-98 -13 -235 -97 -235 -145 0 -31 21 -31 76 1 39 23 42
23 47 6 7 -27 111 -64 160 -58 52 7 87 32 94 68 3 16 9 32 13 34 5 3 28 -10
52 -28 63 -48 67 -50 83 -37 24 20 17 46 -22 80 -72 64 -168 92 -268 79z m65
-89 c13 -9 13 -11 0 -20 -24 -16 -84 -8 -88 13 -3 14 4 17 35 17 21 0 45 -5
53 -10z"/>
<path d="M8690 5989 c-26 -48 26 -125 57 -83 16 22 17 76 1 92 -18 18 -46 14
-58 -9z"/>
<path d="M11347 5939 c-17 -64 -1 -129 31 -129 26 0 42 20 42 53 0 20 -6 30
-19 34 -10 2 -25 19 -33 36 l-15 31 -6 -25z"/>
<path d="M8697 5786 c-56 -52 -59 -150 -6 -211 51 -58 133 -55 164 6 21 39 19
47 -21 125 -55 106 -88 126 -137 80z m73 -102 c33 -59 33 -84 2 -84 -30 0 -55
35 -55 79 0 34 8 61 18 61 2 0 17 -25 35 -56z"/>
<path d="M10630 5689 c-30 -11 -60 -57 -60 -91 0 -65 70 -92 109 -42 27 35 29
104 3 127 -10 10 -20 17 -23 16 -2 0 -15 -5 -29 -10z m10 -74 c0 -14 -4 -25
-10 -25 -11 0 -14 33 -3 43 11 11 13 8 13 -18z"/>
<path d="M9109 5613 c-31 -79 -40 -111 -42 -151 -1 -36 3 -48 22 -63 32 -26
68 -34 97 -20 50 22 54 89 12 204 -19 51 -23 57 -50 57 -22 0 -31 -6 -39 -27z
m55 -136 c6 -30 4 -39 -10 -44 -20 -7 -46 23 -40 46 2 9 7 34 11 56 l7 40 12
-30 c7 -17 16 -47 20 -68z"/>
<path d="M8804 5275 c-16 -179 -10 -598 10 -695 9 -47 21 -161 26 -255 11
-207 14 -221 56 -312 36 -76 40 -79 167 -147 56 -30 100 -42 250 -72 100 -19
209 -41 243 -49 100 -25 174 -16 174 20 0 20 -26 31 -90 38 -30 4 -95 15 -145
26 -49 11 -143 29 -209 41 -92 16 -138 30 -204 63 -129 64 -158 117 -173 317
-5 69 -17 179 -25 245 -9 66 -20 152 -25 190 -5 39 -13 198 -18 355 -10 318
-23 400 -37 235z"/>
<path d="M9617 5023 c-9 -351 18 -626 75 -737 67 -132 273 -210 432 -162 99
30 151 98 162 213 10 104 -13 561 -32 636 -10 37 -21 67 -25 67 -14 0 -22
-220 -15 -460 6 -212 4 -251 -10 -293 -23 -67 -68 -100 -146 -105 -64 -5 -154
11 -200 34 -40 21 -97 73 -112 103 -37 71 -76 344 -77 540 -1 161 -23 391 -39
391 -4 0 -10 -102 -13 -227z"/>
<path d="M9141 5183 c-25 -88 -7 -165 34 -149 19 7 22 155 3 174 -19 19 -26
14 -37 -25z"/>
<path d="M9226 5205 c-3 -9 -6 -37 -6 -61 0 -37 3 -44 19 -44 24 0 32 24 23
74 -8 42 -26 57 -36 31z"/>
<path d="M9050 5126 c0 -88 12 -126 39 -126 26 0 30 15 20 90 -13 99 -17 110
-39 110 -18 0 -20 -7 -20 -74z"/>
<path d="M9401 5161 c-12 -8 -11 -37 3 -202 9 -107 22 -236 28 -287 13 -114 6
-238 -17 -281 -19 -39 -82 -70 -139 -71 -21 0 -65 12 -98 27 -54 25 -62 33
-88 88 -23 47 -33 87 -45 190 -8 72 -22 180 -30 240 -8 61 -15 125 -15 143 0
43 -26 43 -33 0 -6 -41 10 -345 24 -442 13 -95 24 -132 57 -190 22 -40 39 -55
94 -84 83 -43 138 -50 213 -27 65 21 117 68 137 123 23 66 16 268 -23 642 -13
121 -30 155 -68 131z"/>
<path d="M10996 5063 c-14 -36 -19 -218 -7 -241 12 -22 35 -29 45 -14 3 5 1
63 -3 130 -7 119 -20 164 -35 125z"/>
<path d="M11066 5018 c-3 -13 -6 -58 -6 -100 0 -70 2 -78 19 -78 28 0 32 25
21 110 -5 41 -10 78 -10 83 0 16 -18 5 -24 -15z"/>
<path d="M9134 4957 c-3 -8 -4 -32 -2 -53 2 -28 8 -40 21 -42 16 -3 18 3 15
49 -3 51 -22 77 -34 46z"/>
<path d="M10416 4257 c-11 -131 5 -191 44 -167 10 6 11 30 6 105 -12 163 -39
196 -50 62z"/>
<path d="M5947 4240 c-36 -29 -94 -127 -121 -207 -14 -43 -32 -74 -49 -86 -25
-19 -27 -19 -74 -3 -156 56 -182 56 -252 6 -66 -48 -97 -134 -71 -195 8 -19 9
-19 9 -1 1 22 63 108 98 136 33 26 94 26 151 0 88 -40 155 -35 202 15 12 13
37 65 54 117 29 83 50 124 102 195 30 41 -5 58 -49 23z"/>
<path d="M10346 4224 c-9 -25 -7 -132 3 -138 5 -4 17 -3 26 0 15 6 16 16 11
66 -8 66 -14 88 -26 88 -4 0 -11 -7 -14 -16z"/>
<path d="M6164 4212 c-83 -46 -135 -116 -137 -187 -2 -40 2 -50 27 -72 25 -21
37 -24 78 -21 72 7 123 46 159 121 16 34 29 68 29 75 0 22 -81 102 -104 102
-11 -1 -35 -9 -52 -18z m57 -68 c24 -12 29 -19 23 -37 -20 -65 -52 -99 -104
-111 -66 -16 -65 56 1 123 23 23 43 41 46 41 2 0 17 -7 34 -16z"/>
<path d="M10280 4138 c0 -18 5 -40 10 -48 17 -26 29 7 17 46 -13 43 -27 44
-27 2z"/>
<path d="M8930 3796 c0 -81 9 -126 27 -133 29 -11 36 12 23 89 -15 98 -19 108
-36 108 -11 0 -14 -15 -14 -64z"/>
<path d="M9020 3769 c0 -56 13 -89 35 -89 20 0 20 59 1 105 -21 50 -36 43 -36
-16z"/>
<path d="M5030 3523 c-35 -13 -151 -107 -170 -137 -25 -41 -46 -47 -96 -30
-53 18 -64 17 -64 -5 0 -25 43 -59 86 -67 47 -9 84 9 127 60 19 24 70 69 113
101 75 57 76 58 53 71 -26 15 -28 15 -49 7z"/>
<path d="M12029 3050 c-102 -18 -186 -88 -259 -216 -43 -75 -45 -83 -48 -170
-4 -103 12 -150 68 -197 96 -81 269 -50 354 64 21 29 44 49 55 49 43 0 84 -95
65 -149 -8 -23 -19 -28 -85 -41 -130 -27 -184 -74 -224 -198 -30 -94 -19 -304
27 -495 14 -58 55 -79 138 -73 l65 6 -40 -15 c-104 -40 -167 -183 -121 -274
31 -60 116 -117 188 -127 151 -21 281 135 238 285 -15 52 -51 100 -91 119
l-36 17 28 28 c41 41 49 83 49 267 0 193 5 207 73 232 132 49 244 154 273 256
31 104 -5 331 -64 412 -44 62 -116 131 -156 152 -72 37 -176 60 -281 63 -55 1
-116 5 -135 8 -19 3 -56 2 -81 -3z m191 -111 c25 -5 77 -14 116 -19 40 -6 87
-16 107 -23 39 -14 101 -67 136 -116 51 -71 84 -247 61 -330 -14 -53 -84 -126
-150 -157 -163 -76 -171 -84 -195 -174 -11 -42 -13 -89 -8 -202 5 -112 3 -151
-7 -163 -9 -11 -34 -15 -104 -15 l-92 0 -13 88 c-23 140 -25 271 -6 336 24 82
57 108 156 120 114 14 167 83 155 205 -10 111 -72 189 -158 198 -61 7 -109
-17 -152 -76 -44 -59 -73 -75 -141 -75 -74 -1 -88 14 -93 104 -4 62 -1 77 24
126 38 75 99 143 149 165 45 21 141 24 215 8z m47 -1415 c12 -3 29 -21 37 -39
9 -18 23 -38 31 -45 31 -26 -23 -105 -79 -116 -64 -11 -136 37 -136 92 0 50
19 81 59 98 40 17 56 18 88 10z"/>
</g>
</svg>
